<mxfile host="app.diagrams.net" modified="2021-12-08T11:35:26.843Z" agent="5.0 (Windows NT 10.0; Win64; x64) AppleWebKit/537.36 (KHTML, like Gecko) Chrome/96.0.4664.45 Safari/537.36" etag="nMNInD1ljpAZ1TMDY4sp" version="15.9.1" type="github">
  <diagram id="m_iBrWdLnQjMoiMSJZ0M" name="Page-1">
    <mxGraphModel dx="1422" dy="798" grid="1" gridSize="10" guides="1" tooltips="1" connect="1" arrows="1" fold="1" page="1" pageScale="1" pageWidth="827" pageHeight="1169" math="0" shadow="0">
      <root>
        <mxCell id="0" />
        <mxCell id="1" parent="0" />
        <mxCell id="A-15gWhZpocMItkSHM9Z-2" value="" style="shape=image;verticalLabelPosition=bottom;labelBackgroundColor=#ffffff;verticalAlign=top;aspect=fixed;imageAspect=0;image=data:image/png,iVBORw0KGgoAAAANSUhEUgAABAcAAAGiCAYAAACbLa+4AAAACXBIWXMAAA7EAAAOxAGVKw4bAAABBnpUWHRYTUw6Y29tLmFkb2JlLnhtcAAAGJVtUU1PwyAYvvdXEDyXl9YtpoRyWePNZNGYbMeuQ9c4oAFM8d8La910jhPv+3yRBx5YUIOSvkVBHbVjocbt3uwki/e0BoxOFP9R483TGq2MlWhJFoRikSGEuN2/sefmcZbHqcYH7wcGMI4jGe+Jse9QVFUFtISyzCMjd1/atyHX7m4y+fFppOtsP/jeaJTmdmc+fY3xzJnOFCRDf0nSjpweTTqjICFQEApn72SftmzdB3ncNL2S2sUMUdAHyuEmdC19ddKujIqwFy+dlZF2MH4W/wZvZm4vxovln8jtv0gOV1VMPcNctMg4nD9NZN8BZIxMuFzPcgAAIABJREFUeJzs3Xl8zNf++PHXzGSyr7JIRBA7jb1oCKmluqSxtFpFaou6Vy31qBa9qr+i1rYqRWnRq7gUrbaKaItWraXci1qaICGLSCRknSSzfH5/eMzna2QRJKH1fj4eeTCf5Zzz+YSZOe/POe+jURRFQQghhBBCCCGEEA8t7f1ugBBCCCGEEEIIIe4vCQ4IIYQQQgghhBAPOQkOCCGEEEIIIYQQDzkJDgghhBBCCCGEEA85CQ4IIYQQQgghhBAPOQkOCCGEEEIIIYQQDzkJDgghhBBCCCGEEA85CQ4IIYQQQgghhBAPOQkOCCGEEEIIIYQQDzkJDgghhBBCCCGEEA85CQ4IIYQQ4i9n1KhRaDSaavvx8PC435cshBBCVCm7+90AIYQQQog7ZTKZGDduHK+88gpms/mOzlUUBQCNRlOh4y9fvsxzzz13x20UQggh/kokOCCEEEKIvxxFUQgMDKRFixZVXpeXlxcWi6XK6xFCCCHuJ5lWIIQQQgghhBBCPOQkOPA3dPLkSebPn09CQkKJfRs2bODChQv3oVUPtr1797JgwQIuX758v5sihBDiAVPR6QdCCCHEX1m1BAfS09N55513ePbZZ3nmmWeYN28eubm51VH1Q8dkMtG9e3e+/fZbsrOzS+wfNmwYO3bsqNY2FRQUEBISwr///e9qrfdOXLlyhWXLljFkyJD73RQhhBBCCCGEqHZVHhz4448/aN26NcuWLSMgIICAgADmz5/Pm2++WdVVP3BGjBhR5Z3Py5cvc/XqVZYtW0br1q2rtK7SWCwWfH19+frrr9VtdnZ2NGvWDD8/v2pvT0X179+fSZMmcfLkyfvdFCGEEEIIIYSodlUeHHjttddQFIWjR4+yfPlyVq5cSXx8PC+//LJ6TFFREceOHePw4cPk5+fbnB8XF4fBYODq1avs2bOHa9euAZCXl8cvv/xCcnJyieOLioq4cuUKe/bs4erVqyXalJmZyd69e/nzzz9tEgwZDAbi4uIAiI+P5/DhwxQVFZU4//Lly+zZs4eUlJRS23rt2jX27t1LZmamui81NZXk5GSSkpI4f/48WVlZwI3O9P/+9z9++eUXcnJyKnRPy1NQUACAm5tbhY5XFIXz58/z66+/kpaWVmK/0Wjk+PHj7N+/H4PBoG4vLCzkt99+4+eff1bvscVi4dy5c1y9epWEhATOnz9PcXEx9vb2zJ49m65du1ao3vLuY1Vyc3NT758QQgghhBBCPFSUKpSQkKAAypw5c8o8Zvv27UqNGjUUnU6naLVaxcPDQ/nuu+/U/Y6Ojkrfvn0VvV6vAIqHh4fy2WefKTVr1lQARavVKqtWrbI5vk+fPoq9vb2i1WoVnU6nfPHFF+r+iRMnKhqNRrG3t1cApW3btkpSUpKiKIry/fffKzqdThkwYIACKIDSrFkz5fr16+r548aNUzQajeLu7q4AytixY23qfv7559WynZyclJ9++klRFEVp2bKlWiagjBw5UikoKFA6duyouLi4KDVr1lQ8PDxK3J/U1FRl48aNJX52795d6v08evSoAigXL14sdb+jo6OyZMkSRVEUJSUlRQkNDVUAtc1jxoxRjz137pzSrFkz9T77+fkpCQkJyi+//KJ4enoqzs7OiouLi+Lk5KRs2bJF+fPPP22uEVB++OGHO663vPtYlTZs2KC4urpWeT1CCCHuzDvvvKMkJyfbbBs2bJgyd+7cUo/PyMhQNm/erCiKoiQmJipr1qxRFEVRdu/erXzzzTfKn3/+qRw/flyZO3euMmrUKGXq1KnKjh07bD7vb5aYmKjY29tX4hUJIYQQD54qHTlgfQrfoUOHUvdnZ2cTFRVF165dyc7OJisri/bt2zNixAjy8vLU43799Vd27dpFYmIiiqIwatQopkyZQm5uLl27dmXWrFk25e7fv59du3aRk5ND9+7dmTBhAoWFhWzevJkPP/yQ5cuXYzAYOHbsGAkJCbz11lvquWazmbS0NJKTk9mzZw9nz55l/fr1AGzevJklS5awc+dOsrKyWLRoEYsXL2bv3r3q+bt37yY2NpasrCzq1avHnDlzADhy5AiRkZE89dRTFBQUsHTpUvbs2cNvv/3GiRMnSEtLY/v27SXu0eHDh5k0aVKJnw8//LDUe7pv3z7s7e3x9fW97e/n9ddfJzExkdOnT1NQUMCHH37IkiVL2LJlCwATJkwgJyeHPXv2kJuby7hx4zAajTg6OrJixQpycnLIzMykdevWfPTRRzRu3Fgd/fDZZ59RUFBAr1697rje8u5jVfLy8iIvL48rV65UeV1CCCEq7rvvvis1j05ZiouLSU5O5uLFi+zZs4ejR48CsHPnTiwWCxaLhfT0dGrXrs3QoUN58skn8fT0lOUKhRBCPNTsqrJw69B5V1fXUvfv3buXrKwsZs2ahYuLCwBTp06lW7duHD9+nM6dOwMwbdo0unTpAkCnTp1QFIUJEyYA0LdvXyZNmmRT7tSpUwkLCwNg/PjxREZGcubMGb799lseeeQRoqOjAWjTpg0DBw7km2++sTl/3bp11KpVi8DAQOrUqUNiYiIA27Zto06dOhQUFBAbG4u/vz9wowNvbd8777xD9+7dAYiIiGDz5s0A2NvbY2dnh6IoODk5AVC7dm00Gg3/7//9P6ZPn06nTp1K3KM+ffrQp0+f299s4Msvv+S1115j+vTpah1lURSFLVu2MHnyZJo1awbcCAbMnz+fXbt2ERkZye7duxk6dKg6HeDtt99Wz+/YsSMXL14kLS2NoKAgda6+s7MzAA4ODqW24Xb19u7du9z7WJXCw8MJCwujRYsW7NmzR22fEEKI6pGZmcn69ettVgews7MjMTGRtWvXEhgYiNlsRq/Xc/r06TLfpx0dHfH39+f3338nISEBHx8fsrKyuHbtGteuXcNgMKhTCVNTU/Hw8CAoKIji4uJSy5PVCoQQQjwMqjQ4UK9ePQASExNLHT1gnbNfp04ddVtAQADwf4EFuNGxtnJycsJoNKqvHR0dMZvNNuXefLz1CXpeXh6pqakEBQXZHOvv729TF4Ber1f/7uLigslkAm7kDcjMzGTevHnq/rCwMIKDg0ut29XV1aattwoJCWHNmjVMmzaNhg0bMnz4cJYvX45W+38DOs6cOcNXX31V4txatWqpQQ6rjh070qNHD7777jveeeedMusF1C9HN98PrVaLn5+f+gWqoKCANm3alDg3Pj6eyMhIkpKSCA4OJj09HW9v73Lrq2i9VndyHyuL0Wjk3LlzPPvss9SuXbvK6xNCCGHr6tWrrFy5kn79+qmf7XZ2dlgsFrKysrC3t0ev12MymSgsLCyzHBcXFxo1asSGDRvQarV06tSJ77//Hj8/P4qKijAYDFgsFhwdHfHw8ABu5B269fuEEEII8TCp0uBAs2bNcHFxYcWKFbz44os2+4qLi9VAQHx8vNoJjY+PB2wDBnfq5sR+586dA1BXSjh06JDNsefOnatwXYGBgQQGBtpMI7hTt3ZyBw8ezMCBA1m6dCljx45l0KBB9OjRQ92fnp7OgQMHSpTTqFGjEtuCg4OZMWMGnTt3JiMjo9ypBV5eXjg6Oqr3B24khkxKSiIyMhIvLy8cHBxISkoqce6MGTOwWCxcvnwZd3d3Jk+ebDMloLTrrGi999OhQ4e4cuUKMTExFU7oKIQQovIUFhZy6dIl+vbtqz7Ft7e35+OPPyY8PJxGjRphsVjQ6/X8/vvvKIpSajkODg74+vqSkJBAaGgorVq14oMPPmDkyJHqUsqKotC0aVM6dOhAYmIiWVlZZZYnhBBCPAyqNDjg4eHBG2+8wfTp03nppZfUJ91r1qzBZDKxZMkSPD09mTBhAp988gkGg4EpU6bQunVrWrZsedf1vvvuu/j4+NCmTRvee+89HnnkERo0aEDv3r1Zu3Yt7777LkOHDuXAgQNs2LCBadOmVajcyMhIVq5cydy5c4mOjqaoqIgdO3YQERGhBjrK4+Xlxf79+zl27BjOzs5cuHCB3NxcnnnmGfVJ+s2jFuDGUPfw8PAKX7v1CX5+fn65wQGNRkNkZCTLli0jLCyMpk2bMm/ePHJzc4mKikKj0fDEE0+wbNkyunbtio+PD3PmzGH8+PEYDAYKCgq4du0aJ06cYN26dWpnWqfT4ebmxvbt22nfvj2BgYE2owpuV29FjB8/HqPRyNKlS0vse+mll3jkkUfU3+nNr+Pj4xkyZAjz589Xp4HcLCsrC2dnZwkMCCHEfeTk5FTiO0Dz5s1p164djRs3VrfdLreOvb09DRo0oH379vj5+eHi4kKbNm24cOECbm5u6qhAR0dH3N3d1XOEEEKIh1WVBgfgxtxxJycnFi5cyIYNGwBo3749CxYswMvLi40bNzJy5EhCQkLQaDR06tSJL774Qp3fp9VqbYbZ3+41wGOPPcbrr79Obm4uwcHBfPXVV2g0Gvr378/UqVOZP3++Oi//lVde4Y033lDLuvlPuNHZtb7u06cP06dPZ+bMmWoSw0aNGvHEE09UqG3Dhw9n48aNtGvXjnHjxtGjRw9GjhxJXl4eWq2WUaNGldppvRPW+1bW04+b2xQTE8PQoUOJjIzEYrEQEBDAl19+qc7hXLRoES+88IJ6fY899hgNGjTgzTffpG/fvtSrVw8PDw86d+6s5mUAGDduHLNnz2bz5s3s2bOHrl273lG9t7uPBw8eVIeB3mr//v02137z6/T0dHV0QGnMZjM6na6MOyuEEOJ+mTVrFrVq1bLZdrun/L6+vjYJi625axo2bFji2IpOjRNCCCH+zjRKNY6hy8zMxMHBodQEhRkZGTg5OZXYV1RUhL29vdrptUb67exuxDUURaG4uBgHBwfgxhOHDz/8kOHDh3P9+vVSn+hbh8T7+/uX6AwWFhbi6Oiovi4uLsbOzs6mc2qxWEhNTcXFxQUvL68y22qxWDCZTDZPIoqLi8nIyKBWrVpoNBqMRiOpqan4+PioSRnvRXJyMkFBQRw9epS2bduW2H9rGwEKCgrIzc2lZs2apZaZlZWF2Wy2eUpjXdXB398frVaL0Wi0uc7r169jNpvVL1x3Um959/HMmTOEhITw3Xff8eyzz5Zoq9FoxM7OTj331tcGg6HMZI1Lly5l5syZpKamlrpfCCFE1Tp+/DgREREkJyff9tjhw4fTtGlTJk+eXOXtunTpEo0aNaKoqKjK6xJCCCHulyofOXCz8iLzZQ0PtHb6raxBASuNRlPiGLgRJCirE6jVagkMDCx1382BASh9iKFWqy01Yd2t7dBqtSXOt7e3t6lbr9dTt27dUttyN2rVqkXdunV54YUXWLt2LaGhoeW2EW6sMGBdZaA0NWrUKLFNp9PZXMet1+np6XnX9ZZ3H+fNm8egQYNKDQxAyWkZt74u69/EZ599xrRp09QVEoQQQggryUUghBDiYVCtwYHqMHDgwId6CTqtVsvBgwfZt28f9evXv9/NqXTz58+3Ga1RWcLCwlixYoU6hUIIIYQQQgghHiZ/u+DA559/fr+bcN8FBATwwgsv3O9mVAk/P78qKbd58+Y0b968SsoWQohbvfrqqzZPozUaDRqNBovFck/larVaFEWptifdFW33Y489xlNPPVXm9DUhhBBC3H9/u+CAEEII8aBbunQpr776qs2ULIvFUiLB7p2yBgVuzu9SlW5Xn0aj4cSJE+h0Ojp27CjBASGEEOIBJsEBIYQQ4j5YsGBBqflY/m5WrVrFxYsXK3z8gzi//16DNkIIIcRfgQQHhBBCiPugqKjooQgOmEymKunwazQa0tLSOHv2rLqS0Z2cCxUPRFy+fLnaRmMIIYQQ94sEB6rIN998w/nz53njjTcqrczPPvsMe3t7hgwZIk8xhBBC/GWZTCbMZjM6na7UVYgqwt3dnZUrV7Jq1ao7rl9RlDvu7FdVzhshhBDiQVHlwYF58+Zx/PhxAFxcXOjatSuDBw/+W3duf/rpJ55//nkGDx5cqeXGxcWxePFiiouLGTVqVKWWLYQQQlSX//73vxw+fJiQkBDCw8PvqowPPviA+fPn39W5dxMcEEIIIf7uqjw4sHbtWhRFoUePHsTHxzNkyBB+/vnn+7KqwJYtWxgxYgSpqak2SaAq24kTJ2jUqBFr1qyp1HI/+OADTp48ycmTJyu1XCGEEKIq6XQ6m8/d4uJirl27RlFRkc1x9vb2FR7qf+uIAyGEEELcm2r5ZA0NDSUmJgaAf/zjH3z22Wd88MEH1KhRg8LCQo4fP05BQQEtWrTAx8cHAIPBQFJSEsHBwRw4cIC6detSr149APLz8zlx4gRubm40a9YMnU5nc07jxo2Jj4/n2rVrtGrVCgcHB3Jycrhw4QKZmZnExcXh7u5OnTp1ALh06RLnzp0jODiY4ODge75eg8GAm5vbPZdTGldXVwoKCqqkbCGEEKIq7N+/n5MnT+Lp6QlASkoKly9fZu/evXz11VeYTCZ0Oh2ZmZnyRF8IIYS4T6o97N62bVvgRgf/5MmT9O3bl+LiYnWd5A0bNhAZGcmuXbvo06cPYWFh/Prrrzz99NNs376d77//npdffhmA7OxsWrVqxY4dO/D392fXrl307duX/v37s2HDBgCaNWvGwYMHWbx4MW+//TYALVq0wMPDg+vXrzNz5kymT59O7dq1SU5OZtu2bTz55JM2bT58+HCpmZbbtGlDw4YNS2zPz8+vsicaGo3mgczkLIQQourl5eVx+PBhjh07Rv369enTp48aIC/Ln3/+icVioVmzZuUe9/XXX1OrVi31R6/XV1q73d3dqVu3rrqUoVarpaioiMDAQBo3boxOp8NsNmMymejUqVOl1SuEEEKIiqvW4EBOTg6rV68mICCA2rVrk5qayooVK+jbty8mk4lu3brx0UcfERkZCdxY87mwsJCEhAQsFgvZ2dkMGzaMqKgoFi1axOnTp+natSuzZ8/m448/BsBsNpOWlkZycjLnz5/n8ccfZ/369bz11lsEBgYyfPhwMjMzcXFxAWD+/PnMmjWLyZMnk5CQgKOjY4l2r1y5kh9//LHE9kmTJpUIDpjNZg4cOEBgYGBl3z4AatSoQVxcXJWULYQQ4sGVn5/P6dOniYuLIzc3l9zcXCwWC0lJSRw9epTmzZsTHBzMn3/+SVpaGq6urgQEBLB7925SUlKIiIjAxcWFnJwcnJyccHBwID4+nkcffZSgoCB27NihBvB9fX05fvw4aWlptGrVCr1eT3JyMj4+PuoovjvRqFEj+vXrR+PGjdFqtfzyyy/8+uuvtGvXjoiICMxmszpi4O+ck0gIIYR4kFVLcGDz5s0cOnSIhIQEHBwc+PLLL9FoNHTs2JGOHTty8eJF0tLSCAoKKjGfftWqVeoXkR9++IGsrCxatGjBtm3bgBtfOA4fPmxzzrp166hVqxaBgYHUqVOHxMREtFqt2vG3fikCCAoKYvXq1bRt25aePXuWOpzx008/rfC1DhgwgAMHDnDgwIEKn3Mnxo0bR+fOnenevTu7d++ukjqEEEJUvTsdPp+RkcGhQ4do3749//znP7FYLBQXF7Nz5072799PUlISAwcOJDY2luTkZFxdXXn00Ue5ePEiJ06cwMXFBWdnZ7Kzs/Hy8qK4uJjTp0+Tm5vLoEGDcHBwQKPRoNFouHjxIvv27ePChQsYjUZ0Oh2nTp3i0UcfvavggL29PW5ubri7uwMQGBhIkyZNCAoKwtXV9Y7LE0IIIUTlq5bgQLNmzRg+fDi1a9emY8eO6pzD+Ph4IiMj1dwC6enpeHt725xrzUEAkJqaCsDnn3+uJjbS6/Xqkw6rm4dCuri4lLv+8ddff824cePo1asXLVu25JtvvqF+/foljjl9+nSJc3v27EloaKjNtpEjR7Jnzx527dpF+/bty6z3bqWkpFBYWMiIESMqvWwhhBAPLoPBwPXr19XpAVqtFoPBwPHjx1m+fDkzZswgOzsbk8nEqFGjOHPmDL6+vnTs2JHQ0FBCQkI4dOgQ3bp1Q6PRsG3bNj7++GPefPNN+vXrp9aj0WjYtGkTffr0YcyYMerSvE2bNqVJkyZ31XZFUWymxLVq1YoWLVpIfgEhhBDiAVJtwYHo6OgS22fMmIHFYuHy5cu4u7szefJktmzZUmY5tWrVAmDFihW0aNHirttjNBpxcnJS27Zz506OHz/Ok08+ybx580qMFDhz5kypIwGaNm1aYttTTz1FVFQUO3bsYMqUKXfdxrJ8++239OjRg6ioqEovWwghRPW50/wxLi4u+Pn5ceLECTp37oyiKGi1WvR6PQaDATs7OzQajfr5ptVqsVgsGI1GdY6/Xq/HycmJgoIC7OzsMBgM2Nvb4+DggNFoVOuyHp+dnU1ERAQHDx6kuLhYHXV3r7RarUwfEEIIIR4w9/WT2WAwUFBQwLVr19i3bx/r1q0r9ylCaGgoPj4+TJw4kXPnznH9+nViY2PZuXNnherz8vICYMOGDfz+++9kZGTw3nvvkZKSgre3N87OzqUmYHr77beJjY0t8fPCCy+UWk+NGjXIz88vdV98fDyhoaHs3bsXuJHPIDw8XB3d8NJLLzFz5swyryEzMxN/f/8KXa8QQoi/j8DAQHr16sW2bdto1KgR0dHRODg40Lx5c8LCwtDr9Xh4eKhP6c1mM2azGXt7ezZs2MCcOXOAG8sK+vj4UFBQwNNPP03btm2xt7enuLgYk8mEyWQiOjqazZs306tXLxYsWEBycjIWi0US4gohhBB/Y1U+ckCr1ZaZSfnNN9+kb9++1KtXDw8PDzp37kxiYqJ63s1/wo1sxxs3bmTkyJE0atQIAE9PTzUZYWnn6HQ69XV4eDgtW7Zk1KhR1KxZk9OnT/PFF18wbdo04MYwx8mTJ9/zNZe3okB6ejqHDh3iypUrAJw8eZIjR45gMpmws7Nj//795X75slgst81MLYQQ4u9Hp9NRu3Ztxo4dy8CBA3Fzc0Ov19OvXz86duyIr68vXl5evPzyy7i7uxMUFISdnR0Wi4WQkBA0Gg01atTA2dkZrVbLK6+8wnPPPUetWrVQFIXp06fj6OiIs7MzTk5OjB07lqioKLy8vHBwcECv1+Ps7Hy/b4MQQgghqohGqeLHANZERmUNH7SuLuDv749Wq8VoNKr5BAoLC0tdPQBuPEEvKioiICDAZrTBrecUFxdjZ2en1q8oCmlpaXh6eqpDLy9fvoydnR2+vr6Vcs0fffQRixcv5vz586XuNxgMat0WiwWTyaRes9FoVIeGlqZ79+60aNGCmJiYSmmrEEKI6qfRaMjOzlYT9P2drVixguTkZF566aVSp+MJIYQQ4sFQ5dMK9Hp9ufMKdTodgYGB6HQ6NBqN2kkGygwMAHh7e1OrVq0Snehbz7G3t7epX6PREBAQoHbOAQICAiotMADw2GOPkZCQQHh4eKn7b65bq9XaXLNery8zMDBgwAD27NlDly5dKq2tQgghhBBCCCFEtSQkfNiEhoby22+/cenSpUotd9iwYYwdO1aCA0II8ZDKy8vj/PnztGrVqsxjzp49i7+/P0VFRZjNZmrUqFFusL2iCgsLMZlMODo6YmdnZ7M9NTUVb29vPDw87rkeIYQQQtwfEhyoIu3bt6/0pQyffvrpSi1PCCHEg+natWtoNBp16V+r9PR0Vq1axT/+8Q/c3NyoVasWFy9eJDs7m8DAQPR6PWvXruXRRx8lNzeX/Px8OnToQP369cnNzaWgoICaNWvi4OBAcnIyJpMJrVZLkyZNMJlMpKWlERAQgE6nw2g0UlRUpOYbSE9PJy8vDxcXF4qKitBqtXh4eGAwGNi0aRPNmzcnMjLyPt0xIYQQQtwrCQ4IIYQQ2C4tWN7KOVXJbDZTXFzMtm3b0Ov1REREoNfr1SUELRYLFy5cYPjw4fTs2ZN33nmHDz/8kB9//JEJEyZQv3599u/fz+7du3FzcyMjI4MzZ87w+OOPs2/fPk6fPs0//vEPGjRowOTJkykqKsLOzo6tW7eSkZHBkiVLmDx5Mp6enmRkZJCcnExwcDC+vr6kpKRw9epVUlJS+O6773BxcaFnz5506dKFbdu2sXXrVgkOCCGEEH9hEhwQQgjxULMu/RcTE8O1a9d47bXX8PLyQqPRVHuQ4OzZs8yfP58dO3ag0+lYuHAhQ4YMYfTo0eox9erVY/369Xz++eecOHGCOXPm8N577/Hhhx/yzDPP0Lt3b8LDw8nKyqKoqIiQkBBOnjxJixYtGDBgACdPnqRmzZq0atWKt99+m507d7Jjxw5OnTrFwIEDcXFxAaBWrVrqSgZwI2Ci1WpxcHCgb9++dO7cmb179+Lk5MTw4cNp27Ztmdd16300mUyYzWZ0Op3NFAUhhBBC3D/yiSxEFZN1wYV4cFkDA2azmaysLN577z1iYmIYN24cr732GjVq1ECr1VZbkKBRo0bExMSwadMm3N3d6d69u02+AOv7iXVJ2+LiYv71r38xa9YsTCYTGo0GnU6n7nd2dkZRFPR6PU5OTrRq1YqQkBCSk5NxcnLCxcWF8PBwpk2bRn5+PmPGjCmzs24ymXBwcFA79BqNBjs7O3WVobLOs1gs2NvbYzKZ1G379+/njz/+oH79+jJlTgghhHhASHDgDuTm5hIbG0tERIT6ZOVefPPNN5w/f5433nijElonKmLv3r0cOXKEgQMHEhAQUCV1WDsbEhQQ4sF2c2CguLgYo9EIQE5ODrNmzWLRokXVHiSwt7fH3t6eWrVqodfrS6yko9VquXbtGhMmTCA4OJhmzZphMBiYNWsWV65cwWKx4OrqyooVK+jWrRtxcXEcOnSIFi1akJiYyJgxYwgLCyMsLEwNOjg7O+Pu7k6DBg1wdHRUrzEhIYFz587RvHlzAgMDcXBwIDc3V10e2Lq6joeHBwEBAbz//vusWrWqxDVptVry8/MxGo0UFBSg0WjIz8/n0qVL+Pn5YTAApenMAAAgAElEQVQYMJvNar1ardZmVR8hhBBCVI8qDw7MmTOHkydPAjeWGezcuTNDhw6tlmGEY8aMISUlhW+//bZSyouLi2PAgAH897//pXXr1vdU1k8//cTzzz/P4MGDK6Vt5fn5559Zvnw5AHZ2djRr1ozo6Gj8/PzuusytW7cyYcIEfv75Z4KCgkrsLygooEOHDkycOJHhw4ffdT2V7cqVKyxbtozY2Fh++umnSi9fURQsFgvvvvsu7733XqWXL4SoPqUFCby9vatlukHLli1LXQbYz8+P4cOHk5OTQ7169fDw8GDYsGHk5+ej1+vx8vIiLCyMwMBAGjZsSFBQEEVFRdSpU4eAgAAaNWpE3bp18fPzU5/YGwwGsrOzefnll9URBwCenp4EBwfj5uYGQHBwMAEBARQVFQHg4+ND165d8fT0JCQkhH79+pV6LRqNhmPHjpGYmKhO10hKSiI5OZlTp06xd+9edDqdOtXA0dGRBQsWVPYtFUIIIcRtVHkPfd26dSiKQo8ePYiPj2fkyJHExsby1VdfVXXV1K5dG1dX1yqv526cOHGCRo0asWbNmkotd8uWLYwYMYLU1FTs7e2BG0/Lv/76a0aPHs21a9eYO3cun3zyCSdOnMDLy+uu6vHy8iIkJER98jRixAhMJhOrV68G/i8IcS8BiKrQv39/rl+/zttvv13pZVsDA0aj0Wb4rBDir80aJFizZg07d+6kQYMGQNUmLSwt6Arg5uZGt27dbLZ17tzZ5rWHhweNGzcGUNsKUKdOHdq1a6e+btGiBYqioNPpeOyxx2jSpInNNXl5edl8Rvj4+JRoj3XpQkdHR/r06VNqmxVFwdnZGR8fH3x9fdWRA9evX8fLywt/f3911YS0tDS++uorCQ4IIYQQ90G1TCsIDQ0lJiYGgFGjRrF8+XLy8vLUjnt+fj4nTpzAzc2NZs2a2Ty5AIiPjyc1NZWOHTty9epVnJyc8Pb25vLly1gsFgIDAwEwGo3ExcXRpEkT7OzsGDFihDpM1GAwkJSURHBwMAcOHKBu3brUq1fvtvUXFRVx/PhxPD09K3WYuMFgUJ/GlMZoNHLy5EkMBgM1a9ZEo9EQGBiodsYvX75MXFwcDRs2VK8/JyeHCxcukJmZSVxcHO7u7tSpUwcAJycnFi5cCMCuXbvo2bMnGzdu5B//+Id6nadOncJkMvHII4/YTJvIycnhxIkTODo60rZtW7RaLe3atWPOnDn4+vqSmppKcnIyRqOR8+fP4+XlRY0aNZg9ezb+/v5qOYqicOHCBVJSUmjcuLHNvrS0NAC8vb05duwYXl5e6pfbyubm5kZBQUGll3tzcMD6704I8dfn6upKdHQ0Y8eOJSAgAIvFUuJz6q9Ko9Hg6upKVFRUldVhsVho164dkZGRhISEADdGz506dYr69evTu3dv9djjx49X2mg/IYQQQtyZas854OHhgVarVb9Yff/997z88ssAZGdn06pVK3bs2IG/vz9ms5kXX3yRzZs3AzcyNCuKwuDBg5k1axbjx48nNzeXHTt2ADeexj/66KPqsP8333yTpKQkfv75Z3bt2kWfPn0ICwvj119/5emnn2b79u3l1h8XF0evXr24ePEiAI8++miZ13X48GH1uJu1adOGhg0bltien59f5tSKK1euEB4eTmpqKoWFhWpHc8OGDbz44ouMHz+exYsX4+bmRk5ODmPHjmXRokUsWrRIfSLeokULPDw8uH79eonyrU+O8vLyAIiNjSUqKors7GwURcHNzY3Vq1fTu3dvfvvtN5566ikcHBzIy8tj4MCBLF++nJ07dxIZGUl6ejpPP/00J06cAKBhw4aMHDmS5cuX07JlSz788ENeffVVUlNT6d+/PwcPHsTe3p7i4mLGjBnD4sWLAZg0aRJnz54lKyuL8+fPA/Daa6+pAY3KpNFoqiwfgMViwWQyMW7cOIYOHUpBQQFGo1FyEAjxgLIG9YqLi1m9ejXr1q1T9zk7O/Pcc8/x8ssvU7t2bZycnDCbzVgslkrJP3C/lkusblqtVl0y0crPz4/Lly9Ts2bNEsdX9L3SOg2hqlnzKwghhBB/d9USHDh16hSLFi3i7NmzrFixgnHjxuHk5ER2djbDhg0jKiqKRYsWcfr0abp27crs2bP5+OOP2bhxI5s3b+Y///kPERERTJs2jUWLFt11OywWC4WFhSQkJGCxWG5b/5QpUzCZTFy4cAGTyUT//v3LLHvlypX8+OOPJbZPmjSpRHDAbDZz4MAB9Yn/rRYvXkx+fr76NL5x48aMGjVKDZQsWbKEnTt3Eh4eztKlSxk3bhwvvvgib731FoGBgQwfPpzMzMwykyZa72GHDh3Izs4mKiqKrl27snbtWvU6R4wYQWJiIp9++ikNGzbk8OHDFBYWcvbs2RLlHTlyhP79+2M0Gtm8eXOpX6Jef/11EhMTOX36NI0bNyYmJoaJEyfSq1cv9anRkSNHmD59OhMnTmTq1KksWrSIqVOnlkjIda+8vLzIy8vjypUrpX4xvRfWucjWJb90Oh0WiwWLxVKp9QghKoe1I3rz/H5nZ2ciIiLo27cvvr6+uLm5qf+n78fyhn9HrVq1olWrVvdUxuXLl8nMzLyr34f1nIoEIhwdHWnSpMkd1yGEEEL81VRLcODcuXOsWLGCP/74g5CQED744AMADh06RFZWFi1atGDbtm3AjWWcDh8+DMDu3btp0qQJgwYNAuDjjz++5+GGq1atUqcT/PDDD7etf/z48QQHBwPw6aefEhoaWmq5n376aYXbMGDAAA4cOMCBAwdK3Z+RkYGHhwfu7u7AjTmjWVlZAGzbto06depQUFBAbGysOjT/8OHDdOnSRZ124OTkhIODg1pmdnY2bdq0IS0tjfT0dN588026dOnC1q1bycrKYtasWWowYerUqXTr1o3jx48TFBTE+vXrWbx4McOHD6dNmzYl2mtdwkpRlFIzTCuKwpYtW5g8eTLNmjUDYMKECcyfP59du3apwYFOnTrxzjvvADB48GBiYmJISkqq9OBAeHg4YWFhtGjRgj179qhtqgwajUZdMsy6fJj1SaMQ4sGjKAomk4nCwkK8vLwYNGgQkZGRuLu74+TkhLOzM25ubri6uuLg4KBm6pcAQcUpioJWq63wiICK3tsPPviA7du331WQ19qW29WVn5+Pq6sre/fuveM6hBBCiL+aagkO9OnTh+XLl/Ptt9/Sr18/li9fzujRo0lNTQXg888/V5Pn6fV62rZtC9wYXn/r0/V7XeXg5oRK5dVfWFhIdnY2tWrVUo8vb1jh119/zenTp0ts79mzZ4mAwsiRI9mzZw+7du2iffv2Jc4JDQ3l008/pW/fvri7u3PkyBFmzJihtjkzM5N58+apx4eFhakBjLI4OTnx6quvUqNGDVq3bq0mqUpJSQFQcxMA6hJ/WVlZTJkyhevXrzNlyhSmTZvGsmXLeOmll8qt61bXrl3DYDDYJNjSarX4+fmpQQ9A/R0AaqCiKubuG41Gzp07x7PPPkvt2rUrrVzrk0W9Xo+zszN2dnaYTCaZUiDEA8w6FchgMBAdHU1hYSEWi0UN8jk7O+Ps7KwGXK3L90lwoOIURcHOzq7Sg6S5ubn069ePMWPG3HES2IoGB44cOcKcOXPuuo1CCCHEX0m15hzo27cv4eHhLFy4kH/+859qx3vFihW0aNGixPHe3t6cOnVKfW00GjEYDOprR0dHkpKS1NfZ2dl31J7b1e/i4kJiYmKFyj9z5kypIwGaNm1aYttTTz1FVFQUO3bsYMqUKSX2x8bG0qNHD7XDvmvXLrp37w5AYGAggYGBt32KYTQabZ7i29vb88orr5Q4zhoIiI+PV0cFxMfHAzcCBk5OTsTExDB9+nSGDBnCq6++WmZwoKyOvJeXF46Ojpw7d07dVlRURFJSEpGRkeVeR1U4dOgQV65cISYmptykkHfq1mHHer0ei8UigQEhHmAWiwWz2YyDg4OaDwVuBIMdHR1xdHTE3t4evV6PTqdT/59XhsTERJsVday5DO5FRTu9leV29Wk0GjIzM8nPz69wEseKvmcqioK3tzd169atWGPvQmpqqryHCyGEeGhUe0LCUaNGMXjwYHbv3k1oaCg+Pj5MnDiRTz75BB8fHw4ePIher6dnz5488cQTrFq1igULFhAREcGUKVPUrPYAjRs3Zv369Wzbtg2dTseQIUPuqC0VqX/lypVERERgNpvVxIWludOl8WrUqEF+fn6p+ywWCydOnCAoKAh3d3cOHTpEYGAgTZo0ITIykpUrVzJ37lyio6MpKipix44dREREEBAQoC47tWHDBtq0aVNuEkWALl264OnpyYQJE/jkk08wGAxMmTKF1q1b07JlS95//326d+9O48aN8fPzK3P0hJeXF/v37+fYsWM4OzvbBEU0Gg2RkZEsW7aMsLAwmjZtyrx588jNza1whuwtW7Ywc+ZMfvzxxxLLL65cuZLVq1eza9cu7OzseOmll3jkkUeYNm0a8fHxDBkyhPnz59OlSxfgxogI61Dhymb9gmydZiGEeHBZ/4+azWZ0Oh16vR6TyYRGo8HOzg69Xo9er0er1VZ6voGgoCBWr16tjoazBhStwYm7ZX3vqY5EfYAaMCnryb1GoyE+Pp6mTZv+JZP6yfu4EEKIh0mVBwduXpkA4LnnnsPb25tNmzbRo0cPNm7cyMiRI2nUqBEAnp6efPzxxwC8+OKL/Pjjj0yaNImJEycSGRlpM/989OjRfPfddzz77LO4uLgwceJEZsyYoT55sX6hs/795j8B3N3dy61/wYIFREZG0rVrV9zc3Jg4cSLvvvtupTw1Ki9jfr169bBYLHh7e5Ofn88XX3zB7NmzOXPmDH369GH69OnMnDmTt956C7iRJ+GJJ54Absynb9myJaNGjaJmzZqkpaXZ3IdbeXl5qfcgJCQEjUZDp06d+OKLL9BoNJw7d47JkyejKApeXl5qboVb7+fw4cPZuHEj7dq1Y9y4cXz88cc29cbExDB06FAiIyOxWCwEBATw5ZdfqvP9b23jreWfPXuWo0ePljos9eTJkxw5cgSTyYSdnR379+9X7216ero6UsDK2hGoKtbOgww7FuLBpyiK2um/Oahn/ey6OcloZZowYUKJdlTGEonW98jKGt1QGfX5+PjQvHlzPD09K1RmRe91db3Hynu5EEKIh4VGqeKwuNFoRKfT2XxxMBqNJYIGmZmZFBUVERAQUOKDOC8vj4KCAvz8/Khfvz4DBw5k1qxZ6v4rV65Qo0YN9Ho9hYWFalI+ayI469OKm/fdqrz609PT8fb2RqfTlVvGnfjoo49YvHixumyfldlsxsnJidmzZ/PGG28AN+Y8dujQgZ07d9KjRw/gxhey1NRUXFxcSjxJVxSFtLQ0PD091cR4RqPRZk5/aTIyMnBycrIZ5gqQk5Oj5l+4+Xd2670oLi4mIyODWrVqodFoKCoqwt7e3uZ+FhQUkJubWyKB1K2/q5vLVxSF1q1b06pVK1avXl2i3dY5w9brMxqN2NnZqfUaDAabKRZLly5l5syZas4JIcTD7ea8INZgAVAlQQFRvuPHjxMREUFycvJtjx0xYgSNGzcudXpeZfn1118ZN24cx48fr7I6hBBCiAdFlY8cKG0YYWnbvL29yyzD1dW1RIf1Zjd3NG/urOp0OpvObHmd+vLq9/Pzq1AZd+Kxxx5j4sSJhIeHs2fPHnW7TqejQYMGfPTRR1y5cgUPDw/Wr19PcHAwHTp0UI/TarVlJtPTaDRqLgHr69sFBoAyVwVwd3dXV0642a33wt7e3iaB5M2rJVhZk3vd6tbf1c3lb9++nfT0dGJiYkptn1artbm+W/993RwY+Oyzz5g2bZqaw0EIISQI8GC5k2cW8nsTQgghKk+15xy4V3379qVdu3b3uxn3LDQ0lN9++41Lly6V2Pfzzz+zYsUKTp8+zdWrVxk6dCjDhw+vkjnyfwXh4eGcPXsWDw+Pey4rLCyMFStWqNMwhBBCCCGEEEL8BYMDCxYsuN9NqDTt27cvdSlDf3//O05w+HdW3qiRO9W8eXOaN29eaeUJIYSoXKWNBmjTpg1r167lkUceUbeVNcLAbDZz8eJFPv/8cy5dukTNmjUZPXo0J0+eZNWqVTg4OPDcc8/RuHFjYmNjiYuLo0OHDkRERNgs63u7eoQQQoi/m79ccEAIIYQQD5eMjIwyV0S4VVpaGgcPHqRTp04MGTIEvV5PYGAgBw8e5Nlnn6V58+bs3r2bc+fO0aBBA7p160ZQUFCZ0wtl6oIQQoiHhQQHhBBCCPFAUBSF1NRUBgwYYLMSQlZWFm+88Qaenp4oioJWq+XgwYOljgTLy8vj4sWLhIeHo9VqWb9+PY0aNUKj0XD8+HGuXr1Kw4YNqVOnjhpISEtLo1OnTpWWV0gIIYT4K5LggBBCCCEeCKVNq9PpdMTGxlK/fn1q1qypJpA8e/ZsqUP+HRwccHFx4eLFi9SvXx+A//3vfwQHB+Pp6Unt2rXp2LEjnp6euLi4YDQaycjIIDU11SYBsRBCCPGweaiCA2fOnCE5OfmuktHl5uYSGxtLREQELi4u99SOnJwcVq9eTf369XnmmWfuqSyrjIwMVq5cSdeuXenUqVOllCmEEEJUJ39/f2bMmFFi+/Lly3n11Vdp1aqVuu3ixYvq6IKbeXp60rp1a/7880+MRiMNGzaksLAQe3t7unXrRseOHXF2diYlJQWDwYCfnx/Ozs7Y2T1UX4mEEEKIErRVXcG8efMYNGgQgwYN4pVXXmHNmjWlfphXhq1bt9KwYUOSkpJK3b9q1SrGjBlzV2XHxcUxYMAA4uPj76WJALzxxhvMnj2blJSUey7LqqCggN27dxMeHk5GRkallSuEEELcb+3atSt1GdzSeHp60q5dO+rWrcuBAwfIzMykT58+NGzYkNq1a6tBALPZTFxcHEePHsXLy0sdZSCEEEI8rKo8TL527VoURaFHjx7Ex8czZMgQfv75Zz7//PNKr8vLy4uQkJAHfs7giRMniI6O5pVXXqm0MuvWrcumTZvw9PTkzJkz+Pr6VlrZQgghxP303Xfflbq9rGSBrq6u9OjRgx49eqjbWrRoYXNMnTp1ePnllyuvkUIIIcRfXJWPHAAIDQ0lJiaG7du3M2rUKP7973+TlZWFwWAgLi4Oo9HInj17SExMVM8pKiri2LFjHD58mPz8fABMJhOnTp2iqKhIPU5RFE6fPk1hYSHt2rVjzpw5Nh3jzMxM9u7dS2ZmZqltu3z5Mnv27Cn1KX5RURGHDx8mLi6uUpcyMhgMuLm5VVp5VtYyDQZDpZcthBBCCCGEEOLvq9on2LVt2xaA/Px8Dhw4QJ8+fQgLC+PXX3/l6aefZvv27cTGxhIVFUV2djaKouDm5sbq1avp0KEDLVu2ZP78+UycOBGAn376iSeffJKjR4+SmppKZGQk6enp+Pr68u9//5tRo0ZhMplwcHCgQYMGNm0ZP348ixcvxs3NjZycHMaOHcuiRYuAG9MIevXqxcWLFwF49NFHy7ymw4cPq8fdrE2bNjRs2LDE9vz8fHQ63d3dwHJYn6DImsxCCCEeBlX9eSefp0IIIR4m1TJywMqaiC8gIIDatWsDYLFYKCwsJCEhgcWLF5OdnU1UVBRdu3YlOzubrKws2rdvz4gRI3B1daVr165s2LBBLXPjxo3Ur19fDTpYXb9+nfHjx9O/f3/y8vJYt24dCQkJ6v7NmzezZMkSdu7cSVZWFosWLWLx4sXs3bsXgClTpmAymbhw4QJxcXEUFxeXeV0rV65k0qRJJX5++umnEsempKRw4cIFAgMD7+lelkaj0eDp6cn58+crvWwhhBBCCCGEEH9f1TJyYPPmzRw6dIiEhAQcHBz48ssvbeYJrlq1inr16gE3kgpmZWUxa9YsdVWAqVOn0q1bN44fP05UVBQjR47kwoULBAUFsXnzZsaOHVuizsOHD5OXl8e//vUvXFxceO655xg9ejTff/89ANu2baNOnToUFBQQGxuLv7+/el6XLl3YvXs348ePJzg4GIBPP/2U0NDQUq/v008/rdB9uHr1Ki1btiQkJIS+fftW7ObdoRkzZvDaa69hNpsZP358ldQhhBBCPAjKyjnwVylfCCGEeJBUS3CgWbNmDB8+3GZt4Zv5+Piof7fO/a9Tp466LSAgAICsrCz69+/PmDFj+PLLL2ndujXXrl0jKiqqRJ1XrlwBsHlCf/MyRampqWRmZjJv3jx1W1hYGMHBwRQWFpKdnU2tWrXUfXq9vszr+/rrrzl9+nSJ7T179rQJKHh4ePDqq68yb948EhISaNasWZll3q3//e9/NGnShG7dulV62UIIIcTDRIIDQgghHibVFhyIjo6u0LHWQEB8fDxt2rRR/w43AgYeHh48++yzbNiwgbi4ONq3b0/jxo1LlGMNOCQkJFCjRg3gxrQGq8DAQAIDA9VpBLdycXGxSZCYnZ1dZpvPnDnDgQMHSmxv2rSpzWu9Xs/MmTP5/PPP2b17d5UEB7799lvef//9ElmZhRBCiL8TjUZDRkYG58+fx2w239G51lwCt+v8X7p06a7bJ4QQQvzVVHtCwtvp0qULnp6eTJgwgU8++QSDwcCUKVNo3bo1LVu2BCAqKop+/frxxx9/8NFHH5VaTqdOnXB2dmbatGksXLiQ7du3s2zZMho1agRAZGQkK1euZO7cuURHR1NUVMSOHTuIiIggICCAJ554gpUrVxIREYHZbC53uaO33377jq7R29ubgoKCUvetXLmS1atXs2vXLuzs7Eq8fumll3jkkUeYNm1aiXMVRSErK0sNsAghhBB/V97e3ly8eJFvvvkGi8VyR+dqtVoURbltwsHU1FR12qEQQgjxd1flCQm1Wm2Zmfm1Wq3NnwBeXl5s3LiRxMREQkJC6NChA56ennz11VdqhP+ZZ57Bx8dH7SyXVp6HhwcrVqxg//79NGnShKVLl/LPf/5TPaZPnz5Mnz6dmTNn4ufnR1BQEPPnz1cTDy5YsICaNWvStWtXevfuzahRo0q09W5pNJoyv8icPHmSI0eOYDKZSn29f/9+/vjjj1LPtZZZGW0UQgghHmTh4eE0a9aM3Nxc8vPz7+gnJyenQud5enry/PPP3+9LFUIIIaqFRqnidXqMRiM6na7MDmthYSGOjo6l7svIyMDJyQlXV9cS+0wmExaLBXt7+3LLs1gsZGRkULNmTRRFwWg02pxjsVhITU3FxcUFLy+vEvWkp6fj7e2NTqcrt613IjQ0lMcff5w5c+aU2GexWDCZTGobb31tNBqxs7MrdShkZmYmPj4+7Nu3j86dO99zO4UQQgghhBBCPByqfFpBeYn8gHI7276+vmXuuzm5YHnlabVaatasCdx4Yn9rMEGr1arLKpbGz8+vQm29E506dWLJkiW4u7vz1ltvlWjPzW289XVZ9zMuLo6+ffvi7u6uTr8QQgghhBBCCCEqospHDoiSjEYjO3bswN/fn/bt21dKmbm5uWzfvp0OHTqoyy8KIYQQQgghhBAVIcEBIYQQQgghhBDiISeZ64QQQgghhBBCiIecBAeEEEIIIYQQQoiHnAQHhBBCCCGEEEKIh5wEB4QQQgghhBBCiIecBAeEEEIIIYQQQoiHnAQHhBBCiIdIdnb2fa0/IyODvLy8+9oGIYQQQpQkwQEhhBCimphMJjZv3kxiYmKFjk9OTmbq1KlcvHjxno6xOnjwIJ6enuzbt6+iTa40OTk5PProo/j5+eHl5cWVK1d4//332bp1a7W3pTw//vgjs2bNut/NEEIIIaqdBAeEEEKIanLt2jWef/55Nm/eXKHjDx48yOzZszly5AgAly5d4q233iItLa3MY8pjsVhs/qxO69at4+jRo2zatInY2FicnZ2ZOnUqq1evrva2WG3fvp0FCxbYbFu+fDnTp0/HZDLdp1YJIYQQ94fd/W6AEEIIIUrXr18//vzzTxo2bAjAuXPnmDt3Ln379sXf37/UYx5UCQkJuLu7079/f3VbXFwcPj4+961N33//Pdu3b+f1119Xt3322WcsXLgQOzv5iiSEEOLhIiMHhBBCiPtk/fr1zJgxg/379xMVFUWfPn1Yu3atuj8pKYnp06eTkJDAjh07eP/99wGYOXMm0dHRxMfH2xwDsH//fkaNGkX37t3p06cP69atq3B70tPTeeONN3jyyScZNGgQe/fuVff98ccfjBs3jieeeIKhQ4fy/fffq/suXLjA4MGDOXfunHr+W2+9RUFBAQBz585l69atFBYWEh0dTUxMDAALFy5ky5YtABiNRmJiYujduzcRERFER0cTHR3Nzp07ARg9ejSbNm1S60xLS2Pw4MGcOHHC5l7+5z//oXv37sydOxeTycTKlSt54YUXePzxxxk2bBh//PEHAO+99x67d+/m6tWrREdHqwGCH374gXnz5tncly+//JIhQ4bQq1cvXnvtNS5cuFDh36EQQgjxVyHBASGEEOI++e2335g9ezZPPPEEeXl5JCUl8fLLL7Nt2zYAUlNTWbduHSkpKSiKQlFREQBms5ni4mI0Go3NMSaTiccff5ykpCQ6depETk4OgwcPZseOHbdtS15eHu3atWPhwoV4eHiQmprKM888A8C+ffto3749O3fupGnTppw5c4bevXuzdOlSAC5fvsy6devo0KEDu3btws3Njblz5/Lqq6+q7TWbzQAUFxer0xo2bdrEwYMHAXj77beZNGkSjRs3Rq/X8/nnn/Pf//4XjUYD3OigHz58WG1vZmYm69atU4Miv/32GzNmzGDYsGE4ODiQkpLC5s2bef3113F3d6dTp07s3LmTHj16UFBQgMlkwmKxoCgKxcXF6jSCQ4cOsWHDBrWeKVOmMHDgQDIzM2nQoAEbNmygdevWNvWW9zsUQggh/ipkzJwQQghxH5lMJjZu3Mhzz6NK3kMAACAASURBVD1HXl4eAQEBbN26lYiICJvjnn76aRwcHPj5559599136dixIwBXrlxRj7GzsyMhIYHatWsDUFhYiLe3N7/88gtPPfVUue347LPPSE5OJjY2Vj3W2nGfOnUqvr6+/P7777i4uGAymejUqRPvvvsuo0ePVst49tlnWbVqFVqtlhdeeEEdXTB16lSuXr3K2rVrWbNmTan1f/311wwbNowPPvgAgODgYBo0aECPHj0qfC/NZjOffvopo0aNAiA3N5dLly7h4eEBQLt27ejfvz9nzpzh3Xff5cqVK2zfvr3MNqX8f/buPL6K8mz8/+csOUtysu8hCSFhMYISSNlCgQCCilK3CorIqmKfx6e1L/vVLg8SRO3i0se6VWyFAK60VqtCiwJhUUHZBNlDSEIgJGQh+9nn9we/meaQBBIIZLver1dekDkzc+45J+fM3Nfc13WfPMmLL77IQw89xBtvvAHAz3/+c1JTU3nhhRd45ZVXgNa/h0IIIURndsVHDtxzzz0sWbIEgKNHjzJq1ChtmOJf//pXxo0bJ0V/hBBC9Fjh4eHceeedANhsNvr06UNZWdkl7y8qKopPP/2UF154gWeeeQaDwUBNTc1Ft9u7dy9ms5nx48dry0aNGoWiKOzYsYPbb7+dgIAA4FwQ4s4776S0tJTS0lJt/QceeAC9/tylxfXXX09FRQWKorSq3X5+fhw5cgRFUbDb7Xi9Xq1T31oRERFaYAAgMDAQu91OdnY2zzzzjBasaM3rAbBnzx5cLhczZ87UlvXv35+0tDT27dunLWvv91AIIYToCFd85MCXX36pXRiUlpaybds27S7Hvn37+Pbbb3G73VL4RwghhABMJtMlzyZQX1/PuHHjOHjwIJMnTyYiIkIbzn8xFRUVxMfHYzabfZY7nU7q6+ux2Ww+y9X1XC5Xs/szmUwAKIqipQZcyA9+8ANWrVpFnz59ACgrK/MZlQAXn2VBDUyotm/fzsSJE4mKimL06NFUV1dftB2NVVZWAjR77C0dN1zeeyiEEEJ0lCveI8/Ly9M6/qNHj6a+vh6r1QrAiy++yB/+8AftAkIIIYQQLVM72Q0NDc0+vnHjRnbs2MGaNWu4+eabAVi7dm2r9p2YmMi6des4e/YsISEhwLlh+mazmZiYGHbu3Omz/q5du/D39yc2Npb8/PxLPKJznE4nq1ev5le/+hUxMTFYrVZuvvlmLT0CICAgwGeUQmue8/XXX8dqtbJ//36sVivbtm3TCiCq1KKJzUlKSgLOHeuQIUO09Q8dOsStt97ahiMUQgghOr8rHhzw8/Pz+V0NDMC5CL8EBoQQQojWiYyMBGDZsmV4PB6uu+46n8fVc+769etJTk7mtddeo6ioqFX7vuuuu3j11VeZO3cu/+///T8OHDjAokWLOHnyJPfddx8vvvgiS5Ys4ZZbbiEnJ4f33nuPn/3sZ03u1l8KvV5PeHg4S5cuZdiwYdhsNvbu3cu0adMYM2YMcC5N4aOPPuKjjz6irKyMn/3sZxfdr9FopLKyki1bthAWFsYjjzzi83hUVJRWCyEqKorJkyf7PD5ixAhSUlL4zW9+Q1hYGHFxcTz33HNUVlZqxRaFEEKI7kJmKxBCCCGuEoPB4POvXq/X/t94nebWAxg0aBC33HILK1as4IYbbiA/P99nnYkTJzJt2jReeOEFrrnmGrZv386gQYO07c/fX2Pjx4/nt7/9Lf/+978ZPXo0//3f/63l0WdlZTFr1iyWLFlCeno6//u//8tDDz3E008/3eJ+DQaDTzqBXq9v8rzqMo/HQ3R0NDExMaSnpxMbG8sXX3zB+PHj2bVrF3BuOsTQ0FDuuOMOHnvsMZ555hmf52zutXz88cfp06cPN954IxkZGVx//fU+29x///3ExsZy//33a7UKGu/Hz8+PDz/8kNjYWO68805GjhzJV199xbvvvsvIkSNb9R4KIYQQXYVOaW2lICGEEEJcNrvdjtlsRqfT4fF4cLvdPnn+LpcLnU6npeQ1NDT4jLqDczV8jEYjYWFhza5TWVmJ1+slPDwcl8vl04Ftbn+NeTweioqKiIyMxN/f3+cxl8vFmTNniI6ObtL5PX+/6tSLFotF2+/5x+pwODAajaxdu5apU6eydetWRo8eDZwrBjhkyBCWLVvGnDlztG2Ki4uJiorCYDBgt9svuH+1HaWlpQQFBWG1Wn22Ubc7deoUkZGRWCyWFvdTXV2Nw+HQRm803v5i76EQQgjRFUhwQAghhBAdateuXfzgBz8gIyODe++9F5PJxF//+lcOHDjAvn376N27d0c3UQghhOj2JDgghBBCiA730UcfsXTpUvLz8wkMDCQ1NZVHH32UtLS0jm6aEEII0SNIcEAIIYQQQgghhOjhpCChEEIIIYQQQgjRw0lwQAghhBBCCCGE6OEkOCCEEEIIIYQQQvRwEhwQQgghhBBCCCF6OJmAVwghhBCt1riOsU6n68CWCCGEEKI9SXBACCGEEBelKAqKopCVlaUty8rKQqfTSZBACCGE6AZkKkMhhBBCXJCiKHi9XtxuNxaLRVtut9sxGo3o9XoJEAghhBBdnIwcEEIIIcQFKYqCx+PB4XD4LHc4HNrIAQkOCCGEEF2bFCQUQgghRIvUdAKXy0VDQ4PPYw0NDbhcLm0dIYQQQnRdEhwQQgghxAVdaOSAx+ORwIAQQgjRDUhwQAghhBAXpI4McLvdPsvdbreMGhBCCCG6CQkOCCGEEOKimgsCSGBACCGE6D4kOCCEEEIIIYQQQvRwEhwQQgghhBBCCCF6OAkOCCGEEEIIIYQQPZwEB4QQQgghhBBCiB5OggNCCCGEEEIIIUQPJ8EBIYQQQgghhBCihzN2dAOEEEIIIYQQQnRejaetlSlsuyadTtfs/xuT4IAQQgghhBBCiGYpioKiKBgMho5uimgHbrcbvV7fbIBAggNCCCGEEEIIIZpQFAWv14vb7dZ+F12XTqfD7XZjNBqbDRBIcEAIIYQQQgghRBOKouDxeHA4HB3dFNFOHA4HOp1O+2lMChIKIYQQQgghhPChphO43W7sdntHN0e0E7vdjtvt1t7fxiQ4IIQQQgghhBCiCXXkgNPp7OimiHbicDjweDzNpohIcEAIIYQQQgghRLPU0QOie2gpMAASHBBCCCGEEEII0Qx16LkUIuw+LvSeSnBACCGEEEIIIYTo4SQ4IIQQQgghhBBC9HASHBBCCCGEEEIIIXo4CQ4IIYQQQgghhBA9nAQHhBBCCCGEEEKIHk6CA0IIIYQQQgghRA8nwQEhhBBCCCGEEKKHk+CAEEIIIYQQQgjRw0lwQAghhBBCCCGE6OGMHd0AIYS4khRF6egmCNGlKYoinyMhhBCiB5DggBCiW1E7MtKZEaJ9KIqC1+vF4/Hg8XiaXcfPz+8qt0oIIYQQ7U2CA0KIbsPr9aIoCkajfLUJIYQQQgjRFnIFLYToFtS7my6Xq6ObIkSPISN0hBBCiO5DChIKIboFRVHweDzY7faObooQQgghhBBdjowcEEJ0eWqNAbfb3SQ4sGHDBnQ6HXq9xEKFuFTq58vpdDJlyhSf5UIIIYToHiQ4IIToFtSRA06n02e5x+PBaDSi1+vR6XQd1Dohui41+KbX6yXIJoQQ4qpYsWIFJSUl/OxnP8NkMnV0c3oMCQ4IIboFtQNzfjV1s9mMv78/JpNJOjZCXCKv14vD4aChocFnuQTchBBCtOSdd95h+/btpKSk8NOf/rRN2z7zzDMcOXKE+++/n5iYmCvUwiurrKyM22+/HX9/f9atW9fRzWkVCQ4IIbqN5qYwtNlsBAUFYbFYMBgM0pkRoo0a1/MwGAwd3RwhhBBdgN1u5yc/+QnV1dXodDp+9KMfkZSU1NHNauKzzz5j+/btPPTQQ8THx7frPo4fP86XX36JwWDA4XBgNpvbq9lXjAQHhBBdnk6na3GedYvFQkBAAAEBARIcEOISqPUGjEZjk9lA5PMkhBCiOf/85z+prq4Gzp1H3n77bX7zm990cKuaWrVqFe+99x4ZGRmXHBxoaR9Dhw5l2bJlxMbGdonAAEhwQAjRzRmNRkwmEyaTCaPRKJ0ZIdpIURQMBgNut1tGDgghhGiVVatWAfDEE0/w+9//nlWrVl0wOGC328nPz6dv374YjRfuop44cYLKykpiY2OJjIxsdl9+fn4YDAacTid5eXlERUURFhZ2ScdysedricFgYMaMGRe89jx9+jS1tbUkJyc3m/7qcDgwGAzaa5Kbm0tkZCTBwcFtP5BWkARcIUSXpyhKkzuaKrWImvzIj/y0z48QQghxIWVlZfzrX/8iLi6Op556isjISA4dOsSOHTuarFtdXc1dd91FUFAQqamphISE8NRTT+H1en3Wc7vdLFy4kNjYWBITExk8eDBRUVGMGjWKw4cPa+vV1dXh7+/PjBkzWLp0KXFxcaSmphIREUF6ejp5eXkAbN26Fb1ez3vvvQfAzTffjF6v1zrdrXm+i+2jrq4Oq9VKamqqz7F4vV6efvppoqOjiY2NpV+/fgQEBHDvvfdSUVHR5FjuuOMO3nnnHW3d0NBQJk6cSGlp6WW9T82Rs7wQQgghLovL5ZJpDYUQQgDw/vvv43K5mDZtGiaTiWnTpgGwcuXKJuveeeedfPjhh0RERDB79mx69erFokWLyM3N9Vlv165dPP300wQGBvKLX/yCxYsXk5aWxrZt25g7d662ntfrRVEUPvjgAxYsWEBMTAwPP/wwSUlJ7Nq1iwkTJuByuYiPj+eee+7R0gDGjBnD9OnTue+++1r9fBfbh9frxev1NrmBNXfuXBYuXIjb7Wb+/PksWLCA8PBw3nvvPTIzM7Xi2ur2a9as4b777sNqtTJnzhwiIiLYsGFDm4s8tooihBBdnNfrVZxOp1JZWank5uYqgPaTm5urVFZWKk6nU/F6vR3dVCG6HPl8CSFEz6R+/589e1bJy8tTWtt1HDlypAIo27ZtUxRFUbZu3aoASlRUlOJyubT1tm3bpgBKaGioUlBQoCiKong8HmX+/Pnaeaa4uFhRFEWpqalRPvvsM59zTVVVlRIYGKgASm1traIoilJdXa1tO2vWLMXpdCqKoihnzpxR4uLiFEBZvXq1to977rlHAZS1a9f6HENrn+9C+1DbkpiYqC3buXOnotPplKCgIOXo0aPa8uLiYiUhIUEBlBUrVjQ5lrvvvlt77Xbv3q0AitFoVNxud6veExWg5OXlKWfPnm323C0jB4QQQgghhBBCXLajR4+ybds2kpOTGTFiBAAZGRn07t2b0tJSPv/8c23dzZs3AzB9+nQSExOBc+mgb775Jr179/bZr81mY8qUKT75+0FBQfTr1w84l7vfWFRUFG+99ZZWsDoiIoLp06cDsH379oseR1ufr7U+/fRTFEVh9uzZ9O3bV1seExPDAw88AJxLVzj/WN555x2t7kBaWhqJiYm43e52Ty2Q4IAQQgghhBBCiMv29ttvA+eG2Ofl5ZGXl8fx48cZO3Ys4JtaUFBQAMB1113nsw+dTtdsdf/c3FweffRRRo4cSe/evYmIiGDPnj0ATVLb1CmsGxswYADQ+o59W56vtdR0icGDBzd5bNCgQQAUFhb6LLdYLE2KNEZERABQX19/Se1oicxWIIQQQgghhBDisqmzFGRnZ5Odnd3k8Y8//pja2lpsNhsOhwNo3bS4R44cYfTo0ZSVlTF8+HCmTJlCYGAgK1asoKSkpFVtc7vdAC1Of93ez9ccp9MJ0GyBX7XWQGtmBrpSs29JcEAIIYQQQgghxGX5+uuvOXbsGHFxccybN6/J48uXL6eoqIgPP/yQWbNm0atXLwAOHjzos57X68Vut/ssW7ZsGWVlZTzyyCO8/PLL2vLNmzc321l3OBx4vV6fTvj+/fsBmqQsAE2KBrb1+ZrbR3P69OkDwL59+5o8prZPTV3oCJJWIIQQQgghhBDisqijBmbOnMmSJUua/KgBAzW1QK1J8MEHH2i5816vl0ceeaTJ0PqioiIAoqOjtWX79u1rMquBqqSkhNmzZ2t34wsLC7UpB9UUB4DAwEAADhw4cMnP19I+mjN69GgAVqxYQX5+vs/zvfHGGwBMnTr1ovu5UmTkgBBCCCGEEEKIS+ZyuXj//fcBtMJ/55sxYwZPPfUUGzZs4NSpU9x4440MGDCAw4cPM3LkSKZMmcK2bdvYuXMner0er9erbZuRkcGqVat48cUXqaiowOPxsHz5cqqrq1ts06pVq9i2bRujR4/m888/p7KykoyMDMaPH6+tM3DgQACWLFnCwYMHKSkpYe3atW16vpb20Zxbb72VjIwMvvrqK4YPH87UqVMxGAx8/PHHlJaWcttttzFhwoSLvNpXjowcEEIIIYQQQghxyXbv3k15eTmpqakMHTq02XUGDBjAsGHD8Hq9rF+/Hr1ezxdffMGoUaPIz8/n1Vdf5dSpU7z++uvMmDED+E/+/UMPPcSDDz5IVVUVf/zjH3nttdeYMGECc+bM8VlPFR8fz//+7/9SWFhIdnY2paWlTJ06lU8//dRnvXnz5jFmzBjq6urIzs7Whva35fla2oder0en0zUpJrh27Vrmzp1LbW0tb731Fm+++SYej4df/epX/O1vf9PWa2l7+E/dhOYeuxw65VJLLQohRCehKAput5u6ujrKy8t9pobJzc0lPDycgIAAjEbjFSvgIkR3JZ8vIYTomdTv//r6eioqKkhOTr5glf6amhqsVusFO6zq/gIDA33OGVVVVZSVlZGSkqKt53A4CAgI8Nm+traWgoICkpKSCAgIwOPxYLfbtfVqamoICgoiMTGRgoICqqqqOHHiBCkpKVit1hbbVVxcTHV1NX369MFkMrX6+S62j/r6egwGQ7OzL3i9Xo4fP47ZbCY+Pr7ZdrW0vdPpxOVyNduOC9HpdOTl5REWFoa/v3+Tc7ekFQghhBBCCCGEuCxq7v2FGI1GgoKCmiwPDg4mODjYZ73mggw2m00bxg/n7uBfqIN8/n5bEhsbS2xs7GU9X3P78Pf3b/E59Xq9FgxpSUvbm0wmnyBGe5G0AiGEEEIIIYQQooeTkQNCCCGEEEIIIbo8s9nMrbfe2uwoAHFxEhwQQgghhBBCCNHlmUwmPvnkk45uRpclaQVCCCGEEEIIIUQPJ8EBIYQQQgghhBCih7vktILmprGQWRFFV6PXS3xMCCEuRKfT4efnh9frxev1+jymLlPnWxZCCCFE13XJwYHm5jKW+Y2FEEKI7kWd51qv1zcJqKrLXC5Xk7mShRBCCNG1yG1TIYQQQgghhBCih5PggBBCCCGEEEKIHsXtdrN48WJeeeWVjm5KpyFTGQohhBCiRYqi+Pxc6DFJKxBCCHElVFRU8Oqrr+J0OoFzaW3h4eGMHTuWtLS0S9pnQ0MDWVlZJCYm8sgjjwBQVlbG7bffjr+/P+vWrWu39ncVnTo44Ha7qa6u5uzZs6xdu5ZevXqRmppKbm4uAMOHDycyMrKDW9n9nD59WnuN6+rqOHXqFBEREQwYMACv18s111zTwS0UQghxNaid/j/96U+UlpbS0NDg8/hLL72E1WolKiqKn//85xIgEEIIcUWsW7eOJ598stnH7rzzTlasWEFAQMBlP8/x48f58ssvMRgMOBwOzGbzZe+zK+m0wYHvv/+enTt3EhwcTP/+/ZkyZQpms5mgoCCCg4NxuVxs3LgRj8dDamoqffr0ITg4uKOb3aUVFBRw/Phx9u7dy9ChQxk4cCAul4trrrkGk8mE1WolLy+PxYsXM2HCBNLT0/H39+/oZgshhLgC1MCAx+OhvLyc5557rsk66lDMX/7yl3g8Hi0w0J0CBI1HS/TUWZkav5/d6b0VQnQdHo8HgBtvvJHf//731NfXs3XrVhYtWsSHH35Inz59eP755y/7eYYOHcqyZcuIjY3tcYEBAJ3SCc90e/bsobS0lJiYGEJDQwkLC8NkMqHT6dDr9drUSZWVlZSVleFwONDpdAQFBZGSktLRze9yvF4vpaWl7N69m/DwcIKDg4mJicFmszUZKtrQ0EBZWRknTpxAURQGDhxIeHi4XCyIDqVWU6+rq6O8vJy+fftqj+Xm5hIeHk5AQIBUUxeiDdTAgMPh4NSpU6Snp1NTU9NkvcDAQHbu3ElcXBxmsxmDwdBtPmfqOdBgMHR0UzoFddaK7vL+CtGRGnfBOutnSr2+qq+vp6KiguTk5A4Lkr799tvMnDmTe++9l3feeUdb/sYbb/Dwww8TExNDcXFxk+1Onz5NbW0tycnJTWbcqampISgoiMTERAoKCrTlTqdTm8b3fB6Ph7y8PKxWK/Hx8doyp9OJ1Wptsr7X68XhcDT7WEfQ6XTk5eURFhaGv79/k2vjTleQcNeuXTidTq6//nr69+9PbGwsAQEB+Pn5YTQa0ev1GI1GTCYT0dHRpKSkkJSUhNVqpb6+nqqqqo4+hC7F5XJRXFzM4cOHSU1NpV+/fvTt25fg4GAMBgNGo1F77Y1GI4GBgfTp04dBgwYRFBTEmTNnqK2t7ejDEEII0c4URcHr9eJ2uzGbzcyYMaPZ9WbMmIHZbMbtduP1ervN3XX1+F0ul/Z7T/4But17LERHUL9bMjMz0ev1bNy4UT5Xl2HcuHEAlJaW4vV6gXMd8qeffpro6GhiY2Pp168fAQEB3HvvvVRUVFxwf3V1dVitVlJTU32W19bW8vDDD2Oz2ejfvz8JCQlcc801bNy4kVtuuQV/f3+foIVq7Nix+Pv7s23btnY64iurUwUHDh8+TFlZGVFRUcTExGCxWDAaL5z5YLFYCA0NJSIiAoDKysom65woLGTv3r2UlJRekXZ3FZWVFRw4sJ+848dxus6d4Gtqajhw4AA2m42EhARCQ0NbdYckLCyMvn37Ul1dTUVFhfZhFEII0b2oF7LTp09vks8ZEBDA9OnTu+WFbeORE+Ich8OBx+Ppdu+1EFdL43StMWPGADBv3jwWLVqkfY/K56ttTp06BUBCQoI2MmDu3LksXLgQt9vN/PnzWbBgAeHh4bz33ntkZmZqKQrNUUeoq4Fh1fTp03njjTeIioriv//7v5k2bRp5eXksXLiQSZMmAZCdne2zTX5+Pl9++SUhISEMGTKkPQ/7iuk0wYH6+npKSkqIjY1tc5FBnU6HzWbDYrFQUFBAfX299pijoY7DR47w/ff7KauowNtjP28Khw8dYt/evZSWluJwurDb7Zw+fRo/Pz/69+/fZKjNxQQGBhIcHMzp06cpKSm5Qu0WQgjREXQ6HTqdDoPBgMFgICQkhDvuuMNnnTvuuIOQkBBtHXWbrk69QHe73djt9o5uTqdht9txu93SgRHiMqgdz7vvvpvevXuzfPlyNm/eTEpKCuvXr5fPVxucPHmSX/ziFwBaB33Xrl2sXLmSoKAgtm/fzl/+8hf+/Oc/s2PHDhISEti3b1+zd/gvJCcnhzVr1hAdHc23337LK6+8wvvvv8/u3buZN28eM2fOxGg0sn79ek6fPq1t9/777wMwbdq0LlO/oNMEB86ePUtgYCCRkZFYLBZtudvtpry8nIMHD1JUVERdXR1Hjx6lrq7OZ3uLxUJYWBhut1urtA/gcbvY//1+XG43toAAuv4ly6U7euQIlZVnsdkCMRr0NDQ0UFpaysCBAwkMDPS5oKurq6OwsJDjx49TVlZGaWkpeXl5TfaZkJBAbW0tp06dwu12X83DEUIIcQWpdX6MRiNmsxmLxcK9996rFaL19/fn3nvvxWKxYDabtdS/7hAcgP+MHFCnzRIyckCIy9U4Xclut2t57tnZ2WRlZTFp0iRmz55NXl5etxyR1R6++OILbrjhBtLS0khJSWH37t306dOHP/zhDwB8+umnKIrC7NmzfWpQxcTE8MADDwCwdevWNj2nuv6cOXOIiorSlg8cOJB58+YRHR3NjTfeiMfj0QIC8J/gwMyZMy/tYDtApwkOnDp1Cj8/P2w2m8+wdrvdTm5uLv/+979Zt24d1dXVrFu3jrKysib7CA0N5brrrmPfvn3astOl5ZwsysfhcOJnMtNNrlnarLSkhPraGkrLyqmurcNqMVNfX09NTU2zIzWKi4vZvn07Gzdu5LvvviMvL4/169c3WS8gIIC4uDgURbloDo8QQoiuRafTacEBf39/oqKiuOuuuwC46667iIqKwt/fXwsOdJfAgEodPSDOkcCAEJdPDRBER0czcuRI8vPzSUpKYs6cORw/fhyDwcCECRN46623JEDQjPLycrZt20ZJSQnDhw8nKyuLffv2ERoaCqDdJB48eHCTbQcNGgRAYWFhm55T3eeFpnOfM2cOcK5wIsCRI0fYvXs3SUlJ/PCHP2zT83WkThMc2LFjB2azuUklR6fTSV1dHcHBwRQWFhIeHt5iTrxer8dkMmnDNurrali+fDm9k5I4cfIkBw4cvOLH0Rkpipc1n32K1RbE6ZIStm/7GpfbzdmzZ1ssJnj27Fn8/PzQ6/XU1dURGRnZ4rq9evXCZDJx9uzZK3kYQgghrjJ19IA6na3NZuP+++8nOjqa+++/H5vNhtVqxWQydatRA0CTYnxCXhMh2oP6Pen1ern55pvJycnRHktKSmL58uUsXryYp59+mgkTJrB+/XoJEjQyffp0amtrKS4uZvPmzSxatMinHo462qu5dGm11kBbZ6BpaGgALjyrxNSpUwkLC+Pbb7/lyJEj2qiB++67r0udGztNcKBv375NhrbDuTdBURT8/Px49NFHMZlMGI3GFj8gFouFgQMHAvDV5hxCIuMYmj6csNCwCxaf6M7qaqo4VlBE/2tSGXTNAIz6cxd7wcHBJCYmNruNTqfD7XYzcOBAJk+ejF6vb/GDZDabiY6O1opCCiGE6B7UGgJGoxGLxYLNZiMuLo6//vWvxMXFafV+1FEDXekCSAghrjb1e1K9rvZ6vT7BAdWcOXPIyclh+I10LgAAIABJREFU/PjxzJ8/XwoWtkGfPn0AfEaSq/bv3w9Av3792rTPpKQkAA4dOtTiOmazmXvuuQeAd955h/feew/oWikF0AWCAyaTicTEREaOHElISAinTp2ioqKCb775ptkieHV1dXz99dfa7xaziQN7vyMuNpaUlJQrfhydkaJ48TOYKDh6BD+LP72T+2PQ6wkJCdH+2M8XHh7O9ddfz4ABA3A4HOTm5lJXV8euXbuarFtXV0dBQUGzc4sKIURndv50bWqVYvn5z496IaoGCAIDA7nmmmsIDAz0mVWoO79+QgjRXhoXeh02bBgFBQXk5+c3WS8pKYmsrCyys7OlYGEbjB49GoAVK1b4vK5FRUW88cYbwLm7/G0xbNgwAJYtW0Zp6X9mv9u1axeLFi3Sfp89ezYAzz33HAcOHCA9Pf2CqQid0YXnCbyKdu3axfDhw7FarT4BAn9/f5KSkrRl0dHRPPzww1oO5Pk8Ho82neHYCTfgWr8Rh9PJ9YPT6J0Yf3UOppOxBYVy0+QJFJ08ydBrB3HNNQNwOp2UlpZy/PhxevXq1WSb+Phzr5U6JGfMmDGMGDHCp1ikyuv1UldXJ3eMhBBdhnpxNX78eDZv3tzRzRFCCNEDNB45YDQa6d27NyNGjNDqDjQnMzOT7OxscnJymDRpEjNnziQrK4s+ffrIiK1m3HrrrWRkZPDVV18xfPhwpk6disFg4OOPP6a0tJTbbruNCRMmtGmfd955J9deey0HDhxgyJAh3HLLLZSUlPDZZ58xdOhQFi9eDMDw4cNJTU3l4MFzqez3339/ux/fldZpggMmk4m1a9cyatQoBgwYgJ+fH3DuQ6T+H87liAQFBTW7D6/Xi9FoJD09/dw+zVZGjRqFx6sQGGhrdX5JWVkZhYWFuN1uEhISiI2NBc4FHo4ePYrNZiMqKgo/Pz8qKytRFAWdTofT6cRsNlNXV4fb7aaoqAij0UhgYCCJiYkEBgZezkuE2+3m2LFj7N27l9DQUCIiIjhz5gzBwcH079+fkJCQZrfT6fQMvO46Uvr1w2K1EuBvxe1243a7OXToEC6XiylTpvhso94JUlkslmYDA3AuDychIYGwsLDLOj4hLoV6t3L16tXN1tH4+9//js1mIyQkhOnTp3e7vGjRdo0DA4qiUFdXJ3eHW0G9i64WpVPvfun1+jZPhdvZqYUIGxoaqKys1IpYCSHE5WocHPDz8yM8PJzly5eTmZnZ4jZqwcLMzEyysrKYMGECCxcuZO7cuT3mukbtD5pMpouuu3btWh599FHee+893nrrLeDcqOhf/epXPPXUU9p66mvXuN/T0rIvvviCuXPn8sUXX/Dmm28CMGTIEF544QWf5547dy6PP/44BoNBSzPoSjpNcOAHP/gBr7zyCgEBAYSFhREXF9fmfajTDjX+gIT8/5Ur2+LIkSPU19cTHx9PfX093333HWFhYZhMJoqLi/nmm2+4+eab6devH4cOHaKyshKz2Ux5eTkJCQkEBgZSW1vL999/T0ZGBnV1dTidTu1i6lJ5PB6Kioqw2+3s2rWLm266ibi4OE6fPk1hYWGLwQE4N6tA42IdBoOBsLAwIiMjWbFiRZPgQFvU1dWh1+t99i/E1aIGB7Zu3crrr7/e5PEnnngCgJ/85CfcfffdEmXv4dS/lwkTJqAoCp9++ikOh8Nn+LxomRpEUc9nHo+n2wUG4D/BAbvdjsPh6OjmCCG6kcbBAaPRyNChQ1m5cmWrtlULFi5fvpysrCxWrlzJwoULmTBhQre/vpk2bRo333xzq/obQUFBvPXWW/zlL3/h+PHjmM1mbVR0YwEBAdTW1vrcQG5uGUBsbCz/+te/aGho4NixY0RERBATE9Nkn+rN4MmTJxMdHd3Ww+xwneaMHhMTQ2pqKocPH6aoqOiS9lFVVcW+ffsu+42oqqri5MmTVFZWUl9fT0FBAevWrcNqtXLy5Enq6uq0woj19fWcPHmSoqIiysvLOXLkCDqdjuLiYnJzc6murqa4uJj6+vrLapOqvr4es9lMeno6ERER1NXVYbVa23zMOp2OoKAgoqKicDqdnDp16pLunDU0NFBcXExdXZ3PCA8hrobG8wX/13/9V7OpRnCuSMx//dd/4XK5pBPYg50fGPjkk09wuVy43W48Hk+H57V3hR/1dWz8b0e36WodtxBCtJfGAYL4+HgKCgratH1PLVgYGBjYpoC0Xq8nJSWl2cCASp2O92LLVFarlUGDBjUbGAC0UQVdMaUAOnjkgKIouFwuPvjgA0JCQrDb7RQVFXH69GkURcHhcHDmzBlyc3ObTQmIjIwkJiaG4OBgampqOHLkCAAJCQmX1S69Xs/Zs2c5ceIEkZGRVFdXU1tbi9vtxul0EhERobUnMjKSgoICPB4PQUFBVFVVYTKZaGhoIDAwEJvNxqlTp3C5XJfVJjj3RaKmE1x77bWUlpZy7Ngx4uLi8Pf3b/V+SktL2b9/PyUlJdjtdmJiYti0aRPTpk2joaGB0tJSSktLqa+v1yKQ6qgMtRBVQEAAer2e7777DrfbTWRkZLe8eyQ6N/Uk6Ha7CQ4O5sc//rE2v2xjP/7xjwkODsbtduPn53fZo3hE19PciAF1pJnBYPD5e5C/DaEoCnq9Ho/HI4FvIcRlaxxUPX78OBs3buTYsWO8/fbbnDhx4pL2qRYszMzMZNGiRaSkpPCXv/xFy6eXc9nVt3PnTnbt2kVgYCC33XZbRzfnknR4WoHX6yU/Px9/f38tb3/Hjh14vV5MJhN2u53y8nLcbneTbYOCgggKCsJoNFJTU4PBYGDixImXPbw9ISEBg8FAYGCgdlEwcOBAnE4nqampVFVVYTQa8Xq9JCQkUFdXh8vlIjAwkOrqakJCQujfvz99+/Zl0KBBGAwGgoODL/tDajQaSUlJ0aaTOnPmDAkJCQQEBLQp+NDQ0MDp06c5ceIEFosFs9nMmjVr8Pf3x2g0YrfbOXv2rDZPKJz7glFzfM6cOYNOp8Pr9VJdXc3IkSMvGJET4kpSO30ej4f77ruP1atX+/ztmkwm7rvvPu3OcHeOqIvmNRcY8Hq9TXLm1e9ouaASatDR6/W2ePeorTZt2sTIkSPbbX9CiM6p8XWGGgzIzs5m06ZNWgHc3r17M2fOHFasWHHBWgOtIQULO4+ysjJuvPFGbr311jbduO1MdEonuVIuLy/n22+/5Z///CcnTpwgNjaWPn360KdPH4YOHdrsH/aJEyc4evQoubm5OBwOBg8ezKhRo0hOTm6xeF57U+9cejwe6uvrmxRDa3yHsvH/1QtTVVRUlHb36mp9kKuqqvj222/5+OOPOXLkCHFxcQwYMICUlBRSUlIICgry+YLzeDzY7Xa2bt1KcXExBQUFTJ48mfT0dOLj4wkODr7ibRaiscZ5wWfPnuXMmTMsWbKEjz76SFvn9ttvZ+HChURGRhISEuIzJ7vo/i4WGDAajU2CA0Ko3y319fVUVFTQr1+/CwYWt27dysKFC3nxxRcZMmRIs+v4+/uzZ88e+vfv3+b2lJWV4efnd9HzbH5+vnaDY9euXdxzzz0cOnSoXUb26XQ68vLyCAsL024myGdGCN9RAfn5+eTk5HD8+HE2b97M5s2b6d27N5mZmSQlJZGZmXnZwYALyc/PJysri40bN7ZLwcLzvwuTk5PlJksXd7Hv8g4fOQDgcrmora3l2LFjmEwmfvzjH3PDDTc0O8VeY/369WPChAlUV1ezZ88eNm3axNKlS7nvvvu45pprsNls7XriUhQFu92Oy+XSZiSw2+0oiqLl7bc2Z8hgMPjcxRw5ciQWi0UbMWE2mzGZTNqd/fYe1uhwOCgvL6esrIySkhLmzp1LRkYGsbGxF32utLQ04NzQmQ8//JBDhw4xZswYhg0bRlhYmKQXiKtKr9djMBi0z8vMmTNZs2YNTqcTk8nEzJkzsVgsmEwm7S6x6BlaExhQgwPSyRGNqWkFrZ2J4fXXX2f79u28+eabvPbaa+3enl/+8pckJiby5JNPXnC9wYMHs23bNlJTU+nbty+/+93v5DtPiHbWUjBgxYoVFBYWkpiYyPjx4xk/fjzZ2dktTlF4JfTkgoXi4nJyci66TofXHPB4PBQUFPDEE08wZcoUFi5cSHh4eJv2ExQUxNixYxkxYgTffPMNzz33HHfccQe33nqrlht/Oe1Tp21yuVzs3buXoqIitm/fzunTpykvL8fPz4/o6Gj69OlDv379Wr1v+M/w1T/+8Y/Y7XZKSkoICQkhOjqa5ORkrr32WgYMGEBsbKx2kaJ2cC71A+7xePj+++/5xz/+gclk4s9//vMlTUOYnp5Oeno627dvZ9WqVezZs4eHH36Y4OBguRgRV4V6ojMajZjNZqxWK4mJidxyyy384x//4JZbbiExMRGr1YrZbNaio3Jy7P7aGhiQvwlxvtaO5KutreXjjz/m5Zdf5oknnuCll17Cz88Pu93Or371K7Zt28akSZN80iNfe+013n//fZxOJ7fffjtPPPEEhYWFPP3008THx/PJJ58wdOhQXnzxRf7+97/z73//G4vFwjfffMNHH33E0qVLm2z/4IMPUldXx4IFC5g0aRKzZ8/mnXfe4c477wTg888/56WXXqKiooLMzEyefPJJLBYLDzzwAD/84Q9ZtWoVFouFF1988ZJGNwhxPvVad/ny5cybN08r7tmVvm/bkiKQnZ19RUcFtIU67eHy5cuZP38+s2bNIisrS7s+70rvgbh0OTk5bNy4kQ0bNrB161YA4uLiLnhu69C0goaGBlatWsWHH37Ik08+yZAhQ9olHaCqqoqnnnqKEydO8Pzzz5OYmHhJ+zlz5gzr1q1j8+bNlJSUUFtby/XXX09cXBy33HILvXr1wmaztXtHWC3EuGfPHnbs2MGxY8coLS0lPDyc1NRUpkyZQnp6+iXt2+v1snLlSv71r38xY8YMpk6d2i5tPnXqFKtWrSI3N5dHH32Ua6+9tl32K8TFqJ1Ah8NBTU0NFRUVHD16lJkzZ7Jq1Sr69etHWFgYgYGBmM1muUvcA0hgQFyutgylXbFiBUuXLmXTpk306tWLN954g9tuu42srCw+/PBDXn75Zf7yl7+watUqDh8+TP/+/XnyySeZOnUqdrudyZMns3PnTrxeL9dddx3z5s1j/vz5LFiwgFtvvZVHHnmEBQsWEBMTw/z58xk1alSz27tcLjIyMli6dCnDhw/H4XAwduxYKioqOHz4MGlpaSxdupS+ffvy4IMP8qMf/Yhnn32W1NRUXC4Xr7/+OkuXLsXlcvmkZqkkrUC0hZp26/V6tRGpTqfTJ4W2M+pMKQLtJScnh0WLFlFQUKAVLGzteyBpBV3L+cGA4cOHM2TIENLT01m6dClut5s333yTqKgoQkNDsVqtTYsyd1RwwOFwsH//fpYsWcIrr7xCREQEJpOpXb4s1I7CG2+8gcViYerUqRdNUYBzwYr9+/ezbt06du/ejc1mIy0tjWuvvZaBAwdqL6A6hPlKfcGpX6Zut1ubZsvlclFRUcHXX3/N4cOH+e6770hKSmLy5MlkZGQQFRXVqn1/+umnHDx4kB/+8IcMHTq03Qojeb1eqqqqWLduHdu2beN3v/udFF3qwpr7WujMJwP189LQ0EBVVZU2rel1111HcHAwwcHBWK1WrUPYGTT3vdFZL5a6EgkMiPbQlgviyZMn86Mf/YhHHnmEn/70pxQXF7N69WrGjBnD7NmzeeCBB1AUBX9/f7777jv69+9PQ0MDmzdvpri4mF//+tdkZ2cTGxvL6NGjOXv2LDqdjldeeYX333+fLVu28MADD/ikFTS3/aRJkwgODtbSCr7//nstOPD888+zYcMG1qxZA8Bbb73Fa6+9xo4dO0hNTeX//u//uPHGG/nss8/45S9/yb59+5ocpwQHRGs1nklo3rx52hTlv/zlL5kwYUKnOhdfLEWgcTBgzpw5VzVFoD2pxzZ37lyOHDlCSkpKq86BEhzoGmbNmsXKlSt9ggGNbyQvWLAAl8vFH//4R8LDw4mIiCA4OBiLxdLkplmHpBW43W4OHTrEa6+9xq9//WtiYmKanarwUun1eqxWKzNnzuSZZ54hJCSEG264gYiICAD279/Pnj17mD59OnCusOHKlSvJy8ujV69eDBkyhMmTJxMcHExAQAA2m+2KjBBoiXoRazAYtA62oigEBwcTGhpKZmYmlZWVnD17lgMHDrB48WKMRiOjR49m4sSJLaZlbN++nb1799KvXz/S0tLatfOu1+sJCQlhxIgRnD17lsWLF/Pss8+22/7F1aGe0NWqt5s2bWrz3Lui9RITE9HpdIwbN445c+Ywbtw46bBehpYCA4AWGDg/LUsuckRz1O/Ci80ZfurUKdavX8+XX37JwoULtTpEVVVV1NbWEhgYCODzuXY6nQwdOpRrr72WESNGaH+jgM8dHIvF0uxzX2j7ltTU1BAUFKT97u/v75PmoF6Dmc3mZmeHEqKtPB4P69ev5+233+b48ePasPuxY8d2WHD2/BSBnJwc7VqnM6cItIekpCRycnLIyMggJiYGj8fT5I6x6LpWrlzJzp07m31MDQw899xzBAQEYLVaL3iTu0OCA4WFhWzevJkbbriBIUOGtGtgoLGIiAhmzZrFP/7xD+Lj4xk1ahS5ubns2LGDuro6tmzZwrp167DZbPTr14/Ro0cTGRlJTEwMoaGhnWpuY3UqQXWEQGJiIvX19fTu3Zsf/OAHlJeXc/z4cf70pz8RFxfHhAkTSEpK0o7hzJkz7Ny5k169ejFu3DisVusVaWNcXBwZGRmUl5ezZs0apkyZ0u7PI9qfegGck5PDxIkTGTNmDGPHjmXt2rUkJCR0dPNaRZ3O0OVy4XQ6tROfyWTCz8+vUxYjLCwsRKfTsWXLFm3I36JFi5gzZ44ECdpIDQwYjedOa6+++iorV64EaFKrRV5XcTHq35PT6aSurq7F9d59911Gjx6tFXlSFIXk5GRWr15Namoq//znP5k+fTrvvvsudrsdgLy8PA4fPsz27dupra3lhRde0PZXVVXF6tWrueuuu/j73//O4MGDgXNTsp44cQKv13vB7U0mE0VFRQwYMMCnnWlpabz++uucPn2ayMhI3n33XUaNGtVeL5cQmsajX5999lkWLVqk3XV/8803cblcWqD2arRF/fdCKQLjx49n8eLF3SoYcL6cnByys7N5++23cTgc2nVR45nURNeUk5PD8OHDm31MDQz84Q9/IDAwkKCgIGw2GxaLpcXg0FUPDtjtdvLy8jhx4gSzZs3SLuSulLS0NHbv3s3Ro0cJDg5m69atvP/++wwaNAir1cqwYcOIiIggNTWV8PDwTtd5aIler9dGNCQnJ2O328nPz+fIkSM4HA42bNjAiRMnyMzMJCMjgy+//BKPx8OQIUNanYJwKUwmEykpKWRmZvLqq68yceLEdksXEe1PPXE2vtu6Zs0aMjIytNk0HA5Hl7m7qgYIdDqd1hH0eDwA2r+dSXR0NDqdjrvvvpvp06fz1Vdf8dvf/pbs7GzeeustmaO4lRpfjALcc889bNq0CcAnICCvpWgL9fvE4XC0uM7q1auZPXu2z7XDjBkzWL16NS+++CI33XQT4eHhXH/99drnvW/fvowZM0abMthqtWp/lwaDgcWLFzN37lx69+7N0qVLAbjlllu44447+Pvf/86pU6da3P62225j6tSp3HXXXfz617/2Wf7RRx+RkpKCxWLh+uuv58033wTwmZGhtbMzCNEStZj34sWLOXHiBFlZWQBaEUyXy4XZbL4indLmggH5+fksWbIEwCcYcLVnEehoixYtYt68eaSlpeHxeLRrPDkndn0bN25sdgrdxoGBoKAggoODCQoKIiAgQBs50JyrXnPgwIEDbNiwgV69enHHHXdclec8duwYH3zwAWVlZRQXF3PgwAGSkpJIT09nwYIFV7SzfLUpisKZM2f47rvv2LNnD16vl8DAQA4ePMiNN95IZmYmNpvtirejvLycJUuWMG7cOG6++eZ2KTQp2pc6WmDDhg3Mnz+fMWPG8Morr/icNLqa5oYBd5VOoRrQOHnyJO+99x5vv/0269evJzk5uUu0vyOpgQGHw0FQUJB2h1Wv12t3qBpHyOW1FBej5tk2NDRQWVlJWlpas9+JLperyShDdVs/Pz8txSAkJKTJuuXl5YSFheHxeDAajVqNgLKyMioqKrRUSFV9fT1er1c7h5+/vaqyspLAwECMRmOT51SnY1bTHZo7huaOCaTmgLg4NTBw5MgRBg4cyMaNG33uxut0Ov72t79x8803X3aB4LakCHSVwoFXSlZWFm+++SYffPAB4eHhWpFmk8l00fdAag50fmPGjGHWrFnN1hhQAwMhISHaqAGz2Yyfn1+L15ZXdeSA1+vl2LFjnD59mjlz5lxwXY/Hg9vt1iL3ZrMZu92O3W7H39+fmpoanE4ngYGB2kmwJWp0/fvvv6dPnz6MGzcOr9dLQECANsyvu9DpdERFRTFp0iQmTJjA559/zooVK4iNjaVPnz5tCgw0fg8URcFgMOByuairqyMoKIizZ8/idrux2WxN3gObzcaMGTN44YUXGDNmDGazWS4iOhG1A+3xeJg0aRKfffYZI0aMwOVyaZHk83ORutL7d35woDNqfIdD/Yx5PB5iYmJ47LHHSEhIYOLEiVqAADrvsXSkxhWxXS4XgPavTqfTihHKxYxoC/WC2Ol0an9PzWmpE60u1+l0hISENLuuWh/o/OsXvV7fJDAA5+oEtGb70NDQFttnsViaBOvPX6czpVSKrqPxCK4FCxYwe/bsJh3ycePGsXXrViZPntzm7+SWRgWowYDExETGjx/fI1IE2mrx4sU899xzmM1mzGbzFS2qLq6+rVu38tJLL2m/X05gAK5ycKCyspLa2lrCw8Mv2km12+2Ul5dTVVVFQ0MDMTExHD9+HIPBQHBwMKWlpTgcDhISEkhOTr5oesKoUaMIDAxkwIABjBgxoj0Pq9MyGAzcdNNNfP3114wYMYL4+HifxxVFwel0cubMGQwGA5GRkZSXl6PX6wkODsbj8XDmzBnKy8tRFIWgoCBKSkrweDxER0dTWFiIy+UiISGBpKQknzsRZrOZtLQ0ampqqKurIzQ09Krkl4mLaxwYmDhxIp988gnDhg3D7Xb7VHQ/v3AbSOe0vZx/x8Pj8TT5ufvuuyksLJQAQSt5vV6fObTP/zsWoi0URdGG2F+tv5/U1NRmZwkQoitQz2XLli1j69atbNmypck6c+bM4bPPPtNGKF7oulBSBNrHuHHjmDx5MiNHjiQgIAB/f3+f4IDo2s6vN3C5gQG4ysGBoqIi6uvrGTRo0EXXVRSF06dP89133+F0OklMTGTPnj0MGTKEkpISjEajVsn3QlF91YABA9izZw95eXk9Jjigys/P57bbbiM4ONhnudfrpby8nH/961/YbDaGDx/OwYMH8Xg8pKenExERQXFxMd9++y0mk4mwsDCOHTvGoEGDqK6uxul0YrPZtBEG59Pr9QwePJiSkhIiIyOb3PUQHaNxYCAjI0Ordq3e7fLz89OmGbqcIX+iddS7LedPX+r1ennssccAmDdvHuvXr5eTeQvOvwPl5+enFaKUIoTiUqgjBxRFuWrT8hoMhlZNuyxEZ9N46sLf/va3bNy4sdn1kpKS2L59u8+o1Ob2daEUgfNTFUTLcnJy2Lx5M+vXrycgIICAgAAsFouWEiTnxa6vcb2B9ggMwFUODhQUFGC32xk2bNhF11UPpKGhgYiICIqKiujduzdHjhyhV69enDhxAjjXwW1NzYCAgABqa2svWHW4Ozpz5gzx8fHNdszVSsyKomA0Gvn0008ZNWoUBw8epLKykl69emmVTAMCAqiqqiIiIoL9+/eTmppKXl6eNu1RVFSUz1BGOBccuPXWW9myZQtxcXESHOgE1I7osmXLtM6nmputBgbUCrZy4rh69Hp9kzuVLpcLr9fLtGnT2LJlC4sXLyYrK0vel1ZQgwNyd0RcKjWVzuPxYDKZOro5QnRqamDggQceIDk5ucXOe1JSEidOnGDTpk3cdNNNeDweCgsL2bRpk0+KQE+aReBKmj17No899pg2LbuMGuh+NmzYwKxZs9otMABXOTigRuFbe6JVOzIBAQEcOnSIu+++m82bN+Pn58f48eOx2+1t+uNW99eTqB2/ll4nvV5PQEAABoOBtLQ0tm3bht1u14Z6qVMo+vn5UVpayrBhw9i+fTt6vZ6JEydqHZjm9q/T6bBarTgcjh73undG6t+/x+NhwYIF7Nq1S+uQNr7TKoGBq0/NiT+/eKLL5aJXr168/PLL3HbbbcyaNYuUlBQZ0dEC9TVRpy5UR8DIayXaSr0TKmkpQlyYOhpx/fr1vPvuuxw/frzFdZOSkhg3bhzvvvsu3377Lb///e8B3xQBdaYZcXnmzJlDeHg4t912mza7mTpqQM6L3cfWrVu1QrPtERiADpjKsC0GDRrEgAED0Ov1TJo0CZPJRN++fbULP/ViWk7cF9ZS0Rc/Pz/i4+O56667tD8adVSHGsAZPHgwAwcO1Ap7GY1G0tPTfS6Y1AuolsgXUMdrXGdg/vz5PP744/Tq1UtLJZDAQMdrPJVZY06nk169evHEE0/w1FNPsWzZsi5ZJPJqaBwcUC9+5CJIXIqOqDlwIVu2bGHQoEFNRugJ0ZEaFyF89tlnWbRo0UVz/zMzM1m2bBmDBg2SFIErJCcnh+zsbJ5//nn8/f0JCAjAarX6XOeJri8nJwegXQMD0AGzFajDZ1vDaDQ2KTR4scKDF9MZTvJXm16vb/HOvV6v98mnPL9KcXPvQWsrGasdUqkU3jl4vV7y8vJ4++23KS0t1dJJJDDQeZwfIGh84ZWRkcG7777Lhg0bmDhxohT4FKKLcjqd/PjHP8bpdGI2m5kwYQL/8z//c8EVHK+JAAAgAElEQVTrk4ceeoiXX36ZG264gWHDhvHMM88wefLkq9hqIZpSbzosXryYoqIisrKyLrpNVlZWq9YTl27RokXcd999jBo1SksnMJvNlzX9aFedvaonaM/AAFzl4EBbO4hnzpwhNzcXt9tNZGQkDoeD06dPExcXh6IoVFdXExYWRnx8PEFBQVeo1T1LTU0NBw4coKamhuTkZOx2O0ePHiU6OpqkpCT27t2L1Wpl5MiRMt1RF9F41MCDDz7Iyy+/rI32UIsPSmCg82gcIGg8zWF8fDz33HMPK1asYPz48VpHQt4zIbqWhoYGPvnkEz788EPsdjs///nPqaur49e//nWrtl+4cKFWgEp0rNZe156/Xmu+tzv7d7t6fsrNzeX3v/99i0UIxdWVlZXF0aNHWbx4MTabzacI4aWOpGscFPj222+prKykvr4ej8fT3s0XraTT6bTi/IGBgQQHB7dLYACucnDAYDBoowcuxm63U1RUxOnTp+nduzcOh4Pvv/8em83GN998g9vtJjQ0lJCQkDZ1Unti7rs6PLI1tm3bhtVqxWKx4HK5KCkpYf/+/ZSWluJ0Ojl48GCrZ3tQh/R6PJ5Of5Lr7jweDzk5ORQUFDBt2jTtS0UCA51T4wCB0WjUZjPIyMjgD3/4Axs3bpTRA0J0cT/84Q+JjIxk9+7dfP311wB8/vnnvPTSS1RUVJCZmcmTTz6JxWLx2e6TTz6hd+/eREZGsnr1av785z/jdrt57LHHqK6u5vDhw9p0b2+88QYOh4Of/vSnV/34upvzp6BVC+gpikJBQQH5+fnk5+cDaP8CFBYWNtlXYmKi9n91GH7jf9Wh9uPGjeuU0wk3HtW2YMECZs+eLekBncTixYt57rnntNkJGhchvFTq9bzRaMRsNuPv769d38vI4I6h1gvz9/cnKCio3QIDcJWDA2rhu4qKiotO1+N0OqmpqUFRFKKiotiyZQv19fUkJiZis9lQFAWLxYLdbufs2bNYrdYL7k+dT7WnpRWYzWbsdnuro3t5eXmMGjUKRVGoqKjgzJkz+Pv7k5KSQlhYGKmpqZw8ebJVdy0UReHkyZNERkZKtecO0niavKeffprHH38c+E+nUwIDnZf6vqjvlcfjIT4+nscff5ynn36azMxMyakX3cqAAQM4cuTIVXu+0NBQKioqrtrzNaehoYGvv/6aESNGcPjwYX70ox+xdOlS+vbty4MPPgjAs88+67PN1q1bmT59Onv37uX+++/nj3/8I8nJyXzzzTdMmjSJhx56iMcff5zAwECef/55fve733XEoXV5aqdHDQRkZ2drU8PBuQ7+2LFjgXMF9UaPHs2MGTNQFMWn89/4/6rGAYPCwkJ0Oh0FBQXa74sWLQLO1ZpITEwkMzNTCxo0Dhh01He/Ohpx2bJlbN26lS1btnRIO4SvcePGMXnyZEaOHKkFBxqnE1zO34vBYMBsNmOz2dDr9Tidzh55w7WjNS5e7efnh9Vq9UkdudzAAFzl4EBkZCRFRUUcO3bsosEBs9lMyP/H3puHR1Xe/f+vSTJrJpN9z0wWSAKy7yHIEhABQVGRzaoBBfWxC1a0VWsVcKHF+jylrUtbq+AG0kf9PoqApYRAQEBAZVGUPRskEJKQdWYyy++P/O7TM2ECIWSZhPO6rrkgs5xzn+1e3vfn875DQqioqCA/P5+qqipiYmKIjIwkKSmJ8vJyTp06RUVFRYsMeurq6iS163rCZDJRVVWF1Wpt0ffT09OpqamhvLxcCldJS0tj6NChANTW1nL48OEWiQ1ut5uvv/6aMWPGEBgYeE3HodB6hNeAiBoQ6q/iWOv7iMG/v7+/tKzayJEjWbt2Lbm5uYwfP/66EzwVui9Op5N33nmHfv36tfu+8vPzueeee9p9P5cjIyODsrIyhg0bxtNPP81bb71FVlYW9957LwCPPfYYr7322iXigGDz5s0MGjSI//qv/wJg0qRJQONg9OOPP6Zv376UlZUxbdq0jjmgboJIxVu1ahXbtm3jnXfekYSAG2+8kSeffJIbb7xR+p78JX4v35a3/ldUVJTU9kZHR0uG0KJT/8QTT0j/LywsZMeOHZJokJ+fz7hx46TZ+o4W+MWxOhwOli9frqQT+AhCuNqyZYu0dKEwIbyWvp48akCn06FSqdDpdFLUgBI50PHIJ480Gg1arRaNRtMmIhB0sDgQFxfHkSNHOHz4MDfeeONlO7VarZbExEQaGhqoqqpi/Pjxkhqr1Wqpq6uTlvmKjY294r5PnDgB0KLvthVlZWXY7XbpIRU5xFda0rGurk6aKXQ6neh0Ompra6UH0Wq1otVqpfB/eaiQfKYYGs0DjUYjJSUlVFVVXdGbYeTIkRw+fBi9Xi9FaTidTgIDAykrK+PixYuMGDHiiqkcbreb2tpaDh48yD333HPFyA6Ftqdp1MCcOXMAz6gBRRzwbUSjLBpmp9OJ2WyWvAfGjRsnNczKdVTo6rjdbtLS0hg4cGC77yswMLDTO7X/+7//S3p6ujRpUV1d7dFGGwwGHA5Hs7+/ePEiiYmJl7yfnZ3N+++/z4ABA5g5c6aH6bBC88hFgaVLl5KYmMjo0aOprq6W2lLhAWOz2Tx+09bIIwOio6O566678PPz44knnqC4uJgdO3awZMkS8vPzmTdvHs8991yHiQSiH7tgwQJSUlKUdAIfITs7m8WLF0tjDnk6QVvcFyJyQIgEijDQucj7h2ICqa3qgA4VB2JiYggODmbfvn1cvHjxijP+wcHBDBkyxOtnPXv2pGfPni3ar9PpZNu2bVRWVtK7d2/Ky8sJDQ1t10rU5XKxbds2tFotKSkpkjeCn58fVVVVOJ1OYmNjsVqt0moALpcLo9FIaWkparWa8vJy6urqSE5O5tixY9jtdurr63G73URERBAaGkpCQoLHrLzNZqO0tJSLFy+iUqmoqanBZDKxa9cuzGbzFWdktFpts+c8Ojq6xe7IdrudH374AZvNRkhIyDWvMqHQOkToX15eHp988olHJaLMOHcdhF+LPHpgxYoVUmdV8R5QUOh6JCQkeEQzDhw4kNdff52SkhIiIyNZs2YNI0eObPb3ffv25e9//ztlZWXodDq++OILZsyYwb333stzzz3HN998w0cffdQRh9LlEWK6mIjauHEj8fHxuFwurFbrJQMh+eDdm4t70/5l07+bRhc0968ol3w70dHRzJw5k9mzZ1NcXMzDDz9Mbm4ub731FikpKe3atxV9ii1btrBmzRpOnTrVbvu6Xjl9+jS5ubmcPn2apUuXMnbsWGnJuuaYN28e4eHhTJ8+HaPRiNFovGYTQjni92JiSREGfIPm6p9rpcNHbCkpKZSWlnLo0CEpV6u9KS8vp6amhsOHD1NYWMjIkSO58847pdn39sDtdrNnzx5++tOfEhUVxeeff8758+dJSEigqqqKyspKBgwYwPHjxwkJCQEaL2pGRgYXLlygurqaI0eOUFNTQ0NDA8XFxfj7+3Ps2DEWLlzI+fPnaWhouCS8/8KFC3z66afs27ePhoYGtm7dilarpW/fvmRlZeFwONp9oO52u6mpqeGLL77g4Ycfvu5SOXwF0akQjYrZbJaiBkRjocw2+z7iGsmjBywWC2azmdzcXCZMmKBEgCh0G66HDmdzHbnp06fz//7f/6NHjx7odDr69+/P3//+dwBphkj+/zvvvJM1a9ZgsVgICAjg0UcfZcaMGSQkJJCVlcWPP/7I6NGjO/bguiBiwDt//nzMZjN/+ctfcLlc2O12j8gscd7lHXJvL/H9poj3mt7jTcUA8beIUpCvWtM0OjQ6OppPP/2UFStWsGTJElatWtVu7YHchPCll17iueeek0wUFVqPEANEGgs0Rjmnp6czduzYK9aJubm5rF69mj/84Q8YDAYCAwOldIK2ihoAz3rreqinuwrt8ayr3B18hR0OBxs3buTNN9/ko48+6pAZ5d///vcEBgZyxx13EBAQwLp168jLyyMrK0vK1WtrnE4nixYtYujQoQwZMoSDBw8SHByM0WikpqYGgJKSErRaLaWlpej1embOnElERARVVVWsW7eOmpoaQkNDqaysZMSIEezcuZOLFy+SmppKZGQkRqORPn36EB4e7rFvm83GmjVr+Pjjj/H396d///5oNBrcbjeTJk1i2LBh7XLMArvdzqFDh5g3bx6HDh1q130peEc04g0NDdx///1kZGQwd+5cNBpNm6rJCh2DvFNms9mw2+2sWbOGXbt28dZbb11zTmFXRnTs7XY7VquV8PBwLly4gE6na9OQSoX2p0ePHrz//vtkZGS0+76OHTvGoEGDpPa4KSJ0uq6ujvLyclJSUtq0Q9zQ0NBsep7VaqWhoYGgoCCv32/626qqKvz9/T2iCG+77Tb69evHiy++2GZlVqlUnDx5krCwMAwGwzWtme4ryNtKvV7PhQsXpBROuSDQ9OVNDLiW2bumAoH8/0IYkKc2yFMcVCqVZBQtolHboz0QbdCzzz7L2rVrPVZkUGgZ8qiA3Nxctm3bRnx8PP369SMoKIi+ffvSt29f6dqVlpby0ksveV3xQjB27FjMZjOPPPII4eHhhIaGEhQUhEajuW77BQrXRodHDgQEBDBgwABuvfVW3n33XebPn9+u+zt16hQ1NTVkZGRIfgMLFy7k1ltvZefOndx1111MnjyZm2++GbPZ3KYKm3BCPnfuHHq9nqCgIEwmE2VlZVRWVpKUlMSxY8dITU2loaFBCg0OCgpCr9cTHh5OWFgY33zzDUlJSfz444+EhYUxe/Zsjh496hEF4HA4OH78OF988QXffvstEyZM4I033uDuu+9mzpw5xMfH88Ybb3D8+HH69u3brh4A+fn5rFmzhjfffLPd9qFwZVwuF06nkzVr1rB48WIppUCJGuh6iOslv4ajRo3i5ZdfljqJSpqIgkLX4XK+PTqd7pLlC+Xfb/rbpl5CJSUlbNiwgRUrVrRBSbs3QlwU3g7Lly/n8ccfx9/fX5p5bdpuirq2vZYYbJpy0PQl2naHw4HD4cDpdPLII48AjcJRe7TxYr/Hjx/n97//vWJC2ELkYsDWrVvZvn07cXFx9O7dm6ioKJYuXUq/fv08Uj7laZ86nY7CwkJyc3O9ejssWbKEY8eOsXTpUoxGI4GBgcoEkMI10ymJ4NHR0QwbNox3332XQ4cOeahkbYnD4WDlypVkZWXRt29fj4ctPj6eSZMmMWLECI4ePcrzzz9PWFgYGRkZjBo1iqioqGvat0ql4mc/+xlqtRqdTidV2BqNRgrDCggIYOjQoVKosFgeBGDatGlSBdG3b19CQ0OZPn265BKalpaGSqXi/PnzfPHFF+Tl5aHVapk4cSJTp05Fr9ezadMmfv3rX5OQkIDRaGTKlCls2rSJ//u//5PM6dqawsJCtm/fTnJycoeYSil4RzTk77zzDnPmzJFSChQTwq5L01kss9nskVqgGBMqKCgAREREUFBQQFxcXGcXxaeRD7YbGhqAxsmNO+64g6effprx48dfkobXXoKAHPl2mxMKRDuwY8cOXnrpJel7YtJI5IW3RRnlkWsPPfSQtEqCwqU0lyLQq1cvxo8fz6JFiy4xkROrRwUEBKBWq6V7TvhdDBo0qFlxYOnSpbz88svSsoVyE0IFhdbSKeKAMOm75ZZbWL58Oc8//zwWi+WKDvgtRVSey5YtIy0tjQEDBlxifqhWq4mIiCAsLIyQkBBiYmKorq7mu+++Y+XKlYSFhTF48GD69etHWFjYVc/KCdMYb7TEOVheXqPRCEBYWBjQ6KGwc+dODh48iMPhICEhgdtuu43Y2FhiYmKk740fP56wsDACAwNRqVSkpaVRWFjIoUOH2LRpE5MnT76qY7oSpaWl5OXlcfz4cX72s58pDsmdhLzDk5eXR2ZmptdwSIWuhXzWStRHs2fP5r333mPcuHFSR0NBwdfJz8/n3Xff5ZlnnvF4/3J109GjRzlz5gyZmZkcO3aM48ePM23aNP71r39RV1fH4MGDuXjxIp988gmlpaXExMSQlZXF4MGDPcLzrwcCAgIUYeAqEDPxAI8++ih79+7ld7/7HStWrODZZ58lOTmZ5OTkNjf9aglynwLxfzEL/fzzz+N2u5k1axa/+MUvSExMxOFweKQbtAUiuuLtt99mx44d5OXltcl2uzreogJEioCICujbt680KSMXA4QIIP9XvES6TkNDAzU1NUyaNMmr8ePYsWO5+eabycjIkMQBsZqA0s9TuBY6zULeaDQybNgwCgoK+OCDD+jXrx9ZWVkEBwdf03YdDgcnT57kgw8+wGAwMGHCBOLi4pod3Pv5+REREUFERAQ2m42YmBjOnDlDTU0NZ86c4dChQzidThITE0lJSSE9Pb1Dl+Vzu91UVlaSn5/PqVOnOHToEGFhYcTFxTFgwABMJhPx8fHExcVdUq6mRjFarZaMjAzcbjdff/015eXlTJ8+3SNPsbUcOHBAajBuvfVW4uPjr3mbCq1HhJrv2LHDa0qBQtdFLvKMHDmSl19+GafTKaUWKNdXwdcpLy/ns88+u0QcuBy1tbUUFRXx448/smvXLsrKypgyZQobNmxg6tSpABQVFZGWlsa0adOoqanBaDQqxlkKl6XpigAxMTHMmDGDMWPGsHv3bpYtW0ZeXh4Wi4Vx48aRnZ2NSqVi7Nixzda1ra2Dvd2rbrfbYxC6bds2Tp8+zZgxY3jyySeZOXMmVqsVu90OeJoYtgViWw6Hg+XLl1/X6QTy65CTk0NeXh6xsbH06dOH6OhorykC8qiApiJAU0FAbhgNjf5hbrebxMREPvjgA4+y5Obmsn37drZs2SItXShMCJV+gMK10mnigEqlwmg0MmvWLP71r3/xww8/UFlZybBhw+jZs2erZp1LSkr46quvOH78OOHh4UyaNImkpCQ0Gk2Lfq/VaklPTyc9PZ36+npOnz7NiRMnuHDhAhUVFXz99dccPHgQaFxaLC4uTpqtF6LGtTYKFRUVFBUVcf78eS5cuCAtXSgqfLPZTGRkJL169SIxMfGqoy1E6oS/vz8//PAD//znP0lLSyMzM7NV5T5//jwHDhzg0KFDqNVqMjIyGDx4cKu2pdA2yDs7hYWFWCwWD3FAoevSNHrAbDYDsH37dm666SaANp0xUlC4Vnbt2sX+/fs97snTp09z8uRJ/vrXv0q53gEBAVRWVja7neDgYHQ6HQcOHKC0tJSwsDDOnTtHeXk5FRUV1NTUYLVa+f777zl37hwGg4EePXpI4eIKCs3R1ATQ5XIRExPDzJkzmTt3LsXFxRQWFlJQUMCSJUuAxugXQAr1TkpKIjExkeTkZAASExOl7Xtz9Jeb+eXn53P69Gncbre0XbHK0Pbt27FYLIwZMwaLxcKTTz7JqFGjpDB/eaRA02NpC4QwsGDBAlJSUq6rdILLpQhMmDCBRx999IopAt5EAPGveHnzgxLtuM1mw2KxUFBQ4JFakJ2dzeLFiyVhQJ5OoLT/CtdKpy4+r1KpMBgM3H777WzdupUDBw6wbds2Tpw4QY8ePUhKSrrirLbD4eDs2bOcPHmSwsJCzpw5Q2xsLDNnzrzE0Odq0Ov19O7dm969e9PQ0MDp06cpKCggPz+furo6VCoVVquVgoICjEYjWq0WlUrlofpdDpfLJVUC8nw3m82GzWajqqoKh8OBSqXCZDJhNpuxWCykpqa2+pgE4eHhZGVlERcXR25uLjk5OdTU1BAWFkZ6enqLQjDPnTvHsWPHyM/Pp6SkhKioKDIzM0lJSbnm8im0Hrkw8OKLL5KZmYlKpVKMCLsJclNCcU3NZvMlztUKCr7Cl19+ybZt2xgyZIg0O1tRUYHT6eTcuXMe4kDTpXnlREVFERYWxr///W9MJhMpKSls2rSJ5ORkqqursVqtuFwu9Ho9wcHB2Gw2rFartH0FheaQt4tyjwGxakF0dDSxsbGMGDGCWbNm4efnR2FhISqVih07dgBQUFDA1q1bWbVqFfAf8UB81hSLxeLxd2JioiQoJCYm8vTTT+N2u1m/fv0lKxXYbDbgP5NKYpnbpsdyrYh0gi1btrBmzRqvoe3dheZSBPr27XtNKQJyUaCpECB/gee1c7lc0raSkpI8VhmbN28e4eHhTJ8+HaPRiNFoVEwIFdqUThUH5GRlZZGWlsaGDRv4/PPPMZvNZGRkEBwc3OyA2+FwUF9fz8mTJ/nqq6+wWq3MmDGDKVOmtGnZ1Go1qampHgNzq9XKd999R1FREWfOnKGiokL6rCUPpp+fn8dATvwdERFBbGwsgwcPxmw2t0nIvze0Wi39+vUjISGB9evX88YbbzBo0CAqKys9lkCR43Q6pTyoM2fOsH79evz9/Zk8eTJjx46VvA4UOhdxT+Xn5zN79mxpQKkIA90HeQdjzpw5fPDBBx6mhAoKvsKZM2cwGo1Mnz5dGqgfOnSIjRs3ctttt0nCuFqt5q9//Wuz97DoAJ8/f55evXqRkJDAn/70J37+859TVFQENNZ9/fv3Z+TIkXz77beXFRsUWkZubi5bt25l2bJlnV2UdkO+AoE8xBs8w+rl34+OjkalUnHXXXc1u6Sh+Ls5vJkNyv/vdrul0HL55/LoMdEOiPK11eBQbkL48MMP89xzz3mNgOiqeBMD2iNFQC7ki2sjv0bN+ViI74lt9u/fXxKeVq9ezSuvvILBYCAwMFBKJ1CiBhTaCp8RB6AxXGfgwIFUVVVRX1/P/v37qaiokAbI8opUzNwHBAQQGRlJSEgIhw8fpri4mGPHjhEZGUlwcHC7PSg6nY4hQ4YwZMgQ6T15mNfV4O/v3ynmfSqViuDgYG666Sb+/e9/k5KSwo4dO7Db7V7dTlUqFXa7nZqaGnr16oXBYKCuro5Tp04RERFBjx49CAkJwWAwdPixKDQin2HYuXMnjz/+uEejpND1abqs4ahRo/jDH/7gsaShcq0VfIm4uDiP1Ws0Gg19+vRhwIABHt+7UjtoNBpJS0ujf//+Uhs/bNgwHA4HRqORiIgIdDodGo2G0NBQHA5HmxkdXy8IMSAnJ4cdO3YwfPhwSWR5/fXXvbr2dwfkkQMajUaaiRez5yIy63I5/a1dyaCpSNBc+eRRgPKBoFwEa8vr4nQ6OX78OIWFhW22zc5CiAFvv/0227dvB65+FYHWpAi0dqULeRuvVquJj49n9erVnDp1invuuYeMjAwpnUBuQqig0Bb4lDhQXV3NF198QVpaGtOnT0er1eJ0Oj1m5eUIxQxg/fr1vPPOO+zatYtx48Yxd+5cpkyZ0qGDbrFUYUs9DnyBmpoaKXxqxowZ0rKLtbW1XkUOjUYjram8f/9+fvazn7Ft2za2b9/O6NGjmT59Oj179uzow1CQ4c1vwJc6c263m48++ogDBw5If8N/Gsthw4Zx6623+kx5fRH5zJHFYqGwsNAj71RBwZdoel8mJSVJudtyrlRP9e/fn/79+0t/r127FoDbbrsNgN69e0ufDR069KrKpNAoDGRlZfHQQw9x3333sXLlSvbv38+DDz7Iyy+/zLBhw7rt7KQ4JhGir1arPUK85S/5TH7TWX1oXd5/08iD5l5NZ6FFqo48NL0tEP2I2NhY3n33Xf70pz+xatUqVq1a5fO+A/KogNzcXLZt2yatIiCiAjoyRaC110Rc74CAAEaMGMGyZctoaGjg+eefx2g0EhgYqKQTKLQLPiUO5ObmYjabGTx4sDSo9/f3JyIi4oq/DQ0NJSMjg6CgIB588EH27NmjNP5XwO12U1ZWxrp161i3bp0UKaBWqwkJCbni74cMGcLgwYM5fPgws2bNYtasWcpSap2IvJOyfft2yW/Al5YwFB2Op556iuPHj3v9zowZM5g6dWqnNnbV1dX893//Nz179uTuu+/u9PMmp6kpoUqlIjMzUzIlFPeAL5VZ4fpFmGvJMZlMrTbBVWg/tm7dykMPPcSDDz4IIAkDy5cvZ/jw4eh0um4fviwf5DVNLZC/5GKsGKA3TQ0QXCnKQPzd3Ev+ube2XD4obQvkx+h0Ohk8eDBPPPEEu3fvJisri+zsbCnE3RfwliIQFxdH7969Jb+AzkwRaA1yMUitVpOcnExsbCzz5s3zakKooNCW+Iw4UFJSwpYtW7j99ttbZWqn1+vp168fsbGxvPHGG7z99tvtUMruxenTp1m3bh2zZs2SQuiulsTERIKCgigpKWHnzp2MHTu2jUupcDWIBj0vL0/qfPuCKAD/KVtDQ4PUWXr77bclYybR4MbHx0v+FtCxa0qLTlFRURFLlixhxIgRzJkzx+dU+aadx8zMTHbs2MH48eMVUVTBp/DV+9GXnmdfIScnh/vuuw/4jzDw0ksvMWLECIKCgqR11IU40J3Pobx+9TbQ97Y6QHP/Xmk/Tffp7f9Nvy/K1Z7XQJQhICAAi8VCSEgIvXv35i9/+QuJiYksXbqUefPmtdv+m6OrpQi0FrnvgFarZdOmTbjdbvR6vfQsinSC7vwsKnQ8PiMO/POf/2TQoEGkpKS0SgENDQ1l9OjRmEwm9u3bx759+xg0aJCiqDWDzWYjPz+fgoICFi1a1OrtDBkyhMjISPbu3ctXX31F3759CQ8Pb8OSKlwNYgBeUFDAyJEjfS5qwOl0YrfbpZkWi8VCUlKSR26dVqvFZrNht9sxGAyXlNvlcmG1Wj28LUQn7NSpUxgMBsksqunvbDabtIpJTU0NJSUl9OjRQ/quKKNIqRE+Ir4YticPMTWbzezatUtJLVBQUGg1O3bs8EgleOmllyRj6ODgYA9XdF+qC9ubpgNBb4Py5urdy9XHzZ1Db+935PmWRylotVoMBoPUJiYnJ/Piiy+yadMmfvOb37Bq1SqWLFnSbqkGzaUI9O3b9xLjQF9OEWgNcnFA9IWEOCBMCH2tX6LQPfAJcaC8vJy9e/eyYMECYmNjW7WNuLg4wsLCcLvdTJ48mVdeeYU335s6FXIAACAASURBVHyz3dz+uzonTpxg3759jBo16poMBIcOHYpOp5MM8Hbs2MH06dPbsKQKLUUeClhQUMCsWbO8qtydWT6n0ym5L0Pjqh92ux1/f3+pw+Xv78+MGTPYunUrH3zwAXPmzPHYzpgxY9i5cyd79uxh6NChOJ1Onn32WV577TWqqqoAiImJYcWKFdxzzz3S75566ilWrFjBxo0befXVV9m0aRMOhwOTycQf//hHsrOzcTqdTJo0ia1btwKwd+9eyddkxYoVLF682CfOJXjObFksFj788EOPsFdfKef1wCOPPHJdiTKhoaFMmjRJiRTrRuTm5jJ8+PBmhYGgoCAMBoMyIKHlg/eW1MO+eh5FxIBWq8Xtdnt4MdTW1jJt2jQGDBjA1q1byc7OZv78+V59RK6Wa0kRECkv8sG/MJfszBSBa0GIA3q9Xorw1Wg0HhE8CgptjU+IA+vWraNPnz4kJSW12kBQq9VKBobDhw/nr3/9K0ePHqV3797STKFCIw0NDZw+fZqzZ896DJ5aQ3BwMAC9evWioKCAH374gaKiIhISEtqiqApXiRgYFhQUeJgRQuc2cnLhwuFweIRdisZcruCPGzeOrVu38t577zFz5kxpqc9Tp06xc+dOgoODueGGG3A6ncybN48PPviAXr168Ytf/IK9e/eyefNm7rvvPvR6PXfccYfH2tDTpk3Dz8+PiRMnYrPZyMnJ4YEHHmDIkCGkpqYyfvx4VCoVOTk5BAcHk5WVhb+/P/369fOZ1QCaphVYLBYKCgo8IgcUgaDjeP311/mv//qvTll1piNRqVRUVlayf/9+YmNjFXGgG7F161acTqdXYcBkMhEYGNjt/Qbamq58nuSz1vLcdzEw1Wg0qNVqaeD+ySefXLNhoThf3lIE5OaB3lIERHm8pQf4QopAaxDlFJE68mshP5bOoKViuC+dT4WW0+nigMvl4ssvv2TRokVERUVd8/b8/f0JDw9n5syZ7Ny5k/j4eEUcaMK5c+e4ePEiffr0ISYmpk22qdPp6NOnDwUFBWzcuJGFCxe2yXYVWkZTs6SioiIsFsslanhnIwQCwbx589BoNFL5oqOj2bx5M3fccQdLlixh8+bNnD9/nvDwcNxuN+vWrQMa3cldLhd79uxhzZo1mM1mNmzYID3ra9eu5bHHHmP58uVMnTrVY51qvV7P+++/L7mZL1iwgI0bN/Lhhx/yxBNP8MADDzBs2DBycnJITExkxYoVkjOwfGk0XzinomNjNpspKipSIgc6kZdffvm6iFQrLCxsNzOyjoy+UJ4PT5YtWwbQrDAgjM+U83b9IBcImqb+iVdtbS0jRowgNjaWAwcOtNqw8PTp0wC89tprxMbGSgNg+eSBt/QA+dKTvpwi0FqEGCAiOcR7HR0RKp90WL16tRThAUi+D6LPKUTjefPmMXbs2C51vhUa6VRxoKGhge+//x69Xk9iYmKbDeLVajW33347ixYtYtq0aUpHuQlHjx6lpKSEqVOntul2ExMTSU9P57PPPlOiBzoJt9tNXl4eCQkJPicMwKWd/9DQUAIDA6VyhoeH43Q6CQ8PJyMjg127dvHRRx8xf/58XC6XhzhQX1/P5s2bcbvd3HnnndjtdqxWKwDDhw8H4Pvvv8dqtUpGiAC//OUvSU9Pp7q6GoCxY8eyceNGCgsLsVqtkt8B/MffQD4z4Wv1idyUMC8vj5tuuqmzi3RdYrfbrwtxQO4Z0h6cOHECo9HY7kJBQUFBi57jrjaYuBaEMGAymRRhQAH4zz0vH3SLAXrTKAKxXOCrr7561YaFSUlJjBkzhosXL5KamiptU972NvUJkKcHdIUUgdYijkf+d0chJhtyc3NZvXo177zzDqNHj2bMmDE8/fTTuN1uNmzYIEWsQqN3CcBzzz1Hfn4+48aNIzs7m3HjxvlMmqvC5Wl3ccDhcHjMtjmdTulBtlqtrFu3jtGjR18xHNPlcnHmzBlcLhfh4eHo9Xr8/Pyk7YuKAhpzdMLCwtBoNJw9e5aIiAgaGhqor6/HYDAQEBBAZWUlarWaiIgISktL8fPzIzw8XCpnd6WhoYGioiKqq6sll/i2IiAggOTkZJKTk9myZQvZ2dltun2FyyN3TRYKri82ivJyvvLKK/Tq1UtaIks803a7nWnTprFr1y7+93//l5/85CecOHGCAwcOEBsby8CBA6mvr+fo0aMArFy5kpUrV16yL6vVSllZmYehUkBAAHa7XUpVMBqNQKNBYUNDg9eBjy82aE1TC7y5ZysodBR2ux232+0RCXS1hIaG8tOf/rSNS9Y8kZGRl/1cXn/u3buXiooK6urqcDqdV70v8Vw6nU4aGhp444036N27N+PGjWs2XF+eitXQ0EB2djarV6+WBkhtJf7KTc+UiAGFpohr7y2KQAgEOp2Ompoa1Gr1JYaFq1atIikp6Yr7ycrKkpbkFcv0efMM6IopAtdKRx+LXBRYunQpbrebe+65h1dffRWn0ymlMLrdbmlSJjo6GoC77roLPz8/Zs+eTXFxMTt27GDJkiWoVCqee+45RSToArS7OHDq1Cnsdjsmkwk/Pz9qa2vR6XTExcVRV1fHV199xeOPP37FGRe73c6mTZuIjo6mf//+UmNaX19PbW0tBoOB8PBw7HY7Go0Gu93OzTffzL59+9BoNDgcDi5evEh8fDwqlYr9+/cTFhbGgAEDyMvLIzo6muHDh3cLcUAeuu3v7y8tC+fn50dRURH+/v4MHDiwXdItzGYzI0eOZM2aNdx9993d4nx2JdxuNzt27CAzM9OnzAibw+FwYLPZUKlUuFwuSeBzuVxMnDiRpUuXsmPHDoqLi/noo48AmDp1qtQ5FzP8o0ePZsiQIfj5+Xnk3UdFRaHRaDyWTwSkjo3L5ZLOj/idfH1rlUolzYyIjokvnU95x8hisUjLGSoodDTvv/8+VquVGTNmtDpFcNeuXT4lbMlzfoVru5+fH06n86rLKTrSYqAvwqEvl8svFwdEXScGTW0lDoiwZa1WS2BgoGQ+qAgDCk2R9ynkUQRCIJCnGsgNC8eOHdsiw8KkpCTefPNNTCYTQUFB0lJ9TXPsu2qKQFdB1Dvz589n27ZtPP3008yZM0eKpGzpBIRKpSI6OpqZM2cycuRIvvzyS5YsWUJSUhJvv/22z0W2KvyHdhcH1q9fD0B8fDwGg4Hz58+jUqm49dZbKSsrIz4+nqCgoCsuX+hwODhy5AiTJ09Gr9fzxRdfUFVVRVBQEDabDbVaTWxsLOXl5URERPDjjz9isVj4/PPPqa6uZsyYMfTo0YOAgAAKCwspKytDq9Wyd+9eLly4QP/+/T0c07syDoeDkpISyX+huroat9tNSEgIR44cwW63M2jQoHbZt1arJSwsDJVKxZEjR+jfv3+77EfhUuRmhCNHjuwS4gB4zs6JxiIgIACTycTYsWPZvHkzn3zyCZ9++inQaCgIjccbHx8PQI8ePZg3bx4BAQHS7JyYxRTimGjM/P39pWWARCSTHNHhgcZIJ9HhkXeUfeWcyq9xZmamNLjypQGWQvdDmGPJqaqqoq6u7pK2PCAgQIrauRK+KCaLgbPRaMTPz6/VaRVyccBut0vbFBGLYvDT9DciJUqIA+Hh4VKYdVt1rsUxGgwGAgMDJQFCEQYUvCFvq5tGEVyLYeG4cePw8/NDp9Oh1+vR6XQeokB3jQrwFUQdtXXrVila4ODBg9IS1KJfcbloDfEdUUe6XC6cTicxMTHcddddZGZmsnbtWlJSUsjJySE5Odmn+lQKjbS7OCBU74iICPr06UNhYSGnTp3CZrPx5Zdf0rdv3xbdFC6Xi/LycrZt28aAAQMICgqSOigxMTFUV1fz7bffkpqaypkzZ6irq2Pq1KmsWbOG06dPc9NNN3HmzBlOnDhBfX09Fy9eZPjw4YwaNYoDBw7wwQcfMHfuXNLS0tBoNO19WtqVc+fOsWzZMlJTUxk+fDhnz57lxIkT3HbbbZI4cKVwymshKiqKSZMm8cknnyjiQAchN6KDzjGsaQ1qtRqdTodOp5Nmw8Qx2O12pk6dyubNm/nTn/5EWVkZ6enppKamSgN6cX999tln3HvvvURFRUkzYSLcLTAw0EP0E7OAIqJILg6IRi8oKAhoNEkSM4feOii+QNNrrZgSKrQ35eXlbNq0iW+++UaKvjlw4AAOh4NDhw5JkYB+fn7k5eW1ub9NRyCPGtDpdKhUKnQ6nSQ8tiZyQB4FIMSBiIgIaSDuTRwQaQhitZXw8HC0Wm2brRwgjlMeIq6sSqBwJbxFEVyrYWFSUhJ+fn7s3r2bKVOmSNv0xXa3uyHqtJycHCZOnMjnn3/OyJEjJVFA9KuamjxeThwQL5GGIESCxYsXYzabGT9+PM8++yzz588HFMHHl2h3ccBkMpGZmUmfPn34+OOP2bNnDzfffDM1NTWcPHmS+++//4pRA9CobItUhLq6OkwmEwaDAZPJRFlZGTabjWHDhlFaWkqvXr3QarW4XC5Gjx6NwWDg0KFD1NXVkZycTGRkJPX19QwbNowzZ86we/duoqKiCAkJkWYMuzKiQ6FWq7FYLAwYMIBNmzZJERahoaFXlVJw9OhRtmzZQkxMDGPHjiUsLAxoTBnx8/MjOjraY3shISH06dOH559/noceeoh//etf+Pn5MWzYME6cOMGpU6fo3bs30dHRfP3115KYoHBtNO2wNs1J9xXk5Vm6dCkmk8mjAzBkyBAWL16MWq1m7Nix0jMOjSkFogPidrvJzMxkxIgR7Nmzh9mzZzNlyhSio6MpLi4mNzeXwYMH87e//U2KHhD7F50ObwNolUpFZGQkISEhVFZWctttt5Gamsqtt97KT37yk449WZehueurRA50HRwOB1999RV5eXlYLBYmT55MSEjIZZ/XsrIyjh07xsiRIy+77T179lBTU0N8fDxxcXGYTKY2K3dAQABRUVGkpaXhcrnw9/enuLiYhoYGUlJSpCVuAeLi4sjIyGizfXc0YlZdiAStfb6aRgFoNBr0ej0hISEeaQJNfyPEAZHXGxISInm0tJU4II7TF5ZIU+hayEX3tjAsTEpKYt26dUyePFnavnIvti/ehIERI0bQ0NDg0V8S17Zp1IC3dChR3wlB1Ol0Si+Hw8HMmTMxm8088sgjUmQ3KAKBr9DuI+E77rhDMvwaO3Ys/fr1Izg4mHPnznH8+HFSU1NbtB29Xs8vf/lLqVEUKpRarZZcyIXBWEBAAOnp6fj5+TF06FC++uorBg4cKEUpiEGBWq0mKiqKuXPn4nQ6pbDBro5GoyElJYWHHnoIl8vFa6+9RnJyMqWlpQQFBREXF3dV2xMmbQkJCZSXl7Nq1SrJrAjAaDRK4aA2m42zZ8+SlpZGnz59ePzxx1myZAn19fUEBgZit9uprKykoKCAqqoqAHr16tW2J+A6Q95RFWkFs2fP9ulKNj4+nvz8fPbt23fJZ03zfCdPnsy6devQaDRMmTJFynF0uVyo1Wr+53/+h5UrV/Lpp5/y7rvvSttJSUlh+vTpUjSCEP5EOK5o4MS9K9YSFnXE008/zbPPPsu3337Lt99+y4QJE3x2Rl6lalzOsKCg4JL7wdfKqtCI3W7nyJEjfP/991RVVVFdXY3T6aSoqIjvvvuOyMhIevXqxblz5zh27BhqtZro6GjOnDnDunXrqKurIyEhgdLSUqktO3z4MD169KBnz54cOHCAc+fOMXjwYEwmE9XV1Rw8eJDg4GD69+9PQUEBlZWVZGZmXnXZAwMDGTVqFA8//LDUDldXV1NfX88999xzSRtzJcNhX0U+8BH9htYKb6KzLB9EaTQadDqdJD40Jw7Io5vkkVZtNbsvF06VwZjC1SLul7YwLJw3b54k6Csid/sjN0pdtmwZ69evZ/jw4TidTg+xR24GKfd8uNx2/f39JfFYiAJyoWDEiBH8+te/5qabbmLLli2kpKRccbsKHUO7iwMi/xwaFe+goCAcDgdFRUVS6G5L8PPzIyIiwutn3joe4r24uDjKy8s9QoXliNzm7kRwcDB33nknBoOBhoYGaTWII0eO4O/vf9WrFIiQIDEgi42NxWq14u/vT0REBKdOnZLedzgcaDQabrjhBkaPHi3lLZWUlFBRUUF5eTlJSUkMHToUnU5HQUEBOTk53H333V22A+kLXC5qwJcQZfrHP/6BzWYjICAAvV4vzSyIBgiQGqRf//rXPPjgg+j1eoKDgz2WFHQ4HAQHB/P000/z29/+lrKyMux2O7GxsYSHh0sDfj8/P5544gkefvhhjzpJpVIxbtw4vv76a4xGo/RdPz8/pk6dysSJEzl//jwxMTEkJiZ6rLziK+f2ctEDvlLG64Gr7cjW1NSwYcMGRowYwYIFC3C73TQ0NLBt2zZyc3OJjo4mKCiIr7/+mi1bthAWFkZSUhI6nY7vvvuO3NxcLBYLp0+fJjo6Gq1Wy759++jVq5c0cy8EsIqKCk6ePElubi4RERFSLumFCxdaJQ74+fmh1+s9jITT0tKwWq1ERER0qzZVXldcy2BFPI+isywXIuUz9k1/A/+Z1Zf/Xx5y3RYodYXCteIt1eBqDQvHjRvHs88+i8PhkEyClXuz/RDCwIQJE0hISGDEiBHSwL7pKhHyfsaVron8e6JPJeqshoYGadJx5syZFBQUcP/997NlyxYlnclHaPdpcnl4mlDKAerr64mJiWnv3UuGfLW1te2+L19Bo9FIERkBAQEMGDCAtLQ0qqur0Wq1Vx05oNFo8PPzo6CgAKfTSc+ePUlKSiItLQ2n00l8fDwRERGoVI3OpCkpKURFRZGVlYVarebAgQNcuHABg8FAcnIy/fr1w2w243Q6uXDhghQNonDtiMiBtl6msi1ompuoUqlwOp3YbDasViv19fVYrVYpEkhEDmi1WkJCQjAYDB4dDDEbIWbdVCoVMTExJCcnExgYKIla8J8ZjeDg4Evy5vz9/SXRQTSColFUq9WYzWaCg4OlxszXZzN8vXytoamnRndAiOTCHFalUmGz2Th+/DiPPvooUVFRFBYWYrfbmThxInPmzEGn0zF48GBmzJjB008/jdPp5JZbbmHBggX8+OOP/OEPf8DhcHD+/HlpRQ8/Pz++/vprKioqeOGFF7jrrrvYunUrWq2WiRMntrr8Ta/FzJkzuffeewkPD2/9SfFxmobSXsurNdtr6zL4qoh8ObpjXdDdaBr9J1KAQ0NDCQsLIywsjJCQEFJSUvjJT37CwoUL+eyzz0hKSiI3N5fCwkK2b9/usVyeQtsjoplycnI4ffo0f/rTn3C5XB4eJPJlU+XipdxToOmrqf+Vt3QTMa5wu93Mnj1bKkdX6GNdD3RKgr0wBExISGj3fYnQO9Gx7w5pA1dCHiqtUqkwGAxAYxhrQEDAFZeNbEpMTAyjRo2S8kyjo6NxOBzo9XrJ+0EogYGBgVJlEBsbS2pqKiaTiZiYGBISEiQHea1WS1BQED179mzRahUKXRv5bIIwIRQNk+iYyhsU0RDp9XopBcjf318SCMT9LX7j7++Pw+GQZhnk+5OH64qwXrE9aIwyEvuTh+qKZQ3l5fdlLBYLBQUFnV2MNkVc35UrV1JRUcGiRYsIDQ31yetxteURIu6ePXu46aabpHtOrVZjt9ul+1fc7+JZsdvtOBwOrFYrKpWK4OBgXC4XWq1WiujyVhan00lNTQ1RUVHce++95OTktLkPgYJCeyHqgmeeeYbw8HAeeughDAaDT9YFCldvWBgXF8d3330nmdPt3LmTm2++WRkothOi/+V0OnnhhRf485//7CEMiJfcX0D8Zvfu3fzwww9er40Yf8yZMwe1Wn1JpEHT9slutxMfH8+vfvUrFi5cyLFjx6R7RnmuO49Oac2rq6s5e/YsN9xwQ4fsLzIyEofDIeW9X48IUyMxWLoaQkJCGDhwoNfPLpcaolI1Lq8mPBCE94QgMjKyXVdNuN5oLrXAVxAhtMK8Ugx4xCBcpVJJIYiiURGdCr1eLw3exQy/2KZozBoaGjzEBXlInPAcEPvy5jsg9i/2KfYnFxR8scFqLqXAG12poyXPhbxw4QIvvvgiK1eu5Oc//zmLFi0iLCysS4uKwcHB3Hfffbz++ussWLCA4cOH84c//AGz2cyiRYvo27cv48aNo6ysTMq/FcaaR48eZc6cOdx11124XC6MRiPp6encdttt3HLLLVK9KkTbUaNGcejQIWbPnk1gYCDZ2dnSLI9C96crPffekNcFxcXFLF++nJdffpnFixfz0EMPERgY6JN1s0LLDQu1Wi2JiYkMGzaMuXPnUlBQoMwityNioL969Wrcbre0/LW83+RNGHA4HEyfPp0LFy5cdvu9e/dm0KBBHmKAvK8in+Cx2+1kZGRgsVhYtmwZS5Ys8bn+6/VGp4gDdXV1XLhwgaysrA7ZX3BwME6nU1rW7HpE5Gd35MOmUjU6z3///fekp6dfIg4odAy+VMGK2XoxIyofnMjFANEoiY6EmDVtmpsrGhDxHbE98V15KJw8D79pdIA84kA+yyHKKO/U+FKjdaVydNUQXPlgwG63S6kmVVVVvPjii/z5z3+WRILQ0NAud3zQeO1CQkKYP38+t9xyC4GBgcTHxxMWFka/fv0IDAwkKipK8trRaDQkJSVhMBh45plnpPx+0abddtttDBs2jNDQUCIjI7nrrrtwOBwYDAb0ej1hYWGkpaVJXjEul+u6bQ+7O131ufdG07rA4XAAUFpayq9+9SteeeUVRSTwccT1uJxhYW1tLVarFaPRyLfffktwcLDHfaxc07ZD/ky9++67zJkz5xJhoKnHgPi+zWajvr4eaDSK1+v1gGdfRKfTERYWJpkaNv1cHtUpFx1mz57NunXrpN8p173z6BRxQK5EdQTy3BeFjkOlUpGcnExubq60DJOCd5rO+F8LRUVFWCwWn7vf5TMIzTl/N82BFSkD8mdY/rlcRGia53a5Qbw3JVv+vui8yDsmvpyfq1KpsFgsFBUVSe+Jsi9dupQXXnihE0vX9jQVCX76058SFBTU5QZDfn5+xMXFefjACI8N+d8CMZhP+v+dveWIXF5B06gsjUbjsV2F7onobC9ZsqTbPffeaCoSPPzww1J6oy/W1dcz3lIN5IaFwnNIDByV69d+iJSCHTt28PHHH0vn3JswAP8RB+R9+SVLlnDTTTd5eDip1WrJrLY5Q0l5ioGIzHS5XGRmZvLyyy9LK7R05cjAro5y5hXaDZVKRWpqKkeOHMFms3V2cXwS0ZH7v//7Px555BEplK414XTNDbZ9CXnHQD5DL48IkIeyyRsd+Wfy7cm35W3Jnea24W0f3t6XRzL42vlsDnFfNTQ0SDNt3REhEmRkZHDy5MkuJw5A1w/5VvAdrpfn3htCJLjxxhs5d+6c8lz5MPKZY7lhYXBwsLSqmV6v97lIve6CqCdeeOEF5syZAyD1n5oTBoQ4IKL4AA/T2+b6cc0h9iHfr8ViwWw2s23bNsWMspNRxAGFdqe9H3B56FlXewn1tra2ljfeeIP09PRWiQTy7yQkJFBQUODzDWrT2fgrzfS3pKFp6xl+X48YgEsFIHFfiUGCvDHvbhiNRhYtWsS//vUvYmNjOzWH/nLPaXN1oMPhYPfu3ZfdbnFxMfn5+VRUVFBcXEx1dfU1lxUaO3ZVVVVehdvCwkLKysq8Rnw5nU7Ji0PBt5CLA935ufdGREQEzzzzDBs2bMBkMin56j6OPHpAo9Gg0+kwGo3SS6/XSykICm2HvH+Qn58veQ3IB/bN9XXEbwXCQ8poNBIUFERQUBBGoxGDwSCZPl+pXyef2PHz82POnDm89957HqtNKXQ8ir2wQrtjNBopLS0lMTFRWjnhWugO+ZRyccBut0sddJvNxl//+ldWrVpFdnY2Tz75pJQi4MsDVIXORaVSUVBQ4LECjNPpxOFw8POf/5zs7Gzq6uok08au8OzIn4/Vq1ezZs0a6TODwcCdd97JvffeS3x8PDqdrtMHA5d7NquqqnA4HJcs8yee98DAQEJCQoiLi+PcuXNUVFQQGhqKyWRiw4YN1NbW0rt3b77//nsGDBjAoEGDcDgclJSUEB0dTVRUFCdPnsRut+N2u7FYLOj1esrLy9FoNJhMJiln2+12SyvM/PDDD8TFxWG1WiV/gpiYGPLy8qirq2P8+PGkpKR4lNnf3x+73X5ZM1qFzkPk73bV594bcs+BV155hX//+9/SZyEhIcyePZu5c+cSHR2Nn5+fZOCp5Cz7PvJ0Q3keuhg4Kv2etkc8T/n5+cyaNeuSCMnmftO0/ggICJA8bcTShOIaypesvhxNvabMZjNr1671iBxQrn/Ho4gDCu1Ojx49JGf6a+V6yae02Wz87W9/Y/Xq1WRnZ/PUU09hNpsVsyWFFuMtv7MrOdSLjoh85shgMDB16lRuv/12IiMjCQoK8uhE+hpiQJOTk0N5eTmzZ8+WVt+AxmOsqqpi/vz53HjjjfzmN79h9erVfPLJJ0yZMoUbb7yR3bt3s2fPHsxmMxcvXiQ3N5fs7GyKi4v529/+xsKFC/nFL37Bb37zG8rKyrDZbPzud7+jV69erF+/nsTERLKysqirqyM/Px+3202/fv2w2WwcOHAAPz8/nn/+eaxWKz169ODXv/41Bw4cYNOmTQQHB18iDij4Nl39ufeGGCTI64KQkBCmT5/OtGnTCA0NRa/XKyJ6F0Xu9dPcZwptg3xiqrCwEIvF0qI0AG+8+eabbNq0Ca1WS1JSEikpKdx+++3Ex8dfMWpAjry+slgsFBYWSnWWMLFW6FgUcUCh3Wmr9a+vx3xKIRKsWbOGzz//nMzMTK+VuPxvUbmmpaV1dHEVOhHR0AtUKpVkDuR2u1Gr1V0qVM/tblxhxWq1EhYWxt13382tt95KcHAwOp2OwMBAKQRVq9VKgyBf4vjx46xcuZKPP/4YgDfeeIMZM2bw5JNPz4gGFQAAIABJREFUAo3XyOl0sn//ft58802OHTvGwoULeeSRR3jvvfcIDAxk6tSpTJ48mT59+nDw4EH69++P0+nk4MGDbNmyhT/+8Y9UVFRgMBhYtWoVJ06c4MKFC3z44YekpKQwYMAAoHHZ2b59+3rM/ggDqcDAQN5//31ee+01bDYbmZmZTJgwgcGDBzd7bE1nkURUgkajUTr0nUhXf+69IaIhrFYrUVFRLFiwgMmTJ0uzlqIuCAwMRKvVeizDptB1UK5X+9I0rbWwsNBj0qkl6Zvyf48cOcKRI0c8vvPb3/6Wxx57jGeeeeaS7ze3TbnHk0ql8pqCq9wbHYsiDih0CG3xYF+P+ZQajYaZM2fy+OOP07NnT2lJP2/n09v7bR1G6na7ycvL4+uvv+bAgQPU1taSkJDA6NGjmTZtmuIw3Al4C/drGiYYEBCAw+HoUqHFYkBQX1/PAw88gNVqxeVySQMfg8GAwWBAp9NJoah2u73TyuvtvKakpLB8+XJuvPFG6uvrufXWWz1WH5BfD1H+N954gzvuuANAcm2Gxudbp9NJ11Sn0xEVFcWvfvUrycQrICCAESNG8NZbb3H48GF69epFaGiotP2mJlNiuSi5+ZeYsRGDy6Y4nU6vkWB///vfcTgczJw502P1BYWOQ3Sy1Wo1BoOhSz733hDtfn19PYsXL8ZqtUpClBAHxLJqQhxQIggUFLwjrw9aGm0jH8T//Oc/p7i4GJPJhEajoby8nG+++YaDBw9SW1vL888/T3R0NAsXLpQmB1saQWA2mykqKurS9VV3oFPEgY5WgsR+rvebrTscf3fLpxTurzk5Ofz+97+X3ler1UyaNIn777+fnj17EhISgsPhkExeWkJbng+3201RURELFy7kiy++uOTz//mf/8FsNrN161ZSUlK6RafM7XazYcMG9uzZw4MPPkh8fLzPHpf8WssbcflgobNz8q8WYdap1WrRaDTSwF+tVqPT6dDpdGg0GqnzIZbA8iXUajXBwcHEx8dz4cIFoqKiPD5XqVSYTCYWLlxIfHw8kydPZtu2bbz11ltUVVXRr18/9Ho969ev58yZM0RGRvL6668zefJkIiIiuPfee7FYLLz44otSzqdWq0Wv12M2m4mKipLu2crKSn788UfcbjcjR46UZmrcbjdGo1ESHNxuN3369GHVqlVYrVYmTpzoUWbhOSCWHhNrUpeXl1NXV0dNTQ21tbWXnAeNRtO+J1vhkjztrvjcN0W07Q6HA61Wi1arleoCYWQnrwtEOLOv1QUKCr6CeKYyMzMpLCwkNTW1RYbQwk/g/vvvp66uDqfT6fGbL774gqeeegqAZ555hvvuu0+anLgSYjuFhYUkJCR02T59d6FTxAGtVovJZKK0tLRD8hlra2uJjIy8rjsn4gHtrIetrfbbnfIpxTmRV7BqtZqsrCxmzZpFQkICQUFBLQ75EpjNZgoKCjz2cy2DWhF+NnDgQCoqKkhKSuKxxx5j4MCB6PV6Tpw4wT//+U8++eQT9u3bR1JSUpcP6RQN07vvvsuHH35IRkaGNBvqS8clf64KCgowm83S3+J+6cznvrXInw1/f3/UajUOh0M6HrVaLTlZi9luXx4MpKene3X+12q1LFy4kAsXLmA2m4mOjub222+nrKwMlUpFWlqatA60yWQiLCyMkJAQ0tLSSE1NJSgoiNDQUNxuNzNnziQoKAi73c7Fixfp27evx/2g0+mIj4+Xzq1eryczM5OwsDDmzp1LQEAAEyZMIDY2Fq1Wy5QpU4iPj/d6PBcvXiQnJ0fyMFCpVOzfv5+GhgZKSkowGo3Sd+vq6rj55puZPXt2G59VBW/IDd662nPvDVEXC2Fco9HgcDikgYparb5kCTZfqqMVWoe4d0+fPk1SUpJyTdsJIQ5cCbGigVarJTAwEH9/fykqSZgf33TTTWzYsIG8vDwqKys5fvw4vXv3vqIxofyzpumRCp1Dp4gDJpOJ2NhYvv/+e0aOHNnu+zt37hw9e/aUTKCuR0RDKmbjuqrJR3fKpxSVqs1mIygoiGnTpnHnnXcSFRXlkVMdGBiITqe74rI+7dEpEmX85S9/SUVFBSNHjuTNN9/EYDBIjXdkZCSjRo3iscceIyEh4RI1GeDUqVMYDAaio6Mv+czlcmGz2dDpdADU1NRQUlJCjx49mj1et9tNTU0NRUVFkuFl0+3abDbJMffs2bNcvHiRtLQ0j20WFRVRUVFBbGwsERERHmVyOBzSfeVwOC4J8ZaXpbS0lJqaGilqoqVlaY/nUL7/rtxZFoPOpgKHEAXlx+ULg6DLneOYmBiv7wcEBDB27FiP9wYOHHjJ9+Rh+nJBvWfPntL/hw0bBjTm/vfr14+ePXtiMpmkz0U0gUCtVkudQrGKwg033CB9Pnr06GaPx9/fH5PJRExMjJSeIISJyMhIgoODgcZr9dlnnxEWFqaIAx1IS3J9uxLiHhPtv3je5alTXbWeU/BEiEGnTp3i/vvvZ/v27Rw/fpzk5GTlGrcxTSeSLocQB0Rqm1arlfreDodDWnErOTmZvLw8AEpKSkhNTb2qNJ+dO3d6tFMKnUOniAMGg4Hw8HD27dvX7vtyOp1YrVZJXe6uOJ1OaVAmz/u2Wq2Sqi6W+6qrq8NgMEgzUuK3Go1GGgyKDnhbIUxGRGUiGnQx4GrJrF93y6eUG65NnTqVrKwsnE4nAQEBUk61yKXUarUeM6WXQ1T413pehMfD3r17+fjjj/H392fp0qUEBARIDYGo8P39/aWlKsX943a7efbZZ3nttdeoqqoCGgdJK1as4J577pH289RTT7FixQo2btzIq6++yqZNm3A4HJhMJv74xz8yb948j3J98803LFy4kG+++UYSiCZPnszf//53KWy7traW4OBgbrnlFtLT0/nv//5v3G43jz/+OC+++CLLli3jH//4ByUlJdJ2MzIyeOutt0hLS2P79u1MmDBBOn/Tp09HpVIRFBREeXk5fn5+uFwuXnrpJf7yl79w7tw5oHF2dvr06bz66quEhYVdsSwrVqyQzuO1XCe3231J5EBXR5wTIarII2B8TRgA3ymHRqNh/Pjx7bZ9p9NJWFgYEydOZNGiRdL7Wq0Wh8PB3LlzPe7DsrKyLineKvgOLa0LFLo2os/x9ttvs3DhQhITEwGIj49XnOvbgczMTHbu3El2dnaL0r3FJKOfn580XhDigEhhKi0tlb6fkJDQorSmphGQmZmZ135wCtdEp4yWAwIC0Ol0lJWVtfu+ysvLCQ4ORqvV4na7pTwZcWPbbDZMJpNPh6ReCZfLxcWLF6msrMRoNGIymaSQnzNnzuDv74/RaCQoKAiXy8WPP/4oOZTq9XoqKytxu90EBQVRV1cn5cHq9fo2OS9CDHC5XJSXl1NdXU1QUBBarZba2lr8/f0vycX1RnfLp5TnUWo0GkmwaZpTLcIpW7Lmr0qlwmKx8OWXX7ZZ+fbu3QvAmDFjpEZaHsYp9it3mXW5XMyfP58PPviAXr168Ytf/IK9e/eyefNm7rvvPvR6PXfccYcUNQAwbdo0/Pz8mDhxIjabjZycHB544AGGDh1Knz59APjuu+8YOXIkDoeD++67j7CwMNauXctnn33GpEmT2LdvHyqVCrvdjsvlYv369axfv57U1FQiIyPR6XR89dVXvPjii/Ts2ZNFixZhNBr57LPP2L17N/fffz9bt24lKiqKO+64g127dnH27FmGDx9OfHw8ERERUkjr/fffz3vvvUdYWBj33XcfAQEBbNq0iQ8//JDvvvuO/fv3S/nZ3sqi1+slIaUtOreFhYVkZmZ2q46y0vH3Pfz9/b36O5jNZqxW6zVF6IkVD9obITIrdB2UuqD7IvoNOTk5LFu2DJVKxdatW8nNzWXz5s3YbDYPHwnlPrg2xLM0atQoXn755auqc8V1EBNA0FifOp1OSkpK2LlzJ9A4ERQUFNTibYt7YO3atTz++OPK897JtJs4IAZtTcO9RGdYp9NRVFQE/EctBKRBpAgjE5+31mCmtLQUk8lESEgIVVVVHDp0iMrKSlJSUnC73Rw9epQJEyZI62V3Rex2O3l5eRw6dIjhw4dLYdZnz54lNDSUzZs3o9FoCA4Opri4mMOHDxMVFUWvXr0wGAxs2rSJG264gYaGBo4ePUqPHj0YOXIkycnJHs7arUVUHHa7nY0bN/Ltt9/Sr18/0tLSOHr0KOXl5SxevLhF2+ou+ZSi7AEBAVLepFieUeRYX40oAJc2mNcSOSBXhA8fPgwghfVpNBr8/f157bXXPLbv5+fHww8/jE6nY//+/axZswaz2cyGDRuklIG1a9fy2GOPsXz5cqZOnSoJENAY9vz+++8zdOhQABYsWMDGjRtZt24dv/3tb4HGKAO73c7y5cuZN28ebrebxYsXM3r0aA4cOMCnn37KlClTJMEBGkWN9957T1rurr6+nrVr10qRGm63m+zsbAYPHszu3bupqKggOjqaV155hUceeYSzZ8/ywAMPcPPNN2M0GrHb7Rw6dIj3338fk8nEhg0bsFgsuN1uHn30UaZMmcLhw4d59913ufvuu72WRQg/QnG/Fl8Ib9e5Peuylt5TXbU+VWgdM2fOvOZtnDhxokNWnDAYDC3Ks1VQUGg/RFvicrlYsmQJL7zwAs899xxLliwB4O2332bYsGHY7XYp+ldpV1qPfDymUjWuDGCxWMjLy5MiJb31ReSTPhMmTECn0/HAAw8wevRoQkNDqaioYOPGjSxbtoyamhoAFi5c2KKJD/m2t2/fTmZmJhaLRUkX6mTaTRzYuHEjxcXFmM1mRowYIYXYCsfkkydP0qtXL4qLi6mrq2P79u0EBAQwePBgTpw4wcmTJ0lPT+f/Y+/L46K6zvefGWBWdpBhmwVQ4r5G2VRA1Khp1ZggJDUFUZul+bVfjZrWNApYYxKTNtGkSdNvFTW2ms1oamJjBBQQjUZcMCqKDIOgrIIss8/9/cH3nNwZBhhGNnWez2c+wHDnzLn3nnvOeZ/3ed/X19cXly9fhlwuR3x8fI/7UVRUBLlcDolEgsrKSmg0Gmg0Gnz//fdYsGABwsPDsXPnTqxYsYIaMPcjDAYDWlpaaGKQt99+G7/+9a9x/vx5CAQCjBkzBhKJBNu2bYPBYEB8fDzq6upQVlYGLpeL+vp6TJw4EWKxGDU1Nairq0NwcHCvkAMExKPr7OyMwMBAjB49Gh4eHjh37lyP22H/7Av0hwHEJr1IPggAlJXtCSnAviYxMTF46623eiWkwGAwUOm9q6srzffQ3NxMJfFsjBs3Dr/85S9x5MgRMAyDRYsWQafT0WRsU6ZMAQD89NNPtDQdKUu5cuVKPPLII2hubgYAxMbG4ttvv4VKpaIGdk5ODlxcXLBgwQKqeOFwOJg+fTrKyspw7tw5zJgxg36fWCzG5s2baVZ1QrjExMRQFZHRaAQAKBQKFBcXQ6VSITg4GFqtlt4TnU4HrVZLvY1ff/01PT9fX1+0tLSAYRgIBAIsXrwYf/3rX5GXl4cnn3zSal9Iv4kC414VOgzDID8/H2vWrOl1uS0ZRwzDQKlUYufOnVAqlfSlUqloAiGFQgGFQgEASE1NRWxs7AMX/+xA393LJUuWgGEYiESiPmkfaM9pMmTIEBw5cqTPvuNhgIMkdOBewFYLLFu2DCEhISgrK6PrBwDk5uZi+/btlMR3oHfAVuEmJSVh8+bN3Yaikb1aU1MTjh8/ju+++w4AaHgvG3PnzkVSUhINQbCVINi8eTOSkpIcpMAgQJ+RAxUVFfDx8YGvry9OnjyJmpoahIaGgsfj4cSJE7h9+zb1WtfW1iIxMZHGqmi1Wty5cwfXr19Ha2sreDye3dkr8/LykJiYCHd3d9TW1qKyshIcDgfx8fEQCAQ4evQoFi5ceF9XMiBx10T9UFtbi5CQEJSUlEAgEMDV1RVlZWWQSCRwd3fHqVOnkJeXBz8/P7S0tMDb2xvLli0Dl8tFfn4+mpqaUF9fT8MU7hVkcmAYBv7+/hg6dCgmTJiAoqIifP/99x1KZQ0E2AYQMX5yc3MBAMePHwcAyGQycDgcmkDsXo0f9gRIJFr3YthZm1DJpGuPZ5qQAyR+WKVSUUWDRCLByZMnqaH76quv4sSJE7Q0Y0lJCQDgvffew3vvvdehbY1Gg7q6OohEIrqwODs7Q6fTmZVXA9o38xqNBrdv30ZbWxsA88RpbFRXV0Oj0UCtVgNoT34qEomg1+tprKrJZEJZWRl27NiBoqIi1NTUoK2tjeZF0Gq1NJdFZ9fk+vXrANoTwul0OnptTSYT3dyoVCqo1eoOfTEYDL0y37DvLdCeXJGM0d4kBcrKypCVlYWNGzdCJpNh+vTpmDZtGp555hnqeSBJjSoqKlBeXg4A2LBhA8rLyxEXF4fU1FTExcUBcBgL9ztIXpS+yCPQ1NSEN99802pSxt4Ah8NBXl4ePvrooz5p/0HGQKyRDjx4sJZwcMeOHR1yCxHimSRzdYyh3gF7z8nlchETE4N9+/YhNzcXM2fOtLp/IPsmvV6PdevW4d1338WZM2eg1+vNFK9Dhw7Fc889R+0rUl60K4KAtJ2bmwuVSoXk5GSrSYcd6F/0GTlgMBggkUjg6+sLk8mE4uJi+Pj4QC6X00E0fvx4/Pvf/4aHhwd4PB5qa2uhVqvBMAwmTJiAMWPGgMfjoaamBt999x1eeOGFHvVBp9PBaDTC09OTJnSTyWTw9/eHq6srjh07hpqaGpqt/H7NO8Dn8zFx4kRIpVK4u7tDLBZDoVBAr9eDz+fD2dkZLS0ttASWi4sLxo4dC4lEAqFQCJ1OR+NEhw8fjuDgYFo2qzdw4cIFJCQkwNXVFREREXBxcYGrqyvCw8MhEolsyjfQVyALVW5uLnbu3Ildu3Zh2rRpmD59OtatWweGaa91TxK+AUB+fj4Ac+MnJSUFcXFx92TU3yvYUjEAKC8vt1s6y5Z6kezoRUVFAH4O/QkJCYFOp4Ner6eGPFEJEE//tGnTMGnSJLNwIQDw8/MDj8eDXq83M8JJSIXJZDIzuLVaLZWrubi44MUXXzQrY8cwDJycnPD444/TPpHzIMlzyBxw48YNLFy4EA0NDRg3bhxiY2PB5/Px9ddfo76+nib2ZOdUcHZ2pgsdyVXC7jMx9smcQ6DT6ahM2rIv7IXzXsG+hvc6nkhbN27cQEZGBnbv3o1XX30Vly5dMkswRF5arRYSiQQAIJFIMHnyZOqRuHnzJgoKCqiRkJqaShVgD9qir1Kp0NTUNNDd6HNUVVWhvr4ebm5uvd42wzAIDg5GWFhYr7dNUFpa6vBC9gCDYY104MGAZcLB2NjYTp/FrKwsTJkyhSahvN/LIw8mEGLAyckJUqkUycnJeO6551BSUtLBUUVA7l1MTAwmTJiAlpYWlJeX4+7du/Dw8EBgYCCcnJxoTjmRSERDObsiBki7mzZtwtatW836d7/aZA8C+owcCA0NRU1NDX2gx48fD4lEAmdnZwwbNowmXSspKcErr7yCK1euQKPRIDg4GJ6enrTc4c2bN1FbW2tWyslWnDp1CiNGjKBGbmBgIHx8fGgZtkcffZQayfdzFlQulwt/f3/4+PiYSZXZyc48PT3h7OyMMWPGQKvVoqmpCZMnT6aGGIGfnx98fX1pG70BUh2Bz+eDz+fTicLPzw9eXl4DMgGwNzwZGRlgGAZLlizBBx98QCsqkGOILJwYQE899RS4XC6SkpJQWVmJ/Px8pKeng8PhYMOGDQOyAbJUHMhksnsiBwgYhkFERAQEAgHKy8uxa9cu/Pa3vzVjkrVaLTWItVot1Go1fV7DwsKQmppKjWoiD+TxeNQIJ5sDJycnCIVCWp6SjD+TyQSdTgcfHx86XhcvXgw3Nzeaz4JkMhYKhWYkBIfDAZ/Ph0gkogk29+3bh4aGBqSmpuK1116jIQNnzpxBfX29meSfnQCJGPNGo5HWf79+/TpNHgm0P4s3btwA0O5FY5dD5HA4dNEUiUQ2seq23qO8vDyajPBePCxkzKenp2Pjxo1Yt24dmpqaaPiFVqvt0rCyJCkkEgkSExNpVuSlS5ciJSWFxpQ+KJu94OBg7N69+75WoNkCDoeD5uZm1NfXY8yYMX3yHX1tuDuIAdvwoK2RDgwc2CEEmZmZUKlUyMnJoWoya1AqlRgzZgwlBxxjpXdAnjs26ZKUlIQTJ04gMzMTGRkZVp9N8hliGwiFQgwdOtQsKSFxlLD3OF3ZEWQfuXz5cgDt1RNIO7aG1TrQN+gzcmDSpEm4c+cOrYlJ4pX1ej28vb1pIrLw8HDU19dj2LBhCAkJga+vL80k7OzsDG9vb3A4HHh5efW4D59//jmeeOIJDBkyBEB7zK9YLKb/Z9eLvt9BEttZvkdANq0hISE4ffo0zp8/TyVE7Ie3tzM463Q6eHh4QCQSdSABrPW5P0AmpKVLl+LYsWNYt24dkpOTYTKZqEzelg0k2/iJiorCiRMnkJ6eDoVCgR07dvQ7022ZaOZeyhmyDcyAgACsWLEC27Ztw6ZNmwAAL730klm5SyL3NxgM0Ov1GD16NID22Pxnn30Wfn5+dKyRzaRYLDZjqJ2dnalH3WAwmI1LshkdNWoUzp07h507d+K3v/0tgJ9rXavVaojF4g7XnZBSJPFfZWUlAMDb2xt6vR5GoxFXr16lCVLJeZMqH0C7F51Nuk2cOBEAcODAAbzwwgsIDw8H0C7t37dvH4D2nAmW0mu2asDW0pRdgdzf/Px8M3LAXmLAZDJhxowZYBgGTU1NtH4xewxZLtrkJ9sLwE40ZTKZIJFIsHjxYsTExOCNN95AfHw8srOzH5jYwpUrVw50F/oNvr6+GDt2LMaNG2fT8WwC0JZj+3osOMiB7vGgrpEO9C/Y6wBJOJiSkkLDULpCTk4OUlJSzPLyOMZK74CEFZB8ASaTCWvWrMHChQuhUCiQlpbWYY0nqk6BQAAOh0P3TmxygISdkv0WSSBp7b6ROSY7OxtKpRL79+8H8LNd4LjfA4s+s8wkEgllkTuDTqdDYmIiPvvsM8THx1uVsfv5+fVYds4w7SULb9++DZlM1itx8w8K+Hw+hgwZgsrKSty6dYvWke0LMAyDW7duISAgYFA85GRDk5OTQz0hFy5coJUU2N7mzjKlshc78tNoNMLf3x9PPfUUoqOjsXfvXoSGhiI7O5tm+O+P82f3Nzo6Gvn5+bR+rT1gM7hLly7FtWvXcPjwYaxfvx4ffPABRo8eDaFQiKKiImpwE4VAZGQkIiIicOrUKSQlJWHu3Lk0KWhubi4mTpyIjz/+mKoHSP+t1bFm43e/+x2WLVuGjz/+GFeuXMH48eNhNBpx/vx5FBYW4ujRoxg2bJiZx5/NkOv1ekycOBGfffYZ/vnPf6Kurg5GoxEHDhygYQvsa0mUF++//z7Ky8tRV1eH3bt3Iz4+nubNmDdvHubOnQsnJyccOnQIdXV1mDFjBiIjIzvcH7Lw9dZmhyywlv3uSbvs5yItLQ3Tpk3Dtm3baAlGwFzmR7w4lv1nhxoQUoC8CBns7++PNWvWYN++fQgNDcXRo0cpSTsY5gh7sWrVqoHuwgMDh/E+cHjQ10gH+g9stcCyZcugUCi6VQuwoVKpMGXKFIeh2Acgzy9RAphMJgQHB+PAgQNYsGAB3fOxn3Fi/HM4HKrutKxKR/ZabLVHV8RATk4O5syZg6+++oqGhjrCSAYH+t9ty4KLiwsiIyPx97//Hbdu3YKrq2uvyDINBgOOHDmCCRMmWPVYP+wYPnw4GhoacOrUqT4nB4qLizFs2DAzxcZAgL1QzZo1C4cOHUJUVBTd8JCJjW0EWZM1WXpEycaHvQF6+eWXIZVKMWPGDKxfvx5Lly4F0D/GD7u/bGOtM2O7q3YIs0wqFLz11luYN28esrKycPXqVRw9epQe+8gjj+Dxxx9HTEwMvXZ/+ctfsHXrVhw8eBC7d++mbYeGhmLBggWUSCDqEeJJJ9edqFgI+8zlcjFp0iR8+OGH2LJlC/Ly8qgHQigUYt68eTSnCfkMe5EhYQ1JSUk4e/YsvvjiC+zatQvOzs6YNm0aXF1d8fXXX5stak8++SQOHz6MH3/8Efv27aPhBADw0Ucf4c0338Q333yDTz75BADg5eWF5557juZEsOxLb3rK2fdWpVIhKirKbmLAaDQiIyMDH374ISIiImjOBnIO1hZta99ljSAgIQkkyWNgYCB9RhISEh4YgsAB6+iJsd/TecoeOMaYdTwsa6QDfQv2/L906VJ88sknZuUJbQFJdCmXyymZ7hgbvQu2GoA8p0FBQfjggw/w0ksvoby8HOnp6VYJAkIoWIYRdqYqZIOtGJg9ezYOHDiAyMhI6jwhFaUc93tgMaDkABkMo0ePxvHjx+Hl5WVXbgE2TCYTGhsbsWvXLqxZs6ZPkibd7/D394ebmxuOHTuG2bNnw9PTs0++x2QyoaCgAL/4xS8GVL1hbdNDDCBLtpPNUndnAJEJ1WAwUAOIGEGJiYmQSqV48cUXMX36dJpgqz82vhxOeznDLVu2dJjAewJCDvD5fJpoLz4+HrNnzwaPx0NVVRXUajW8vb2pAUzkZBwOB+7u7vjjH/+I1157DXV1ddDpdAgICICPj4+Zwb9mzRo8//zzNISInEdcXBzOnj0LkUhEiQSTyYSoqCh8+eWXMBgMqKmpgZubG6RSKU2+aTKZIBaLUVRUZCbdZ0th169fj1WrVuH27dsICgqiIU+vvvoqhgwZQglFNzc3ZGVloaGhAQaDAWFhYWAYhoZKZWZm4vXXX8ft27fB5/Ph4+MDvV5vtoi6urri7Nmz4PF4vc6Gk3Pau3cvLWNoKwHBJgYSEhIQExODKVOm0PwRROXAVjrYGgdoSRKQHBIGg4E+L4mJiVCpVEhLS8PRo0dpGIljU+CAA/2Lh2mNdKDvYDmOYmNjO5QntAVZWVkAgLNnz2Lu3Ln41Z6dAAAgAElEQVSOMdEHYHv7CUFgMBgQGRmJgwcP4qWXXkJqaiqysrLMlJhkL9WZ07Wze8UmDePj48EwDIqKiqjNZ0kMOO75wGJQuNSfffZZHD9+HCqVCo2NjVCr1XaXSWpra0NxcTHu3r2LMWPGDLjHejBCIBAgKCgIHh4elKGtra3tdTmnwWBAaWkpJBIJTdjW32AbQJmZmfjPf/5DDSBi/JI4cGLYEqPO0ihiy6rJhEriqyzjyI1GIyIiIvDKK69g5syZuHHjht3x/7bAkq2VyWSQyWTIy8szM9R62h4hB0QiEQQCAY2512g08PHxQVBQEHg8HvX08/l8CAQCCIVCCAQCShT4+/sjJCQEYrGYepGAn+PUPDw8OlxrJycneHh40GtLEv+RDLhCoRChoaHw9/c3i3UnC56bmxtNQshuk9xbkUiEsLAwGkPH4/Hg7u5OFyj2GPDx8YFUKjVTNZDzNhqNkEgk8PT0hMFgoBUJSF95PB7tS2+GE5DX8ePHERwcDKlU2qNFlU0MmEwmrFq1ioZ5kPOzfCYsCYLOXpbXm7THfkZMJhNefvllBAcHIy0tzVHL+gGFtfH4448/dgi7IbA2BoxGI06dOoXVq1dj2bJlePPNN1FcXIw9e/Zg5syZePrpp3H48GFcvHgRf/rTn7Bs2TLs2LEDt27dsrlPDyseljXSgb4DWX9v3LiB+Ph4zJo1Czt27EBubm6PiQEASE9PR2xsLLZv3w6JRIIRI0Zg6dKl2LFjB7KzsztUzHHAPpC9EtswB9qTt7///vtgGAahoaHYvn17BxVqZy9LsD+3fft2hIaGgmEYHDhwoAMx4FCJDB4MqHKAIDAwEMOGDcP169dRVVUFhUKBRx55xC7DvqGhAXv37sUrr7wyYAapregPCWVnGDFiBGpra/Gvf/0Ls2fPxp49e/D888/32jUzGo24c+cO6urqaKWEgQDbAAoODkZERASNbbI2IXUlh2KDfZzlhkiv10Ov18NkMln1jvblPWdP0lKpFPn5+UhISLC7LScnJ/D5fDpWNRoNPTeyKJPNHp/Pp9UGSPUAkvDGckEhm07CPptMpg4LFJ/Pp4YoMcTJvSLx8JZtsq8veZ9kzCXfKRAIaP/YJKRlmUH2xoMY/ZakAfGGs8+PvRm2zLxLrhXp372CYdqTESYnJ5vJ+mz5HIktzsvLQ01NDUwmEyVrSCUF0nfSX/K5H374AdnZ2aioqACPx8Pw4cMxY8YMDBs2rMMz1NkmgoyjNWvWYMGCBcjJyUFCQsKAzosO9A/0ej1qa2ttPv7ChQu4ceMG5s6dC5lMRmtok8olUVFR2L17N7y9vTFu3DgsWLAAwcHBvVaO90HGw7ZGOtC7IMSALeUJbYVCoaCOK6VSidzcXCiVSuzatQvHjh2DXC5HbGwsAJiVyCRwjB/bQK4TIfLIfTMajQgMDMTWrVtx8uRJvPHGG8jMzMT27dtpKWLLNthg3/+ysjJa8UQul9PQRYPBAOBnYsChGhhcGBTkAAD85je/webNm6HT6fD4449DoVD0mBzQaDSoqKhAdXU1Zs2a1Uc9tQ9GoxF6vZ6W8jOZTGhtbR2wsAehUIiwsDAEBATgm2++weHDh2k5kd5AW1sbDh8+jISEhAEr78WObVIqlfjyyy+pUcj2fnQ2IZEJbv/+/SguLsbw4cORmJjYYRFiG6fsv4kBm5SUhPz8fGRnZyMhIaHPJj9Lr210dDQKCwuptLOnuTfYRjxRDRD5Pdv7T4x2tlFJcgnweDzo9Xp6Ldl5DNjHEZmatbwDpH3y3Dg7O5tlyiUkBrs0IPkOAFaz5pLkhOxzYHvJCJlFNrQGg4H2h/SJeMLZ5QrJhpq0wZbtkb6wDe57Abmv5eXliIqKsln2z/YUbty4EQcOHDC7/sS7Z/lcMAyDU6dO4fnnn8f58+c7tOvi4oI1a9Zg48aNHfpg7fkA2o3EoKAgrF27FsuXL8e1a9fotXJsEB4MMAyDL774AhUVFXQeaGhoQHV1NZKSksxURLdv37Z632tra9HU1IT4+HjU1dXhu+++Q3BwMIxGI86dO4eWlhY8+uijUCgUUCqVyMvLw4gRIzBlyhTw+XyrfXLA/jWSYRhUV1fj0KFDuHLlCu7cuYOgoCCMGDECixYtonMfMLjWSAd6D+wQAlvLE9oDhUKB1NRU+rdSqQTQnpcgKysLaWlp9H+xsbFISUkBh8NBbGysgzCwAey9D/lbr9fTEMDJkyfjwIED2LdvHzIyMpCWlgaFQgGFQkGvtVwup3Mv8HPOiJ07d+L48eNYsmQJPvzwQ0RHR9MQI/a+ja1M7M/7dOvWLVRUVHR5zNChQx9KknlQkAMlJSUoKSnBiBEjUFxcjOvXr2PkyJE9viGlpaU4dOgQNmzYcM99amlpQWFhIc6fP4+xY8ciOjoaer0ebm5uOHToEEaPHo2AgAAYDAZqiKjVanA47TLjb7/9Fo888ghu3rwJgUAAX19fCAQCFBcXo7q6GqNHj0ZISIhd5EBNTQ0KCwvh7e0NiUSC6upquLi4YNSoUTa3V1ZWhgsXLiAuLg579uwBwzDUiOuNh7O1tRXZ2dlYt24dhELhPbfXU7Bjnf/85z9j27ZtZp5R8urMmGIYBkqlEs899xyOHDkCABg7diyefPJJqxMYm4Fl/0+n01HjZ8WKFbh27VqPPLw9BdtAjImJwdtvv20mwevpd5K+kmtFstSyJeBsrz3b8LVMdkOOZctQAZj1jVw/YqyyPfJEiu7s7GyWKZect2XyQcv/kd/J91ieg7W+kXMgixlbncAwDHg8XodyPqQN8p1shQL7/XsBO6a3oKAAq1ev7mB4dwWj0YisrCwwDEOTAXVHDJhMJrzwwguUGAgMDERwcDDKyspQW1sLvV6P119/HWFhYXQzZ21zRs6fnINer8fixYuxd+9e5ObmYsaMGQOmNHKg9zF37lyIRCKzsVBZWYmioiKMHDmS5rhwcnLCd999Z7UNkrOmqqoKfD4farUaP/30E4KCguDt7Q2ZTIbY2FiqEjIajaisrERdXR18fHz6/iTvQ9izRpLndfXq1fj73/8OnU7Xod1hw4Zh7969mDBhQqfP/0CukQ7cG9ix4z0tT9gbUPxfmEJqaipdZ9jqgszMTKoumD59OhQKBeLi4h4YdQG5/hkZGdTWuddzsSQIyHvE8aHX6/HUU08hOTkZlZWVyM/PR35+Pk0yWV5eDpVKBZlMBgCYPn06AOCPf/wjvv76a7pnZCc6ZjuJBqoiRU5ODrZt24ZTp051IIydnJwwdepUvPrqq4PO2dwfGBQ7MLFYjMrKSmRnZ+PHH3/E5MmTERERgfDwcBiNRmi1WqufY3sEq6urcfnyZQwZMoTWWL8XGI1GqNVq6PV6qNVqFBYWoqWlBQaDATdv3oSPjw8uXLgAtVoNiUSC5uZmtLS0YMaMGRCJRFAqleDxeGhra0N1dTUEAgGamppw69YtcLlcaDQa/PTTT3Si6wnKy8shEAhw+vRpREZGQiaTobS0FOfPn8fUqVNtaoPH46GxsRGffvopTp8+jYqKCqjVanh4eNDJwFreBy6X223ogclkQltbG6qqqmj2+P4G2fjs3LkTDMPQTO7sCamzTMtGoxHvvfceNmzYgNbWVrPzImRQZwQBeY94PxmGgU6no/cpMzMT6enpfeoZIcatTCaDVCrF8ePHMXPmTNofewgCAB08/ezJ1Nq1JMY2+9juDFhLb5Pl+4QwsOwDu12yibXWJpHLknYsP2/5OzHmrX0PaaurfrCvg2Vf7hUMw6C8vBwVFRWQyWRmpEZn7bOThO3evRvJyckArMf8WRIDJDnZhAkT8Morr2DSpEn0/fT0dHz++ecAgHfeeQdLliwx80QQsA0EdiyiXq9HcnIydu3ahbi4OGqk3K8bOAd+xsyZM+n8Q3Dq1CkcO3asA5HPrmrChlwuR3NzMy5fvgyJRIJhw4ZBo9FAKBTSxGdAu5Gg0+ng7++P5uZmqySTQzXQjp6ukeRZPXz4MLZt2wagvWT15MmTweFwkJeXh8bGRly7dg3PPPMMzp49C6FQ2OH5HwxrpAP2ga0WWLZsGUJCQvpELdBTWFMXkFdWVhZ27dpFn/vY2FikpqZS73dvrsl9DXL9U1NTsXv3bshkMqtEvD1gEwTkdy6XSz39ZK2XSCRITExEUlJSp9eOzC0Mw0Cr1Zrtj8gegzghBrJs4TPPPINnnnkGZWVliIyMRE1NDYB2Mrq0tBR+fn793qfBgkFBDvj6+mL27NkICwvDkSNHcO3aNXz77be4cuUKqqurqSFgCYZhIBQKIZPJ0Nraips3b+LJJ5+ki869wGQyQSgUIiQkBHK5HBUVFQgICMCZM2doVvKzZ8+Cy+XC398fHA4HAoEAXl5eMBgM8PLywo0bNyCRSHD37l3odDoYDAYIBAJIpVIEBgaipKTErr5pNBpUVlYiODgYQUFBqK+vh8FgQEhIiM1t+Pr6IiEhAXK5HBMmTMBHH32E//znP7h7926nCgISKwi0ewcmT54MqVTaYQNWV1eH/Px8xMXFddgc9AfYsmliAFlueqyFEpAJLTExEV999RUAYOTIkaiqqkJjYyNMJhO0Wq1NBi6ZZEmbBoMBSUlJ+PTTT2mip96OrWb3iz3ZsmvN2/t9lgZ2V8ew/7b12J4cY0u7XX22q89bftbasd1dC2vXoTfBNqo/+eQTqhqwtZIAGY/5+fn44osvzHIpdBZiQ1j/vXv3wsnJCRqNBq2trXRsrVy5EocOHYJarUZJSQna2togFoutGmeWBAHxXkZFReGtt96i+R16I/TCgcEJV1dXTJgwwebjSeLTEydOoKioCMOGDcNjjz2GiooKM2WayWTCpUuX0NzcjOnTp5uVHr3f0Zukhj1rJDmeYRhIJBKsXbsWv/zlL8HhtId73blzB4sXL4ZKpcLVq1fxww8/YOrUqVZzCAzUGumA/SD3KTU11a7yhP0JYvgD6KAuIPHvx48fp4ojxX2gLmCvlSaTCXK5HBkZGZg6dSrCwsJ6xcC23EewwyrZak2iBLD8LOknu89sosEyZ5Ote5a+gl6vx/Xr13HlyhVIJBJKDgQGBuKHH36AVCpFWFjYgFZbGygMCnKAz+fTTOZXr17FjRs3oNPp4OXlhaCgoE5jdI1GI3Q6HW7fvo1Lly6Bw+F0GLD30idPT080NTWhra0NwcHBCAwMREtLC9zd3aHX6zFq1Ci0tLTAw8MDAQEBANpj+Y1GIyIjI1FZWQl/f380NjbS+EhPT09aStDevgqFQgQHB1PvydWrV6kEsCfnJ5fL4eXlhYqKCoSGhqKkpARTpkyBUCikZdfYIAu2TqdDY2MjvvjiCwwZMgSTJ0/G0KFDaW6BxsZGFBcXY/ny5QP20JNJND8/H19++SXdiHRFDJBJr7i4GO7u7li5ciWefPJJpKSkoKioiJID7KR51sA2fogM3mQyITo6Glu2bKFl3frC+LEkB5KSkvCvf/0LM2bMsCvvQGff0RfH9lUf7vXzXR07UOObbBTy8/OxePFim8kB8rk///nPSEpKAgAzYsDaBoP9bIhEIrS1tdGwDwA0RtnX1xcVFRUwGAxQq9U0T4W1/rA3HiRMhChdjh07RisoONQDDyZGjRqFzz77rEefGTJkCBYsWGD2nmUZ3tDQUISGhnbZzv02nsgzO3/+fERFRfVauz1ZI8kcYDAYMG3aNJw+fRpqtRparZYShC4uLkhMTMQ777wDACguLkZkZGS3YXj9vUY60HOQ+T89PR2ffPLJfam+IeoCNlnAVhds3LgRcrmcxs+npKQMOnWByWSCTqdDXl4eMjIykJubi8zMTPzzn//stVw95PNEOUS8+4TAYzub2KpJS7Umey/KbscydLO/r6larcbf/vY3/OMf/0BpaSkMBgPc3NzMVMLXr1/HwoULYTQa4ezsjOjoaCxcuBAvvPDCoE9031sYFOQAAFy8eBEnT56EXq/HvHnzMGzYMJvyDmg0GpSWlsLb2xu1tbU4fPgwVCoVZs+efU8Li0AggEwmoxnY/fz8IBaLMWnSJAiFQpSUlMDX1xd1dXUoKiqCSCSi4QcMw0CtVqOtrQ3Xr1+HXq/HTz/9RBdjUo9drVbj/PnzYBgGvr6+dFGWyWSQSCRwdXW1msxPKpVCJpPBy8sLNTU11DDvSWy/wWBARUUFLSGZlpYGHx8fTJo0Cb6+vt0+sGVlZSgqKsLt27fx3//+Fzdu3MDkyZPh7u6OqqoqmEwmhIeH9/i69wbYBhCRTXfnGQV+Jpveeecd6qlqa2ujJA6RP7P/7spDzf5ea8YPW2rVmyATL5fL7ZW8Aw4MLrA9CAUFBXRj3523nR1SUF5ejujoaBry0N1GnO3pI+XMSJtarRZ3795FfX09AMDDwwMAqJexszHHJgiIdyIpKQmffPIJ4uLiBiQcyQEHBgvYz+vcuXMBAF9++SWAjmFX9rbdkzWSTRISLyJ5hoGf1UUEAoGAhuFZa28g10gHbAdb2ZGYmIhNmzYhNzd3wEMJ7hXdqQsscxfExcVRhcFAqAvIs6fVaqFSqajSISQkBM888wxmzZrVa5U+SBuE2CP5nghJwA4bsAwxtUYMsNsZKFIAAAoKCpCYmEhL3P6///f/8OKLL2L48OF49tln8cknnwAA/vCHP2D9+vW4dOkS/vSnP+Hbb7/F8ePH8cEHH2Dv3r149NFH+73v/Y0BJQdIrNnZs2fxww8/QKfTISoqChMmTLC5UoFAIMCoUaMwYsQIlJWV4fvvv8ePP/6ItrY2REZGws/Pz67kVlwuFxKJBH5+fmhubkZDQwNKSkrQ0tICjUZDs+zeuXMHWq0WGo0GGo0GarWatsHhcKgMnf1+a2sr3TA3NzcDaE+A6OTkBK1Wi4aGBloTnc/nQywWw83NDUFBQXB1dYVEIqFtBQUF9Vg6SWI3z58/j6amJowZMwZPPPFEj9oICQlBSEgIysvLkZeXhwsXLuDu3bvw8vLC5cuXeyQZ7U1YGkAkjrK72Cb2xmfSpEloaWlBW1ubWd4F0jb5vTtY844mJyebGT99ZQCR75ZKpZBKpXjuuefMatU6Nlv3J8j9M5lMeP3112ncn60yfDLGy8vLsXjx4g7PRVdGvIuLC1UVkfeNRiM0Gg2ys7PR1tYGADQjMTthZGdgPyMkT8a+ffscZNZDiv7wSN4PXk/2cz5z5kwwDEOJgXtV09i7RpL5gWQYJ7J/oN3Z0NzcjP/+97+0j8OHD6fzQGfr3ECukQ7YDkIO+Pn5YdOmTUhJSUF5eflAd6vXYU1dQDLvZ2VlUbKArS4gJElfqgvY+1PSH0Js7NixAy+88AIuX77c66E47DBMdp4m9j64s9BKay/yv4HA1atXMX/+fDQ0NAAAVq9ejS1btnR6PJ/Px8SJE/HNN9/g3XffxcqVK1FaWop58+ahsLAQYWFh/dX1AcGAkQPEu56Tk4PCwkIMGzYMc+fOtTsBBJfLRVhYGIKCgnD58mVkZWWhuroa8+bNQ1BQkM0EgclkgkajQVNTE+7cuYOGhgbU19ejpaUFt27dwt27d6HRaGilgXHjxiEoKAhubm4QCAR2Z+ZvaGiAyWRCdXU1SktLUVdXh1u3bqGtrQ0ikQienp6Qy+Xg8XgYMmQIxGIx/Pz84Obm1qPFs6WlBT/++CMKCgrg4+ODpUuX3lM2ZzJR5ufno7CwEIWFhdBoNHj22WftbvNeYWkAWWay7w5sD6m1ibYnm0tL40cqlWLv3r19ZvxYY2yTkpLM1AMO3N8gi3NeXp7VfAOdjSf2wq5SqSCVSs3GZldgV6xgj1kSi/i3v/2NHrtgwQK7nhHyfKhUKmq8OAwDBx4msCW6RqORes9JicHeitW1Z40kxACfzzcjBtRqNYqLi7Fp0yZcvXoVALBo0SIEBATYtM719xrpgH0gCenGjRsHPz8/pKamIisra6C71acgZAHQUV2QlZWFzMxMJCQk0NwFfakuYIcBpaSk0PeJemD58uXYsWMHLbXcm2Ab9myiwJbPWP4+EGAYBk888QQlBhYtWoS33nrL5s///ve/x2effYYTJ06gtrYWq1atwoEDB/qqu4MCA0YOaDQaXL58Gdu2bcMbb7yBkSNHWpXQ9xQCgQDjx4/Hli1b8OKLL8LV1RUJCQkICAgw29Dq9XozQ761tRWNjY1obm7GnTt3UFZWhitXruDWrVvw9vbG9OnTERMTA19f3z5JTkHCJ3x9fTFq1Cj6Ponvr6qqQn5+Pk6fPg0PDw9IpVKMHz8egYGBVFng7u7eZd4Bg8GAs2fPoqCgACEhIUhOTu61mL6pU6dCoVBg3759UKlUA1aKjG0AWWZx7y52nMNpL+cmEAjo772V5IVsgGQyGSoqKvrU+LGUa8fExGDfvn3Izc3FzJkzHXHc9zHI2FYqlWYhBd1t7NnyP4ZhcPPmTfpsdEcqsOW/7PmCtPXxxx/jp59+AtCemT4qKsrmMWYpQSSfsZQsOsbrw4H+uM+DfSyxiQGTyYT9+/fTtcIyWaC97fd0jWTPAUB7CMEjjzyClpYWqoQkWL58OZ5//vlu5xXL9vtzjXSg52CrEVetWoW1a9c+EOEFPYUt6gJCFnA4HKouuFdjmcwLlZWVmDdvnll/srKyEBsbi6NHj2LWrFn3HHbUFQZaAWAPjh07hsuXL9O/X3zxxR71n8Ph4LXXXqPhXV9//TVKS0sfaPXAgFhwZFH697//jYyMDIwfP75X2+dwOODxePjwww+xbNkyDBkyBF5eXpQMqK+vR01NDUaNGkVL9l28eBHffPMNCgsL4eXlhcceewzLli2DXC7v1b71FDweD35+fvDz86PXqa2tDYWFhTh8+DDOnTuHoKAgzJo1C1FRUfD39wePx7NqnN+6dQt5eXnw9/fHM8880+t9DQ4OxqJFi3Dw4EF8+eWXWLZsWa9/R1ewNIAqKiqod9SWjQq73BxJzETq29sLS08+YV4tX33B9BJyQC6XU6nmjBkzHAbXfQr2pn737t1Ys2YNvc+2GuNsGWBPN+/kJ/m8yWTCkSNHkJmZCQDw8fHB6tWr7apbTPohk8lw8+ZNmz7jwIOJvp6XBuu8R54ra8QAUe6wyzfba2DYu0ay1zKTyYTa2lqrSZUPHjyI8PBwqkjorq8DtUY+aOhLVSBbTcnn86FQKBAfH4/09HRqGD+ssFQXKJVKAKDqgqVLl0KlUlHCgBzbE8KAnffh5MmTHbzeCoUCS5cuxfPPP4+rV6/a5BB7mFBQUGD296RJk3rcBttpyzAMzpw54yAHehv19fUoKiqCj48PIiIi+ux7XFxcsHLlSnz++efw8vJCREQEWlpaUFBQgAsXLiA4OBi7du3Cl19+CW9vb/ziF7/AypUr4eXl1Wd96g2IRCIkJCQgISEBAHD69Gns378fu3btglwuR1paGiIjIzt8bt++fQgICMCiRYv6rG8hISFISEjAli1bMHv2bEil0j77rs5gjwHE9oywN0BkI9Yb4HA4kEqluHnzZp8u5NZCC2JiYrBlyxZHaMF9DrJJ2LNnD/bv399BNdDdWCXPRnR0NAoKCpCQkGCXoWEymVBcXIwlS5bAYDBAJBLhL3/5C/z8/MDn88Hj8bpM/mkJclxFRQWCg4M7jWV04MGHUqnsUIWgt0DG2GDaNLMNYJPJ1CkxwOPxaKWce+2/vSQh+ayLiwvOnTtHQy/Lyspw6NAhZGdno6amBmvXrgWPx8OyZct67KHrjzXS8jsJFi9ejDfffBPr16+/b+Yfci/nz5+P1atX93r7ZGyQkBKRSASNRoN58+bhnXfeQXp6+qAtaTgQULCSHFqqC5RKpVmiw9jYWADoUl3AnhuOHz+OiooK+h1spKam0jKNmZmZfaoeuN/AdjiEhobatb4EBweDx+NBp9MBACWBHlT0OzlgNBpRVFSEgwcP4v333+/z7xszZgy++eYbXLhwAVKpFEeOHME///lPhISEYP369ZgwYQJ2794NDw8Puqm9n8AwDMaPH49Ro0bhzp07+Omnn3DkyBH87//+L0aOHIkVK1bAzc0NBw8ehFqtRnh4eJ9tvAgUCgV+/etfY/ny5fj222/7vRwR2wCqqKjAsGHDbCYIyIvEVfUmMQCg34wfdmgBOzHhrl27kJaW5mCV70OQDcKuXbvo/expPg027sXzWFpaiscffxx3796Fs7Mz3njjDYwaNYrmXelJSA77GCJzduDhREBAAE6ePNmnGy+VSmV3bqO+ApEMz5o1yyZioLfIgZ6ukcDPsedeXl7g8/nw8PBAYGAgHn30UURERGDTpk0AgMzMzB6pB/t7jbT8bg6Hg7Vr1+Ltt9/GnDlzsH79esyYMWPQrpVkPTh27BgyMjIAgJIDvW0YEnKAx+NBJBJBp9MhNDQUSUlJ2Lp1K1JTU60arA60g60uADqWUUxLS6P/mz59OlJTU8HhcCh5QFQD+fn59D1r35Geno6UlBT8+te/Rnh4uIMg+D+wyw/aG6ZEqrQQ3G+2Yk/R7+RAWVkZbt26hcTExD43UoH2Wp1JSUn48ssv8fbbb+PSpUu4ePEi9Ho9oqOjERERgeDg4Pu2ni6Hw6FyQ7JQjxgxAg0NDfjuu++wdOlSzJw5EyUlJZgxY0avh3BYg0gkwsiRIzF27Fjk5+cjMjJywB4ksvHpKXrqTemuLXZ/+sP4sSbVXLNmDX73u98hJSUFTk5ODqnmfQR2tuLXX38dW7duNQsp6On8RRL/2dOPmzdvYs6cOaiqqgKHw8H69esRHR1NN46EHLDHw1lQUIDo6Oge98uBBwNPP/00ampqzGpO9zZ8fX0xceLEPmu/J2A/13PmzAHDMH1ODFjC3jWSbbyTn7NmzcK+fftw/fp1NDQ0QKlUIjw8vNsN+UAThOx8B6tXr8bJkyeRmZmJjRs3Ij09HQqFAiEhIVb7219gEyVlZWXUS9ytxyQAACAASURBVAy0PzerVq3qdacGAbk+JLRALBZDq9UiMjISR44coV5rB2yDQtF1GcWMjAwcP36cllGUyWSYMmUKKioquszxEBcXh/j4ePzmN7/B999/T+/bw77PCw0Npb8rlUoYjcYekwTkcwQPOhnW7+RAaWkpLl26hFWrVtk1YO/evQtXV1dwuVyaL4Ak6OkMcrkczs7O0Gq1mDdvHp599lmIxWIEBgbC39//viUGLOHk5ARXV1da7tDNzQ0TJkxAdnY2uFwuLYV4r2hsbISHhwc4HI7Ve8DlcuHp6Yk5c+bgo48+wtixYweEHLDXAOpLFBQU9FuohaV6IDo6GlKplG54HKzy/QNiQGzcuBExMTE06Z+9dYOjo6Np1mNbY3pJnPGcOXNQVlYGAFi3bh3mzZsHFxcXiEQiiEQi8Pn8HoXjsDe9KpWKllZz4OHDiy++ONBd6BdYViV4/PHHAYBWJegvYsCeNZIYicQbR8oQajQaaLVaeHh40GPZJU1t7Xt/r5HWVHYymQxTp05FYWEh0tPTkZeXB5lMhri4OKSkpFCvblf5GeyBNaUEwzBmsvRjx45BqVRi+vTpWLduHZKSkug+jE0W94V6gMvlgsfjQSAQwNXVFVqtFikpKVi7di2ysrLMvOMO9AxEXcAmC9jqAqLIeemll7psJz09HbGxsdixYwcN63nY19P4+Hj6u16vR0FBAaZPn96jNn744Qf6u0AgwLRp03qtf4MR/UoO1NfXo76+Hv7+/hgyZEiXx7a0tKCurg5NTU1obW2FTCZDSUkJgoKCYDQacfv2bcr0BgUFdUkOuLi4IDIyEhwOB8OGDUNCQgJlgAYqq35fw8XFBSEhIQgJCcFXX32FqVOnWmXjjUYj1Go1AMDV1RUtLS2UHVar1aitrUV9fT2MRiM8PT1RXV2NIUOGoLq6GhUVFXB2doZcLkdgYKDZPeDz+Rg/fjxaWlrQ1NTU45KLvQESV90TA6gvYGn89KdnlF21wGg0Ytu2bVi4cCFee+01h3rgPgHbu7h582bs37+fqgZ6GlJAjouOju5RDgqGYWAwGDB//nya9Tc+Ph4hISG4ePEijUUlqgGpVNqjZD3kHPfu3UsTLTrGpQMPMogs/Be/+AU4HA4lBkhVgr4mBoCer5EcDgclJSUICAigz7pAIIBOp0NbWxut8gQA7u7u8PPzg8Fg6DaJ4kCukWQuJQmIyX0JCAhAYmIikpOTUVlZiYqKCqhUKhpfX15eDgDUk6tQKCCXy6nCgJ3M2pqXkR06U15eDqVSCYZhaLvEE3/8+HHIZDLqQf7DH/6AmJgYWtpOr9eDYRh6Dr1VZckaLHMPaLVahIWFITk5Genp6Q5yoBdhTV1g6+cyMjKwYcMGpKSk9AlRdL9h9OjRmDdvHr755hsAwPr163ukdNFqtXjttdfo30uWLIGvr29vd3NQoV8t48rKSmg0GowZM8YmQ7GhoQFXrlyBXq9HW1sbzp8/jzt37sDZ2Rnl5eV0Y0xi37rCqFGjcPnyZTQ3N3d77IMGnU6HoUOH0nKJBEajEfX19Thx4gRcXV0hl8tRV1cHtVqNkSNHwtPTE7W1tbh48SJ4PB68vLxQWloKf39/uLu749KlSxAIBHBycqI5GwiIemDkyJGoqqqCr68vxGJxv5wvmQhJEr6exi02NTWhtrYWWq0Wzc3NlDzRarVQqVRwc3ODQCBAWFhYj7yjxPghten7erK25hUJDg5GTEwMrYlL+vAwLxyDHWzVQHJyMqKjo81In57k0yC/k5wFx48fx8yZM7s0DMhm+dq1a2bseU5ODnJycqx+35QpU1BYWEi/r6tzI69PPvkE0dHRkMlkZmE9PRmb7EoKhPgwmUyO8e3AoAB7TDIMg5UrVyIyMhKfffZZvxID9qyR5DldsWIFSkpK8Nxzz2HRokUYOnQojEYjzp49i9dee42GhDz22GNmygFb2+/PNRIwT7jH4/HMFJFGoxEmkwkSiQQBAQGIiIigVRhIYsv8/HwA7aRGTk4OsrKyAPxMHpD/WcLSWSOXyymhIJfLsW7dOjAMg//85z90zJCXVqsFADpns4kBUimmL9BZeMGCBQtw9OhRpKam0vN3YOBA7sPy5cuxfft2u9SFDxo+/vhjREVFoaKiAseOHcPatWuxadOmLsu/A+3V4X73u9/hxo0bAIBFixbhr3/9a390eUDRr+RAbW0tdDqdTR4lsVgMDoeDmpoaeHl5oaSkBJ6enigrK0NQUBBlpHU6HTQaTbftEQmUwWDojVO5b9Dc3AyRSASBQNBhYjCZTLh79y4uXboEX19f1NfXQyAQoKysDD4+PvD394fJZEJTUxO8vb1RVVUFHo+H69evY+TIkfDz8wOXy4VaraYGNBscDgcTJ07EtWvXEBYW1ufkgKVBQeSBeXl5SEhI6NYzQv6/cOFCHDt2rMP/y8vLERMTQ//+4osv8MQTT9hk/JBMs8T4sbW84r2C7WF2cnKCyWTC6tWr8cQTT+DGjRsYOnSoo470IAYZOzdu3MDmzZvx448/gsP5udRmT+P62eNt8eLFeOONNxAfH0+lzJ31gVQkEIlEaGtr6/Z7hEIh9RiS7+3uHPfs2YPk5GSzXBn2ojtlmgMODBbs2bOHhubxeLw+JQbsXSPZ6iWhUIj6+nq8/vrreP311+mxbAIgNDQUq1atsqlPA71GAj+vk+R3LpdLE5ARcoO9d+RwOJBIJOBwOHjqqac6kK/s/nY397F/Z4ebkJdWqzX7m91H9tpO1oO+VJqQ77ZMTqjT6bB69WosWbIEqampXcbFO9A/yMrKQkhICJYsWYJZs2Y9sCppWxEUFITvv/8eaWlpKCgowJYtW5CTk4MVK1Zg3LhxZnlumpub8cMPP+D8+fPYvHkzysrKwOFwkJmZiVdfffWhIFn6dbQ0NDSAYRj4+/t3eyyHw6EJ9nx9fdHS0oKxY8fiypUr8PT0RHBwMNRqNYRCoU2D3snJCXq9/qEjB9ra2uDu7m51o83hcCAWizF69GgqESP5CkhuAqFQCD8/P4jFYjQ2NmLo0KEoLS2Fm5sb5HI59Ho9ZautYejQofjuu+9sMih6C+wkLElJSdi8eTNmzJjR5WcsNz+2wNnZmRpVthAEmzdvRlJSUr9teABzrwiRTUqlUqxduxYrVqxwJK0ZxGCPyRUrVmDbtm0IDg6m97Kn9c4tVSSJiYn49NNPsXv3bqSlpXVrFIjFYpw9exaNjY2UDOTz+RAKheDz+XQeIFJjvV5PiYyuzpFUYGAYhj4f9kohGYZBZWUlOJyfE7U6xrYDgwFkrOv1emg0Gmg0GphMJgCgxlZ/hBIA9q2RRMK+detWvP322zh06BBqa2vNDFxfX18kJSUhMTERYrHY5nrrA7lGAualjEmf2coBNklAflpTQ9hKCljCkiTorI9kLWcTA6S/7DHTH2QKIbPEYjGtXvDyyy8jJSXFTDXhwMBAoVBgx44deOGFF3D58mWbn8UHGeHh4cjLy8PXX3+Nb7/9FtnZ2Xj++ec7PHPbtm3Dtm3bwOPxEBoait///vd4+umnERERMUA973/0KznA4XB6VJ5GKpXC1dUVQqEQ4eHhVDFAGEsiF7XVmHtY0dn1dnJygqenJx599FEaBkDyOgQEBABol7d5eXmBx+NBrVbD09MTMpkMrq6u4PF4tO3O7gGb6e4PsKX0XC4XMTEx2LdvH3JzczFz5swuF06ycduzZw9VQ7S2tqK1tZV6QcViMVxdXSEWiyESiWAwGKgsqStJdm5uLlQqFZKTkzss5H0NS3LAZDJh8eLFKCgoQGZmpiM54SAFMcqXLVsGhmGwePFis3tpz0Jvual8+eWXsXLlSqSmptL5tKtxTIwZNtlICFeDwUCNHCI9dXFx6TJcgbS7adOmDhUY7FFEkM+QnDJdKSIccKC/QQxNg8FAM8uTSkP9SQz0dI0kz6per4e3tzc2bNiAV199Fbdu3UJdXR04HA4CAgLg4uICvV5PZec8Hq9bddNgWCOBn68Lma9IHL+lpJ9NDli+2OfU03BGS+VBZy/LpIP9qbBg95WMXYFAQMMLJk+ejJycHKSnp9PcDA4MHOLi4hASEoLMzExkZGTAxcXlod/ncTgczJ8/H/PnzwfQnqCwpqaGhhwAwNy5c/GPf/wDAQEBD+3+oV/JAcLG2jo43dzc4ObmBuBnmSjJYssmGrhcrllsaVc3k2xuHyZ0tkEmxEpQUBB9b9y4cWbHuLu7w83NzawNUi2CtN3ZNbdcbPsLbCZdKpUiOTkZzz33HEpKSuhYsbb5IbVkSaiKRqOhyX7IMXq9Hlqtlnpu2R5cS1gzftj9669Jx5p6QK/XY82aNVi4cCE4HI6DIBhkIOMmJycHSqUS+/fvB8Mw1OC+FwOaGO4GgwExMTFmOSg6i020jDMlhBh7LLMNDlvGEiE/Zs2ahZiYGJpLwZ5s2+zzInJgMvc8jHO+A4MTZC1he3/5fD5V3vSXQWzvGgm0r/lESu7p6QkPDw/6LDMMAx6PB6FQSCuXdHVOg2WNZIO9byHXwtqLnUuBzDGWoQEE3akM2N9r7cX+vzUyYKDWbUIGC4VCiMVihIWF4emnn8Z7772HuLg4R3jBAEOhUCArKwuxsbGIjY3t1kH2MMJkMuHEiROUGADaKxOcPn0ac+fOfehy1BHcd0EoSqUSer0eQUFBuHPnDtra2iCRSMDj8VBZWQk+n9/vNXIfZJCkhfX19TTG7tq1axg+fDh4PB5UKhXEYjGGDBkyIOUKLcE2hMkGLCkpCSdOnKDsaVeTI3uxJQsfO6s/O867u0mWbCCWL18OAGaJ5Po7g6w14ykoKAgHDhzAggULIJfLkZaW9tDLzgYD2MTAY489hrNnz9KNKjvG1B6wSSLi5Vu9ejV+//vfUxUJu23288Tn8+Hm5gY+n08NAXIM+UnGGPGCdjaeyDlmZmaCYRhqFNijiiDHEU8W0JEEdoxpBwYabKORePDIGmNPmJC9sGeNJM82O2EiicMnDgLSVmfkQGfXZLCskZZgz2vWDH3L/ACd/c/W7yG/W5IB1o6xfG8gQL7fycmJqgd0Oh2ioqJw4cIFbNiwwWruJgf6FwqFAkuXLsWmTZsQFxfnCC9g4Z133sGGDRvM8g0A7ZX1nnjiCYjFYnz00UdYsmTJAPVw4DCoyIErV66goqICfn5+cHd3R1VVFYxGIyIjI8EwDL7++ms4OTlBIpFAKBTixIkTUKlU8PPzg1AoBMMwGD9+fKftW07yDxOsnbfJZMKdO3dQUFAAHo+HuLg4FBQUQCgUYsSIEfDy8sLJkydx6dIlTJo0CVeuXEF5eTlkMhm2b98OrVaLCRMmYOjQodDpdJ2SA/19zS29oyaTiXrJFQoF0tLSOt38kPrNHA6ngxEE/CzLJvGh3Rk/2dnZ1PMLgG4C+3tyttzcEe9PYGAgJQhImSbHwjFwIOMmNTUVSqUSBw4cQFBQECWmesO7SMY5kchKpVJs27atU5KITQ6wQ1OsgT3OyAa/s3PMzs7Grl27cPbsWZqQjZBv9oxBQmoQMo/93DrGswMDDWvr4GAgi21dIwn5JhQKKQlAwiNIm2SOYodJ3C9rZFew3Ct0paywRFf7n+6cFLYcO5Cw3DeR8IK5c+di9erVNoUXkPOSy+WIi4tDamoqFIqfy/g5cO8g1QtscZA9THj55Zfx8ssvD3Q3BiX6lRwgm9rOkgKWlJRAJpOhsbERhYWF8PX1hUKhwMmTJzF58mScP38e//M//4PDhw/TmrparRZSqRReXl44d+4czp07h+HDh3fah4ctfqQrQsRkMqG1tRXV1dXw8vLC/v37ERoaihs3bsDb25saED4+PmhtbUVeXh7kcjnOnDmDsLAweHp6oqKiAgaDAQKBgCYxJGAYBjqdrt/jnNgGCjmH4OBgagRzuVwsXbq0w+aDLHIcDoca0J1t6Mix1gw1tud3zpw5+Oqrr2j8oj216XsTltfFYDAgKCgIBw8exNtvv434+Hhs2LAB8fHxg8ZD8aCD7WXKyclBRkYGGIbBV199RedKyzJV9t4TtreHXdebjIH58+d3IInYUlZieLP7bdl+V5JXNvlx7NgxvP/++zRkyd4KDOzvcHZ2tive1wEHBgK2KND66nt7skayjUBCAggEAjPynB2q0N06N5jXSFtgq/FuS0jlYD1HW8Emj9nhBf/zP/+D999/nxr7XeH999/HpUuXcOXKFaxevRo//vgjZDIZjZl3hCjcGxT/F16QkpKCZ599FuHh4Q6CwIEu0a/kQHBwMGpra3Hu3DlMnz69w/9NJhNEIhHNhl1XVwcnJyfIZDI4OTlh7NixyM/PR0NDA3x8fODj4wOFQoExY8bg9u3bMBqNHeQhBG1tbbSk30DCYDDQLN7svlRVVcHb2xt8Pt+qjI3L5UKv1+P27dvw9/eHXq+niY2EQmGn5+Xr64vbt29bLTVINtHEeOfz+VAqlaivr4fRaIRIJIKLiwvq6+uh1Wqh1+vB5/MxdepUKBQKlJaWgsPhQKPR0Lq7lu1/9913iI2NhaenZy9cPdtBFixi5JtMJgQFBeGDDz7ASy+9hPLy8g4GEABqnFhLMsRu25oRBJh7Q2bPno0DBw4gMjLSque3v8E2DEmiOACUINi6dSs+/fRTpKWlITY2FqmpqeBwOIiNje33vj5MKCsrw7Fjx7Bz504olUr84Q9/QGJiYgdioLfGjqWKhOTSCAwMxMGDB7FlyxbEx8djx44dCAkJMRvnthrd1rxq5NmYMWMGGIZBUVERTRxoSQzYc46dyYAdcGCwYiA35/askZYkIXuNZM8TneUuAQb3GtnbeBDOoTt0ph6IjIzE0aNHkZ6ejqysLKufzc3NxaRJkxAUFASpVIo5c+bAZDKhurqavr766itkZGRAKpUiNDQUCoXCoS6wA3FxcYiPj8ef//xnbN++vctn1AEHOEw/7qJqamrw/fffo7GxES+++GKH/6tUKnh6eqKtrY2WPRQIBPD19YWbmxtqa2tRV1cHhmHg5eUFrVYLLy8vuLu7o7GxEbW1teByuQgPD+/Q9qVLl1BUVISQkBCzWvWdwWg0orq6GnV1dfD19YVQKIRSqcSwYcMgFovteqDa2tpw8eJFVFdXIzQ0FAEBARCLxaitrYVGo8H169fh6+uL8PBw1NXVwWAwoLW1FTdv3sSUKVNw7tw5yOVylJSUYMiQIfD09IRYLIaPj08Hrz0bf/zjH5GQkICoqCiIxWL6vslkglqtxu3bt+nmvKmpiZa78/T0RF1dHaqrq+Hk5ASdTgcPDw9IJBIIBALU1NSgubkZTk5O8PHxockjCQwGAxYtWoT33nsPUqm03+uskszQJIkgMbaqqqrw0ksvUTbV2iTZ01hBdmKi+Ph4MAyDbdu2ITAwEACo1JKdTG6gYJl80WAw0GvD5XJRVVWFEydOYM+ePQCAvLy8AevrwwCZTIbp06cjJiYGycnJ0Ov1NI6XbJZJXHJvedPIpp6MAb1eD71eD6D9+fj000+xZ88exMbGdpmo0JbvAdqfi4yMDGzcuBF/+MMfsHr1ahgMBnqOJEynv+KuHXDAAfvXSHuk8vfTGulAz0GqPanVajQ1NaGhoQGXL1/Gr371K+zYsQOpqakdPpOamgqDwYDU1FQ695OcSAaDwayUZHV1NYqLi3H58mXcvXsXZ86cgUwmQ3x8POLi4qBQKBzqgm6gVCoREhKCv/3tb1i+fLnjOXOgU/QrOWAwGHDo0CGcOXMGr776aq978buScG3fvh2XLl1CREQE4uPjafWDztDa2orLly/jypUrcHd3x5gxYyiTOWfOHLsyWDY2NuLbb79FaWkpJk+eDLlcjosXLyIsLAz19fW4cuUKxowZgwkTJqC6uhrl5eWorKzEnTt3MG7cOFRWVsLHxwdnzpyBVCpFWFgYxGIxZDIZPZ+mpiZcvHiREiVcLhdffPEFFAoFnnnmGavEiS3o7Np29r5er0dJSQn+9Kc/4e9//zuGDBnS7xt+SwNIp9NRT2VVVRW2bNmCvLw8rF+/HkuXLrVLRs+WWO/YsQOZmZmQyWQ4cOCAmed3sBk/bIJAr9dTgsAym3Z3XqDBAHKfGxsbMW3aNOTl5cHT03NQXOfOYJnMyrKWNrsUYG+EE3TWB/YYYD8fhCR68803kZeXR5UkcXFxHeJvuzq3srIy5ObmYvny5fjVr36FV155BQEBATRnATt54WCLM3bAgQcdjjXSgd4CWU90Oh1aW1tx584dNDQ04LPPPsPnn38OpVLZ4TNyuRzJycl46qmnIBAIaEUzQlaTfQl5EeLAaDTi9u3bKC4uBsMwOHHiBM6dOwepVIqQkBCEhITQ9coBc2RlZWHDhg24fPky+Hy+Y811wCr61ZXr7OwMqVSKkpISFBYWIj4+vlfb72yAV1VV4ebNm+Byuairq8PBgwchl8sRHh7eaWUDnU6HhoYGVFdX04WLy+Wiurr6nkpjOTs7QyQS0fCJH374AT4+PlCpVFSSxeVyERQUhOLiYtTW1iI4OBinT59GXFwcTp8+DS6XC4VCAaFQiObmZrOQAaPRSBUaJSUltHpDeXk5ysrKIJPJ7CJlepI4BwBaWlqwb98+zJs3D66uroNKRm80GhEYGIitW7fi5MmTeOONN5CZmYnt27d3GJNdGT8AqPGTkZEBuVyODz/8EBEREV1KwgfDRGwZQ0qIJJKciizA5NjBCrK5NRqNePfdd6FSqfDuu+9izZo1g+p6dwbL+H0i2SVKHnvLFtoC9hggYG/CAgICsG3bNlRWVuLf//430tPTUV5ebhZyIpfLqbRTqVTSeUapVGLnzp0AgGnTpuHixYsICgqiBAhbFeEgBhxwYGDgWCMd6C2w1xNS8lar1WL+/PnIzs6mSfHYUKlUiIqKgru7O8RiMc0Zw3ZaEKKA/bfBYIBIJIJcLofRaMRjjz1GCYNLly7h2LFjuHTpkkNdYAXkPqxYsQLbt2/v95xgDtwf6FflAADcvXsXBQUF/5+9845r6vr//ysJKwHCRnZEBNwKWuqsdSuOqq3V1onV2k/102FrHR9bUWu1Vn30o1V/7cdRFa3aYa2L1lHcoCKUKULZU5kJgRCSnN8ffO9pQsJSpp7n45GH5tyTMy43ufe8znvg6tWr+OyzzyASiVq0P0IIjh8/DplMhv79+wOo8XMqKSmBl5cXfHx8YGNjA3d3d7owB4CSkhLcvXsX2dnZGDRoEIRCIS5cuIC+fftiwIABT5S2TyaTITY2Fnl5eejatStUKhUyMzMhFotptH9LS0t4e3vDxsYGly5dwqNHj+Dj44ObN29i9uzZuHnzJhQKBSZPngypVIqioiLY29vD1tYWjx8/RkZGBgoKChAdHY34+Hi6+xcXFwegxu+ovoCNzUFVVRXi4+OxadMmHDx4EBYWFu3GjF77JqOdnvDEiRM4duwYMjIyqC/b/PnzdRZAnPIdFhYGADh06BCuXbuGOXPm4I033sDgwYP1Uju1911R7cW1timf9i42V689wgkZRUVFGDp0KGQyGSwtLXHjxg3Y2dm1a7O52jvw2sG8OP/71nhY1rZc0H744v7+3LXM5/ORk5ODGzduUJeTjIwMZGZmAqhxj5BIJJBIJPDw8MDs2bN1BAHue6FtFfE02QkYDEbzwO6RjOaC2/mvqKhAWVkZtYpdtWoVjhw5QhfnYWFhGDFiBKKjo6lrLLdQ1bYQ0LYc0BYKtC0LtP+v7YrAWRcAwK1btxAVFUUDHfJ4vOfWuiA9PR3Dhw/H3r17MWbMGLpJxGBwtLo4AACJiYn45ZdfMGDAAIwZM6ZFH95TU1Nx4MABDBs2DCNHjqS5vdPS0vD7778jJiYGXl5eeOGFF2Bvbw87OzvY2NhArVYjLy8PAODq6oro6GiEh4dj6NCh6N+/P82n3RQIISgrK0NZWRkEAgGsrKwgEolQXl5OlfPS0lJYWlrCzMwMCoWCpvhSKBSwtLRERUUFNBoNhEIhVCoVioqKIJPJIJPJkJSUhJiYGJiamqJ3794wNTXFrVu3sHz5cqhUKvzwww/o3LkzxowZAysrq+Y+1QBqdh7T0tJw/vx52NjYYN68eS3ST1Opy4yeswLhFizc4ufGjRvIyMgA8M8CiLMy4YJpzp49G4MHD6Y3MUMpndpjWqbaaAeW0jZv5+bUXqO/a5sxbtmyBTt37qTH3nvvPaxataredJPtgdpBvLiFsrYo0Bpjry0Scd8RbQsSADpjq53usPZ1xIkL2tHMta0injYAIYPBaD7YPZLRHHDXUVVVFcrLy6l7wZ49e3Dt2jV6zQQHB+Ps2bM4cuQIFQdMTEzovYS7f9R+JqktFtQlGmjfw7TFAo1Gg/j4eFy7dg1mZma4e/euThpFAM+FYBAcHIwDBw4gKSmp3T8nMVqfNhEHqqurER0djc2bN+O///0v3NzcWuSirK6uxkcffYR+/fohMDAQTk5OBuskJCRg165dyM3NxfDhw2k0fktLS5189m0NZ27F/ehWVFTg1q1buHjxImQyGV5++WVMnz4dbm5ukMvlWLBgAXbu3AlHR0cIBAJcvnwZN2/eRL9+/TBp0qQWmdOjR48QGhqKsLAwHDhwoNnbfxpq75BqK83cDom2iX1d/pXaNy5DDzyciWZHSMmkTe3FXXsWBgDQB9n8/HwMGDAAMpmMHrO0tMS9e/fg5OREHzzbK7UFgtYUBbSpLRBpf0+4ByxuvIb+NWRlws3DkEVEa+d2ZzAY9cPukYzmgMuAo1AoIJVKUVxcjISEBGzbtg2TJk1CcHAwDUK4atUq2NnZ0exYhgI91xYLtO9R2tdqbZHAUNyC2taRnHXB48ePkZKSgvv378Pd3Z2mc35WrQvS09OxYMECDBw4EOvXr4exsXG7fk5itC5tIg4AQGVlJe7du4ddu3bh6NGjT7QT3xAhISFIT0/HGXbGdQAAIABJREFU7Nmz4enp2WD9srIy/Pnnnzh9+jRSUlLg4eGBSZMmYdSoUbC3t2/zL45cLkdSUhJOnTqFy5cvw8bGBqNGjcKkSZP0Ag2qVCrcuXMHAwcO1Bn3sWPHkJWVhddeew1eXl7NOj6NRoM//vgDv/zyC7Zv366XvaA9UHuHtHZU3Lq+DoaiNNd+WNLeFe3Ii5/ai7z2KA5wDwkKhQLr16/Hjh079OosX74c69ato4GO2uPfwVBwv7Yep/Z3hBNgtF0DtAUjQ9dG7QWEtrtEbasIBoPRvmD3SMbTwt2fOfcCznrg6tWr2LVrF65evYrhw4fjm2++QZ8+fWBjYwOhUFinebuhZxJD1gV1uSIYil1Q27pAWyzgrAuuX79OU6rzeDyMGDHimbIuWLBgAQ4dOoTy8nKYmpo+MylEGU9Pm4kDhBBIpVLs3bsXcXFxWLlyJbp169YsIkFlZSV27dqF8PBwfPHFF/D29oZAIGjUmLR/JDIzM/Hnn38iMjISMpkMfD4fvXv3hoeHB0aOHIlOnTq1mGAgk8mQkJCAqKgoJCcnIzc3FwKBAB4eHhg1ahT69u1LA7jU5VetVqv15i2XyxESEoI7d+5gwYIFGDZsWLOMt7i4GD/99BPu37+PuXPnNipdZFvBXfLaCjS3CKq9AKpv8aO9AOIWP9zfor1H+G8K7VEc4P5eubm56Nu3r47VAIelpSX++usvuLi4tGvrgfZ4jdT+jtR2FagtEnAY+m5ov9qLAMJgMOqG3SMZTwv3PF1VVQWZTEYFgu+++w4ZGRm4evUq/vrrL9jb28PKyqpJIn5tAYr7l7s2DV239cUuqG1hoC00aFsXJCQkQCqVIjIykgY65IIcdiSxICwsDMHBwfj777+xdetWTJgwASKRqF0/JzFalzYTB4CaG09JSQkSExNx6NAhBAYGYsSIEbC2tn6i9qqqqpCQkIDDhw/D19cXo0aNgoeHxxOlHQRAU7JUVFRQE6lr166hoqICmZmZkMvl0Gg0MDc3h52dHdzc3CCRSADUnQ+YK+cC8nDvr127hurqahQUFNAvp5OTEyQSCRwdHdGjRw8auMfCwgJCofCJvsSE1KR8u3fvHsLDw+Hs7IzXX38dYrH4ic4RAMTHx+Onn36CkZERXn/9dbi5uUEoFD5xe62FIR9pQ4sfQ2bStRc/2u+5eoyWQdun8bPPPsP27dvrrPvRRx9hw4YNLGXPE1J7p6b2d0L7/9oLf0Mv7ToMBqP987zcI6OiovDLL780WK9///6YOnVqK4zo2YBbmFdWVqKsrAwlJSVISkrCzJkzAQAJCQmws7ODpaUlvUc/KYasC7Sv0fpcEbT/VSqVenE3DFkXcKnNb968ib/++gvu7u7g8/k0dgEXtLO9ERwcjPXr12Ps2LEIDg6GnZ0dbG1tacwHJg60PSqVCps2bYKdnR2WLVvWJmNoU3GAo6KiAgkJCbh8+TLkcjmGDh2KgQMHNnrBWlVVhdTUVFy7dg2JiYkYO3Ys/Pz8mnVnn1NBHz16hOrqapSVldEfPe6GWVhYiPz8/Ea1Z2RkRD8HAD179oSJiQmqq6thZmYGU1NTiEQiWFhYQCQSQSwWN+uXViaTITk5GZGRkbh58yYWLVqEnj17wsrKqtH9ZGVl4dSpU3j8+DG6d++OgIAASCSSFnERaUkMmappv68NW/y0LVzsjcrKSmzfvh35+fmoqKhASEgIrTNnzhyIRCI4OTnho48+qtdkkdE4DO3W1IUhdwkGg9Exedbvkdu2bcOKFSsarPfqq6/ip59+aoURPRtw1wq30VZaWoqysjKcOnUK7u7uGD16NGxsbGBubt7sPu+171d1CV21XWcMWRdwgoGh2AVcGwUFBYiLi0NiYiLKysranXVBWFgY5s+fDzs7O7z66qsICAiAlZUVbG1t6d+gJcWB7du3o7S0tN46PB4PH330UYsFTO8oyGQyiMVimoa+LWgX4gDH9evXcfr0aeTm5sLNzQ3e3t6QSCTo06ePwRtKdnY2UlNTkZycjNLSUnh4eKB3797w9/dvNX937ejeUqkUJSUljf6c9k6mRCKhi5fWyjuqVCoRHx+PEydOIDU1Fc7OzujZsyc8PT3RpUsXWFhY6I1ZoVAgIiICeXl5ePjwIfr27YuePXvCx8fHYMDHjkZj/ezZ4qft4HYjKioqUFpaisLCQhQVFWH8+PG0TmhoKOzs7GBvbw9ra2tmMteC1LYcYDAYzy7P4j2yuLgYDx48oO9/++03fPnll5gwYQLWrl1Ly11cXNrlbnB7hhPzOfcCqVSKqqoqGBkZQSwWQywWt5p4X591QV2CQW3LgvqCHWpbJnCuCIQQal3g4eGBzp07w9PTs1WtC7jYAq+//jrmzJkDoVAIc3NziMViWFlZQSwWw8zMrEWfkSwsLCCXyxusFxsbi169erXIGDoK7UEcMGqTXmsRHx+P+Ph4PH78GIWFhXBwcECXLl0gEolQVFSES5cuQaVS6X2O811zc3ODjY0NxGIxunbt2qqB8DgfOhMTE5ibm8PZ2bnV+n5SVCoVsrOzcffuXfz9998Qi8VQKBTo3r07RCIRHj16hJycHJ3P8Hg8mJiYQKlUwtjYGA4ODrCwsIBAIICLi8szIQwA7ScoHKN+OBNVIyMjmJiY6LkOmZqawsTEhKXIagXYuWUwnh+exXukra0tBg8eTN8nJiYCqHHt1C4HaixVucCKubm5KCsrg4+Pj058p6ysLJSUlMDZ2RkODg519qtWq5GamgqhUAg3NzeDdQghSEtLo5ZwdVFSUoKcnBw4OzvDzs6uUfNuDbhsNcbGxhCJRCCEwMTEBAKBAKampq0q2hvKsMP1XZd1Qe00itxmYF1iAfevubk5JBIJ1Go1xo0bRwWD+Ph4XL16FfHx8bh37x61Lnj55ZephUFzERYWhhEjRqBPnz747rvv4O7uToUBCwsL+uL+Hi35nb5586aOOPDKK6+gsLAQP/74I1xcXADU/F26d+/eYmNgNJ52IQ48fvwYJSUlUCgUUKlUGD58OCZPnoyKigpkZWUhISEBZmZmep9zcXGBh4cHOnXqBJlMhujoaMTGxsLV1bUNZtFx0Gg0kMlkePz4MRQKBUpLSzFhwgQsXrwYUqkUWVlZyMnJ0VP5NBoNHB0d4efnB1tbW5iYmODMmTPIzMyEnZ0dbGxs2mhGjOcJbWHAzMwM5ubmqKqq0qljbm4Oc3NzHTX8WXqYZTAYDEbrIpfLIRaLERgYiG7dumH79u0ghGDFihX44osvsH79euzbt0/HvXTgwIH4/vvv4evrS8vKy8vx8ccf49ChQ1AoFAAAX19f7N27FyNGjABQs4nz2WefYffu3ZBKpQBqxIqvvvoKc+bMoW0lJydjwYIFuHXrFi0LDAzEuXPnWvRcNAUuhSUn4puamtINJ85ioC3uz4asWxpjXVBfZoT6siIIhUJ4eHjoiAVxcXEAgJ07dyIqKgru7u7w9PTEiBEjEBwc/ETz4tIUJicnY9myZRg/fjzMzMyoqzL3fCQUCmkss5Z+Rurbt6/Oe25NFxAQAA8PD736MpkM2dnZ8PLygomJid5xbZGOEIKHDx9Sa1GOiooKpKeno3PnzhCJRHptKBQKmlJVqVQiNTUVjo6OsLW1rXcu+fn5KC8vR5cuXQwKW80pILYV7UIc6NatGwYMGIDk5GTweDw4ODjA2NgYVlZWsLKyapSJia2tLbp164bIyEhUVVU9cRDCZx3OrEtsZYVp06dDUVmJLVu2YOzYsQAAGxsb2NjYoE+fPo1qb/jw4YiLi0NBQQETBxitAvcgYWxsDDMzM6hUKvqAxSESiag4wLnpMHGAwXh2OHz4MAoKCvD+++8bfHhkMJobbnF49uxZnD17Fj4+PnB0dIS5uTnu37+Pzz//HN7e3pgzZw4sLS1x6tQphIeHIygoSGfxPnPmTJw/fx4eHh6YPHkyHj9+jFOnTuHTTz/FjRs3AABBQUEICQlB9+7d8fHHHyM8PByhoaGYO3cuzM3NMW3aNAA18XXu3LmDefPmISAgAJGRkTh+/DhNI9ke4AR9bhGqVqt10lu2l3ECjbcuqJ1GUdu6oL40itqigUgkotYFY8aMoWkUT5w4gfXr1z+ROPD9998jKCgIo0aNwt69e2n8Ms5agBMFuI0T7ZSi7YGoqCgsWrQIUVFRIITA2NgY48ePx759++Do6AhAV6R79dVXsWLFChQWFoLH42HmzJn4/vvv8e233+LTTz+FVCqFQCDA/Pnz8f/+3/+jMdHkcjksLS0xY8YMjBo1CmvWrEFRURF4PB78/Pzw448/okuXLnRcGo0GX3zxBXbt2oVHjx4BqBE4pk6dit27d1NBobkExLamXcUcOHjwIExMTDBs2DCDSlJDVFZWIj8/H4QQnT+qTCaFVCqFsYkprKysYWrSsQLmNRcqZRXi4uOR8ncaJJ07o1evXoiPi8X27dvxww8/PHG7iYmJEAqFkEgk7eYHhvFsw92gq6urUV5ejqKiIp0f1qSkJNjZ2cHCwoKJA4wWp7CwEPv27UN8fDzkcjl8fX0xa9Ysvd0SRvPh6+uLhw8fIi8v75lxa2O0D/bv349FixYhKCgIBw4coOWcLzAAjBkzBufOnaOLjfLycly7dg0TJkyg9xqpVAo3NzfIZDKUl5fD3Nycmnp36tQJMTExdMETHx+PiIgILFy4EPfv38eAAQPg4eGBuLg4Gv+JG9eAAQNw9+5dVFZWwtzcHE5OTsjNzaXjVCgUBq1t25ra2S1qB6vsCNSXRrEh64KGXBG4ssOHDyM/Px9hYWGNHldYWBjWrVsHuVyOqVOnwt/fn7oQcMKASCSCmZkZdSPgRIG2OP/u7u7Izs5GRkYGXe8lJCTAz88PKpUKQUFBsLe3x5EjR5Cbm4t+/frh/v374PF49HvI4/FACIGvry8CAgJw4sQJKJVK9OjRAwkJCbT85MmTqKqqwq5du2j0f+3vMlATFH7YsGH4/fffkZaWBolEguTkZPr9nj9/Pg4fPgxbW1tMmzYNRkZGOHv2LHJyctC7d29ERUVBIBDotcsJiKNHj8aECRPw4osvwtvbG6+88goVEKOjozFo0CAqILKYA7XIz8/HkCFDqP8JB/cF4y5mlUplMHiJiYkJLC0t8eDBAx1xIC46Gncj78FV4oXBQ4bA2dEezyNlxY+RmpaG4tIydBHwIZPJkJOToxPIjYNL6UIIgZFRzWVSXV2tF6QQAPh8Pv1RYzs4jNaAuylwOw+1Tbtql3ekhw9GxyI6OhrDhw+npr8cX375JSIjI+Hn59dsfZ07dw4RERF4++236/RRZjAYLYuFhQVCQkJ0MjNZWFggMDBQp55YLIa3tzfu37+P/Px8eHl5UcuABQsWUGEAqFmc9OzZEwBw6dIlEEIwf/58ah0HgD6rcYHuhEIhbG1tkZeXhy1btuDDDz+EqalpuxQGgH/EgI4cxLYuVwQ+n28wq0d91gW1RYGqqipUVlZCJpM1KfYAl55w1qxZePPNN6kLQW1rAS7GA2et0d7O/+rVq6FUKnUW8Z9//jm6deuG6OhonD9/HhMnTqT1CSF48803ceTIEfD5fAwcOBBLly5FQkKCTvmgQYPw7rvv4ueffzaYGnDevHnYt28fjI2NUVhYiL59+yIjIwOnT5/Ga6+9hvv37+PIkSMQi8WIiIhA165dAdSsWQMCAhAbG4tjx45h7ty5Ou0aEhDPnTunIyB+8MEHcHNzw+3btyGXy2Fubt4i57aptKvQ3d7e3nBxcaGLUaBmkVpUVISoqCgUFBRALpfj4cOHBqNeajQaFBcX4+7duzrlsXGx6D8gABMDJ8DRrn5fkmcZu04ueJAQj9zsLHTv0QtGAj6sra3x4osv6tXNzs7G6dOnceLECdy7dw+3b9+u07ogLS0N6enpen7fDEZLUl807I4UKZvRsXnnnXcglUoxd+5cZGVloaCgAIcPH0avXr1QXV3drH2FhIRg48aN1E+VwWC0Pra2tjoLe46UlBR88MEHGDhwICQSCezt7REdHQ3gn13mlJQUADXutHWRnJwMANiwYQOMjY3pixMEFQoFZDIZgJoUcQKBAKtXr4a7uzvWrFnTYMq4tqY9LkyfBm4+fD6fvrggjMbGxjA1NYVQKKQ7+ZaWlrCysoKNjQ1sbW1hZ2cHOzs72NrawsrKCn/99VejxIGwsDBIJBKcPn0a3377LebNmwdLS0tYW1vTdm1sbGBpaQmRSNSugzQTQnDp0iUYGxvjrbfeogIKACq6xcTE6HzG0dERhw8fpptAnHDQqVMnnfIJEyYAqFnX1MbR0REHDhygC3h7e3vMnDkTABAREQEAOHv2LBXrOGEAqIkBsmjRIgCgoh9HfQKi9rnnBEQAOq4GbU27shzo16+fXmAGqVSK+Ph45OTk4IcffsDKlSvx008/4c0336QnlIPH48HCwgJeXl465SqlAkeOHoeiWoNRI15q8Xm0RzRqFfbv319j2ia2wfkLv2PShDHw9vY2GJ+hqKgIIpEIpaWlSEtLw4svvkhvcrVxdHSkwTcYDAbjeUGpVOL+/fsAgF27dtH8zHPnztXZRaisrKSmnLVRKBQwMjKiv59qtRppaWnQaDTw8vIy+Jn6aCi6uUajQVVVFYRCIYCaNG6FhYXw9PTUeZDJzMyERqNpdKot7SBM2lRXV0OtVuvsZtaum5KSAgcHh3rzWysUCqSnp6Nr164N3muacg6USiUePnyITp06tcvAUIyOwcOHDzFkyBAUFhYiICAAgYGBsLS0pLExOCorKwHUL1prL4peekn/mdXBwYGaLs+fPx9+fn7Ytm0bfvzxR2zevBnHjx9HZGQkiwPVRjTVuoBLz2xkZASNRoOcnJx6xYH09HQEBwfj0KFDWLZsGcaNG6cTcJCzFjAzM9PJCNGeRZnc3FxUVFQAgMHggUCN+542ZmZmOvdH7no3NTXVKefuK0qlUq/N2m0AoC6q3GKdE/QMuQlyMfEyMzN1yusTEL/55huEh4cjLy8PcrkcJSUlABpOD9uatCvLgZSUFIOKZ2VlJZKTk/Hiiy/C0dGRBiysDZ/Ph4WFhY5o8N3uXejk1gU8okFudhbaz6lvXe5E3AbhCRAwcDDc3NxQWVmBqqoq5OTk0AtTG86fu0ePHhg7dmy96WacnJzg6OjIxAEGg/Fcob3ADQ8PN1jn9u3bEIlE6NGjh96xS5cuQSgUYtKkSQCArVu3wsrKCt7e3vD19UWnTp0QGhqKGzdugM/n4/jx4wBqdkL4fL7OYlqlUmHNmjWwtraGl5cXnJ2d4ezsjJCQEJ0+V69eDZFIhNDQUIwfPx4ODg7w9fWFu7s7Ll68iPT0dLz88suQSCTw9PSEm5sbbt68We95KCgogFAohL+/v94xPz8/iEQi+mAnl8shEokwbdo0HDt2DM7OzvD29oaNjQ1GjRpFgz1xSKVSvPrqqxCLxejevTusra2xYcMGaDQavb6aeg6OHDkCHx8f9O7dG87OznQ3lsFoKgcPHkRhYSGWLVuGiIgI7N27F1u3btUT17j3Dx48qLMtzi22T58+WLlypd5r4cKFOvX79OmDw4cPIyUlBX369EFaWhp++eWXZp0f4+loyLqAe+3atcugIMTx/fffw9PTE1FRUfj1118xceJEiMVi2NjYUOsDa2trWFhYQCgU0mj87dFaQBtOEDMxMcGWLVsMvpYsWVJvG3XNr6nz5sbCrTM5UcHQGkitVgNAo0T8hw8fYtCgQfjvf/8LQggCAwOxcOHCdilKt6vVXH5+PlxcXKDRaHR8hS0sLBAQEIBBgwZBLpcjNzcXDx8+hK2trU7gB0IIKisrkZGR8X+5MtWIinuAuf4BcHS0B1/AQ/v9arQsikoFjE1MUVpaClMTU3j5+IIQgqqqKiQnJ+uYygCAtbU1unTpAmdnZwiFQqSkpKC6uhp///23nmVGcXExeDwerK2tDYo2DAaD8SwiEAgwatQonD17FjNnzsS2bdsQFBSk86DQv39/2NnZ4eHDh7h9+zYGDRpEjx09ehQAMHLkSFy4cAErV66Eu7s71q9fj6qqKhw7doxGIp81axauX7+O7OxsDBs2DK6urjo7g42Nbs49+EycOBHGxsaYOnUq0tLSEBUVhRkzZsDc3BxFRUWYPn26TnlGRkadv+9qtZoKyrWprq4GIYT2y+2UnT9/HmfPnoWnpycWLFiAc+fO4cqVK3jvvfeoCAIA06dPx+XLl+Hs7IyxY8fi9u3bWLduncFxNPUczJs3D8bGxhg3bhzNlsRgPAmcyXKnTp1oWWxsLN115HjhhRcA1IgJH374Id1dvH//Pk6fPo3169fT34jadYB/UlFbWVnRuFGci4KrqyvGjBmDmJiYZndpYjQvta0LuPfZ2dk0naU2YWFhCA4ORnJyMjZs2AB/f3+aypmzFtAOONgRrAW0cXNzg7GxMdRqNZYtW9ZqvvdVVVU6a06gJjgoAEgkEgCAp6cngJrvc224urUt2Q2hLSDu2rWLll+7dk3HuqhdQNoRMTExJC4ujpSVldGyqqoq8vjxY1JUVEQIIUShUJDIyEiSkZFBFAqFzucfP35MQkNDSUxMzP+VaMi7/1pGfjh6lHz9353kz7CrrTWVdkd+bg4JDf2dHD16jNy6dZtIZeVEqVSSzMxMcuHCBb365eXlRCqVEqVSSZRKJcnPzyfx8fGkuLhYp55cLiehoaHkzp07RK1Wt9Z0GAyi0WiIUqkkJSUlJCUlhQCgr5SUFFJSUkKUSiXRaDRtPVTGM0xmZibx9fWl116XLl3I/v37iUqlonWWLVtGAJClS5fSMoVCQaysrAifzydZWVlk5cqVBAD59ttvaR2NRkOqqqro+1mzZhEAer/ZkZGRhMfjEYlEQmQyGS3ft28fAUAGDBhAy5YvX04AELFYTCIiIgghhFRWVhJ3d3daHh4eTsfo4eFBAJCwsLA6z0FOTg4BQLp166Z3zMfHhwAgeXl5hBBCpFIpPVczZswg1dXVhBBCoqKiCABiZGREz114eDgBQGxsbEhGRgYhhBC1Wk3eeust2gbX7pOcAyMjI3Lx4sU658V4PuGumaCgIJ1y7tr18PDQ+8yePXvotfrhhx+S9957j4jFYnqdJicnE0Jqrt8ePXoQAMTFxYUsXryYTJkyhQgEAvLCCy/Q9kaPHk0AECcnJ/Lee++RzZs3kyVLlhA3NzcyY8YMQgghoaGhhMfjkSlTppAvv/ySfPjhh8TMzIwYGxuT+Pj4FjxDjOZErVYThUJBHj9+TNzc3MjBgwd1jq9bt44AICNHjiSnT58moaGh5Nq1ayQyMpI8fPiQ5OTkkOLiYiKXy4lSqSRqtbrdP/e4ubkRAPR3nRBChgwZQgCQ4OBgvfolJSV0TnV9D+sqLykp0SvXvg/NmTOH3nMyMjKIjY0NAUCuXLlCCCHkzJkzBACxs7MjaWlptI2srCzi5OREAJDLly/XOwZCCJkzZw4BQDZu3EjLYmJiiJ2dnc5vRH1ttBbtShwoLS0lt2/fJikpKU1eaJaXl5O//vqLnD9/nlRWVtLyy5cukSuXL5GIiDuk4NHj5h5yB0JDcnJySHJyCikuLqGl5eXl5NKlSyQtLe2JFvd37twhYWFhJDc3tzkHy2A0CBMHGO0FqVRK1q5dq7MYeOmll0hJSc1v7d27dwkA4uDgQBfDp0+fpg98hBCyc+dOAoD06tWLxMbGGuynLnHgyy+/JADIZ599Rqqrq+krOzubACBmZmb0e8AtjHft2qXTxoIFCwyWz58/nwAgISEhdc7/ScQBR0dHei44OCGCu59s3bqVACDvvPOOTj2NRkMkEolOu09yDj755JM658R4fjl06BABQBYvXqxTXl5eTng8HunSpYveZ1QqFVm8eDHh8/lUeJo6dSr9XqWmptK6ubm5ZNy4cUQgENDfCz8/P3Lt2jVaRyaTkaVLlxKRSKRzb/Px8SEnTpwghBBSUFBAXnrpJcLj8ehxNzc3cvLkyRY6M4yWQK1Wk4qKCpKfn08A0AXon3/+SSQSCfH39ycbN24k586dI1euXCEREREkLi6OpKenk0ePHhGpVEoUCgVRqVREo9F0iGceQ+LA9evX6bUcGBhI1q9fTz799FMyZswYIhAISEJCAiGk+cUBAKRr165k/vz5xMXFhQAggwcP1mlj8ODB9B6+cOFCsnjxYuLo6EgAkFdeeaXBMRDSeAGRiQO1qKioILdu3SLR0dGkvLy80Z/TaDQkPz+fhIeHk8TERN1jajUpKSnR2X1h/INCoSAJCQnk999/JzKZrEk/KmVlZeTixYskOTm5Q/wYMZ4tmDjAaG+UlpaS1atXEyMjIwKAvPXWW/RYz549CQBy7tw5Qgghb7zxBgFADhw4QAipWQz069ePACA8Ho+MHDmS/PHHHzrt1yUOLFq0SOf6N/TiLPK4hTHXL8eHH35osPy9994zWK7Nk4gDhh58/P396feXEEKWLl1KAJDdu3c32G5znAMGg0MqlRrcMJHL5XpWq9rIZDISFxdHn2FVKlWdz7MVFRUkNjaWXsOG0Gg0JD09ncTFxVEL2toUFxeTmJgYkpWVxe53HQyNRkNUKhWRyWTkxx9/JEDNsowTZWfOnEl+++038scff5AbN26QqKgokpycTHJzc0lJSQmpqKjoMNYC2nTp0oXweDySk5OjU3758mXSo0cPHcFLJBKR1157jVqE1SXS1VVeVlZGeDwe8fLyomXcfcjNzY2sXbuWmJiYUFFv8uTJelbSZWVlJCgoiAiFQjouOzs7snr1ah2RuzkExPraaC3aVcwBoVAIDw8PGlfA0dER5ubm9Qa6q6ysRHl5OcrKyuDg4AA7Ozud4zx+Tbo+hmFMTU3h7e2NqqoqZGZmwtraGvb29jAxMan3c5mZmVAqlejSpQscHBw6hE8Tg8FgtCRWVlZMhnuiAAAgAElEQVT44osv4OzsjPfeew9nz56lx+bPn49PPvkER48exYgRI3DmzBkIhUK8+uqrAGrSHIWHh2Pfvn3Ys2cPrly5gitXruDrr7/G+++/X2+/TYluXhfNEcyJPGW05dp9celxGzOG5jgHDAaHpaWlwfK6IqlzWFhYoGfPnvS9QCCo039aKBTSaOd1wePxqO9zXdjY2LDMBB0YLg4LF/iVx+OhX79++N///gdXV1eaAlE7toCpqSnNgNPegw0aIjExEWq1mmbN4Rg5ciTi4+NRXl6O9PR0mJubw8PDQyeOj7m5OcrLy/WCANZVLhaLDZYDNUEGN27ciI8//hhZWVnw8vLSGxPXxoEDB7Bv3z6kpaXB1NSUphZtzBiAmt+C7777Djt27EBGRgY6d+4Mc3NzqNVqfPPNN/R3or42Wot2JQ4ANQFV8vLykJ6eDqlUCg8PD5qfk4v0yaUhUqlUKCoqQmFhIczNzeHm5tbgDzdDHyMjI/Tr1w93795FTk4ODURoampK061wPzyVlZWQyWSIioqCn58fnJ2dWRBCBoPB0GLUqFEA/klbBgBz5szB6tWrcfr0aYwZMwbl5eWYOXOmzoLV1NQUS5cuxbvvvos9e/Zg2bJl2LZtm544UDvYWO3o5q0Nd98tKirSKddoNFAoFE/crqurK4CaB8mG2m3rc8BgMBhPAvm/lIZff/01AGDFihUYNWoUjIyMIBQKO2x6wvpoaAPSwsKiXuGsrrVeU8s5rKys6k2ly8Hn8/WCsje1r8YIiG29lm1XqQw5uNRGxsbGyM3NRVZWFrKzs/Ho0SNUVFSgqKgISUlJiIuLQ2FhIRwcHNClS5c2P5kdnRdeeAGOjo74+++/kZaWhrKyMhQXFyM3NxePHz+GQqHAgwcPcObMGfj7+8PFxYUJAwwG47nl9u3bWLt2rV462EOHDgHQzYvMRduXy+VYunQpgBrBgCMmJkZnp3zevHkAdIUAbjczISFBpz/t6Oa1UwFqNBqUlZU9+SQbgbW1NU1XyKV01Gg0WLhwoV7+56bw4osvAgBOnjxJ56XRaLBs2TK9dtv6HDAYDEZT4TbgNBoNwsLCcO/ePUyZMgWWlpYdPj0ho+PS7iwHOOzt7WFvbw+VSoWsrCycP38erq6u6N69O1JSUsDn8+Hv76+TNobx9PTt2xcVFRWIj49HQkICdfGwt7eHr68vxGJxg7lGGQwG43kgJSUFmzZtwo4dOzBixAg4Ozvjr7/+wr179yAQCLBhwwad+gsWLMCFCxdQUVEBBwcHjB8/nh5bsmQJsrOzMWvWLHTq1Ak//vgjgH+sEADQ3YaNGzciMTERBQUFuHDhAkaPHo3Ro0fj0qVL6Nu3L15//XU4OzsjPT0d586dw6BBg3Dy5MkWPRczZszAoUOHMGnSJEydOhU3btxAUlIStfZ7EsaNGwdfX18kJSVh4MCBCAwMRHh4OCIjI/XabQ/ngMFgMJ4UiUSC8vJyGBkZwdjYGCKRqEOnJ2zPmJqaYtKkSXB2dm7robRL2q04wGFkZARPT0+60wIAvr6+bTiiZx+RSERz8TIYDAbDMNOnT8e9e/cQEhKC8+fP03I/Pz98+eWXePnll3XqT5kyBba2tiguLsbMmTN14unMmzcPa9euxbZt2wDUWA/MmDEDu3fvpnUWLlyIn3/+GdevX8ehQ4fg7u5Oj506dQqrVq3CwYMHsXPnTlru4+OD1157jb7n+qwdy6eh8oasxLZt24bc3FxcunQJ+/fvh729Pfbt24fQ0FD89NNP1H+Se7g1FEuI64M7xufzcenSJbz++usIDw/H7t274ezsjL179+LmzZsICQnR8ct82nPAYDAYrQ2Px4NAIICpqSld9JuYmFAXAs5SgIkCzYeJiQnOnDnT1sNot/DI00YQYjAYjDaAEAKVSgW5XI6ioiJ07dqVHktJSYGdnR0NaMpuqIyWRKPRIDMzE+Xl5ZBIJHUGM1Or1ZBIJMjJyUFERAQCAgL02klNTYVSqYREIqkzkFleXh6kUik8PT31fDcJIXQszs7OsLW11etDLpfrjbGp5XVRVlaGgoICeHt7g8fjobq6GtXV1TpufxUVFfRhWBulUonq6mqD8y4rK0NhYSH191SpVKiqqjJY90nPAYPBYLQmhBCo1WpUV1dDqVRCrVaDz+dT6wHOWgBoWnBYBuNpYOIAg8HokDBxgNHROHPmDKZMmQIfHx8kJSW19XAYDAaD0YZoxxxQq9UghIDP59MXsxZgtAXMpo7BYDAYjFbgu+++A6AbiJDBYDAYzyfcwp8LMKhdzkQBRlvBxAEGg8FgMFoBKysrTJs2DUFBQW09FAaDwWC0AzgRgIkBjPYCEwcYDAaDwWgFQkJC2noIDAajjajtxcsWgwwGoz3CxAEGg8FgMBgMBqMF4PzKz507h8jISADApEmT4O/vz8zHGQxGu4OJAwwGg8FgMBgMRjPDCQNqtRq//vorDhw4AABwcHBA3759aYo6BuNZ5ddff6WiGACYmZmha9eumDhxIiwsLNpwZK1DYWEhpk6dCpFIhD/++KOth9MomDjAYDAYDAaDwWA0M5wwoFQqoVKpaDmX4pOzHGACAeNZ5ZNPPkFycrJeubW1NY4dO4YJEya0waian3PnziEiIgJvv/023NzcaHlaWhpu3rwJgUCAqqoqvRS+7RF+w1UYDAaDwWAwGAxGU1Gr1aiqqtIRB6qqqqBUKqHRaPRiETAYzxLc9X3q1ClERkbit99+w8iRI1FaWooZM2YgPz+/jUfYPISEhGDjxo2Ii4vTKff398fBgwdx7ty5DiEMAEwcYNRBWloaNm/ejOvXrzf5syqVCuvXr8c333zTAiNjMBgMBoPBaN9o57Cvrq7WsxxQqVTQaDRtOEIGo/Xo0aMH/P39MXnyZJw7dw6enp6Qy+U4ffo0raMtouXm5iIxMRFqtVqvrfz8fKSkpNT5/VEoFPRzSqUSDx48QHFxcb3jI4QgNTW1TrFCo9GgsrKSthkXF4fHjx83OG+BQIA333wTI0eOfKJ+OUpKShAXF4eioqIG+3xamDjAMEh4eDjWrFmDo0ePNvmzlZWVCA4OxldffdUCI2MwGIznl6cRbhkMRuvDuRZoL2S495yAwGA8T5iZmeGFF14AALoolsvlEIlEmDZtGlasWAE3Nzf06NEDq1evBlCzOP/888/RqVMnODs7w9vbG+bm5njjjTd0Fv5cO2+++Sa+++47uLi4oHv37rC3t0f//v2RmpqqMxaVSoU1a9bA2toaXl5ecHZ2hrOzs152odWrV0MkEuHIkSPw8fFB79694ezsjIsXL4LP5+P48eMAgAkTJoDP58PKyoqORygUonv37k/Ub3JyMoYMGQJbW1v07t0b9vb2mDhx4tP+CeqFiQMMBoPBYHQQnka4bU/s3LkTfn5+OHPmTFsPhcFoUTgBQFsEMFTGYDxP5OXlAQAkEgmAmsW/RqPB2bNnsW3bNnh7e2Po0KEwNzcHAAQFBeHTTz+FSqXCW2+9hSVLlsDOzg7Hjx/Hyy+/TC0FONHt5MmTWLJkCZycnPDOO++gc+fOuH//PkaOHInq6mo6jqCgIGzevBmurq7YsGEDAgMD8ejRI8ydOxenTp2i9TiLhnnz5iE3Nxfjxo2DRCKBq6srZs2aReMMDBs2DDNnzsTs2bN15qXdZ1P6nTNnDm7duoV58+bhm2++QVBQEP78888W/e1gAQkZDAaDwWDoIJPJsGPHDnTt2pU+5DRnG7///juio6Nx9+5dTJ48uTmGzGB0KJgwwHhe2bNnD65fvw5TU1O89NJLesfHjBmDc+fOwdjYGABw//59HDlyBGKxGBEREejatSuAGquDgIAAxMbG4tixY5g7d65OO/PmzcO+fftgbGyMwsJC9O3bFxkZGTh9+jRee+013L9/H0ePHoVEIsGdO3do9oT9+/dj0aJF+OKLLzBt2jSdNo2MjHD+/HmMHj2alh07dgxvvPEGjh8/jjVr1mD8+PH1zr+x/VZWVuLu3btwdnbGoUOHdM5fSwYx7bCWA7WDu3BUV1dDoVDolavVaqSkpODhw4cG/VcAoLy8HImJicjIyKizDtdHSkoKsrKyGvxxl8lkSExMhFKpbGBGNWj7tABAcXExHj58qKc4ZWZmIj09vcH2GvLL0SYrKwsFBQWNGmdT58VgMBiMjkNubi6Cg4Oxa9euFmlj+/bt2L9/P959992nGSaDwWAwOgDz5s3D8OHD4erqiqVLlwIAtmzZgi5duujUs7CwQEhICBUGAODs2bMghGD+/PlUGAAAJycnLFq0CABw48YNnXYcHR1x4MAB2o69vT1mzpwJAIiIiAAAXLp0ibZrZmYGlUoFlUpFF/dxcXF667zly5frCANPQmP7FQqFsLW1RV5eHrZs2YKqqioANW4ZLUmHFAcKCgogFArh7++vd8zPzw8ikQiFhYW0bOvWrbCysoK3tzd8fX3RqVMnhIaG0uN3797FqFGjYG1tjR49eqBz584Qi8XYvHmzTtsKhQLLli2Dubk5vL294eHhAT6fT18///wzrRsVFYX+/fvDysoKPXr0gIWFBaZMmYJHjx7VOzfOpyU0NBTjx4+Hg4MDfH194e7ujosXLyI9PR0vv/wyJBIJPD094ebmhps3b+q00Vi/HI5ff/0VLi4u8PDwgJOTE/r3748HDx4YHN+TzovBYDAY/5CVlYWYmJhGBTRqrHDbkMCt0Wh0xPOCggIkJSU9cVC0xgrqhvD19cUbb7wBJycng8eVSiUSExNRWlpq8HhtIV0mkyE5OZkFeGMwGIx2SHR0NKKiomBtbY3p06fj5s2b+OCDD/Tq2drawtHRUacsJSUFANC3b1+9+r169QJQs2mqjZmZGQQCgU6Zr68vgH/iHHApFjds2ABjY2P64lwEFAoFZDKZThvdunVr3ITroSn9bt++HQKBAKtXr4a7uzvWrFlT532xueiQ4oBarQYhRG83HajZ1SeEUKuCCxcuYOXKlbC1tcW2bduwadMmODk54c6dO/Qz69atw40bNzBt2jRs3LgRS5YsoYEi/vjjD1rvP//5D3bv3o2ePXviyy+/pApPbTUrISEBAwcORHR0NBYuXIiVK1fCwcEBZ86cwbhx4+q1NuDGPXHiRISFhWHq1Knw8/NDQUEBZsyYgSFDhiA8PBzTp0+Hn58fcnJyMGPGDD3/mcb45QDAtWvXMH36dOTl5WHcuHF45ZVXkJCQgA0bNuiN7WnmxWAwGM87KpUKn376KZydneHh4YG+ffvC0dERgwYNQlJSkl79xgq3jRW4V69eDaFQiD/++AOBgYFwcnJCt27dYGNjg88//5zWGz16NH0AioiIoAL4jh07Gt1fQ21wQnjt4EuJiYkYOnQoLCws0KNHD9jY2MDT01PHB1P783/88QemTJkCW1tb+Pj4wMbGBt9//31j/yQMBoPBaAViYmIglUoRHx+Pn3/+GYMHD270ZzkrZT5ff9nKrWlqCwGG4NZYnDUB9z4wMBBbtmzRe+3fvx9isbjR42wsTel3/vz5uH//PubOnQuZTIbNmzfD398fJSUlzT4uCumA5OTkEACkW7duesd8fHwIAJKXl0cIIWTlypUEAPn2229pHY1GQ6qqquj7GzdukMzMTJ12PvvsMwKArFixgpa5uroSU1NT8vjxY1r2wgsvEADk999/p2VTpkwhAMiuXbtoWXV1NfHy8iIAyNmzZ+uc2/LlywkAIhaLSUREBCGEkMrKSuLu7k7Lw8PDCSGEKBQK4uHhQQCQsLAwQgghkZGRhMfjEbFYTJKTk2m7eXl5tI3Dhw/T8vHjxxMAZPny5bQsMjKS2NnZEQBkyZIlTZ6XVColAIiHh0ed82QwnhaNRkOUSiUpKSkhKSkpBAB9paSkkJKSEqJUKolGo2nroTIYhBBCIiIiCADi7e1NPv74Y7J+/XrSr18/AoAMGjRIp+7Vq1cJj8cjAMi4cePIK6+8QszMzOg1rv3bPGHCBGJiYkJee+01snHjRrJkyRJiYmKid2/i7i88Ho+YmJiQ2bNnk6lTpxI+n08AkO+++44QQsi2bdvIhAkTCABiY2NDZs2aRWbNmkUuX77c6P4aaoMby4EDB+j44uLiiFAoJADIsGHDyPLly2kbAMiJEyf05iIQCIixsTGZNGkSGTNmDJ1fQkJCM//1GIymodFoiEqlIjKZjGRnZ5NXX32VXsvr1q0jeXl5RC6XE5VK1dZDZTBajK5duxIAJCkpqd569a0dVq1aRQCQDz/8UO/YunXrCADywQcf6LTTqVMnolarder+61//IgBIcHAwIYSQDRs2EABk1apVDc7D0D1Lm1mzZhEA5LfffmtwXk3pV5vs7GzSp08fAoDs27evSZ9tCs+8OLBz504CgPTq1YvExsY2uo/ffvuNACBz5swhhBCiVquJQCAgYrGYKJVKWo+70LiHFo1GQ0QiETE2NiYVFRWkurqavv79738TAOSLL76os1/u4tNegBNCyIIFCwyWz58/nwAgISEhhBBC1q9fTwCQf//733ptc8fefvttWiYSiQiPx6Pni+PAgQM6D6BNmRcTBxitARMHGB0NmUxGzp07p3NNlpWVEUtLSwKAlJeX0/KmCLeNFbi5+4u1tTUVnwkhZNOmTQQA6dmzJy178OABAUBefPFFvXk0tr/62jD0oMUJ0O+++65OXW58Xl5eep+3tLQkN27coOVTp04lAMj69ev1+mQwWhMmDjAYzSMOnDlzhgAgdnZ2JC0tjZZnZWURJycnAoAKz1w73BqO+35lZGQQGxsbAoBcuXKFEELIxYsXqZBQUFCg06darSalpaX0fUPiwOLFiwkAsmXLlgbn1dh+pVIpSUxM1Dn+0UcfEQBk7969BsfRHHRIt4KmEBQUhH79+iEuLg59+vTBqFGjcPHiRZ06hBCcOHECU6ZMQa9eveDo6Ig33niDHgNqTFl69uwJqVSKnTt3oqqqCmlpafj1118BAH369AFQE4CpoqIC1dXVEIlEOr4kXFAm7XgIdcGl7uCwsbExWM7l0eRMbpril1NYWIiKigrY29vr+X3WDnbRXPNiMBiM5xULCwsEBgbqRBkWi8Xw9vYG8I8fJFDj8sXj8bBixQpa5u/vj6+++kqv3SFDhsDd3V2nbMCAAQD+SRelzYYNGxAQEEDf/+tf/4JAIEB8fDzkcnmD82hqf41BrVbjwoUL4PP5CA4O1jn2wQcfwMLCAn///bde+5s2bcKQIUPo+ylTpgAAcnJynmgcDAaDwWhfTJo0CYMHD0ZRURECAgLw1ltv4e2330b//v2Rn5+PV155BSNHjtT7XEhICLp164YFCxZg0KBBKCkpweDBgzFixAgANe5vo0ePRkFBAfr27Yv3338fW7ZswTvvvAOJRILFixc3eow9e/YEAGzcuBELFizAhAkT6qzb2H5v3bqFHj164JVXXsHWrVuxfPly7N69G8bGxgazPDQXHTqVIWmEj7uFhQXCw8Oxb98+7NmzB1euXMGVK1fw9ddf4/333wdQ8+Cxc+dOiMViBAYGwsXFBenp6fjll1902vLz80NMTAw+/vhjfPrpp6iqqoJGo8G//vUv6lvJ+ZGYmJgY9NsHoJcWozHUlbKidnlT/HK4qJeNSYfRUvNiMBiM54mUlBR88803CA8PR15eHuRyOfUd5O5pnHDr4ODQoHDLfe7kyZM4evQoUlNT8ejRI1RUVOi0qQ2XNonDxsYGDg4OyM/PR0FBgV706KftrzFkZGSguroabm5ucHBw0DkmEong6emJ2NhYZGZmwtnZuc652NvbAwAdD4PBYDDaDs6/Xzv7gCH4fD54PB6MjAwvTS9cuIAPPvgAx48fx4EDBwAAdnZ2WL16tcF1iZubGxYsWICtW7ciJSUFRkZGmDx5sk5KQAA4deoUVq1ahYMHD2Lnzp203MfHB6+99hp9z42rrvEtXLgQP//8M65fv45Dhw5RAb2ueTWmXz8/PwwbNgxnzpzBb7/9Rue1Y8cO9OjRw+A4moMOKQ6IRCIAQFFRkU557UjMHKampli6dCneffdd7NmzB8uWLcO2bdvw/vvvQy6XY8+ePRCJRIiNjYWHhwcAIDQ0VEccKC4uxuHDhzF48GCMGTMGiYmJcHBwwNixY+lOBVDzRzM2NoZaraaZDVoTT09PAEBsbKzesfj4eACgu1ROTk4QCAQoLCxEYWEhfagC9B+s2npeDAaD0dF5+PAhhgwZgsLCQgQEBCAwMBCWlpY4fPiwTjaCpgi3QOMF7vrgBOC6Hnyau7/a1CdsA40POtWSuZ8ZDAaD0TSio6OhUqno2q0uzM3NUV5eXudvvFgsxoEDB7Bv3z6kpaXB1NSURvc3BJ/Px8aNG/Hxxx8jKysLXl5eEAqFevUsLCzwzTffYNeuXcjMzER5eTmcnZ1ha2urU2/z5s1Yu3YtLC0tDfZnaWmJa9euIS8vD1KplK7H6ppXY/p1dHTE1atXUVJSguzsbNjY2MDV1bXF73Md0q3A2tqapisMDw8HUCMMLFy4UC+VRUxMjM6D1rx58wCARvfPz8+HSqWCQCCguxUajYa6C3BkZ2eDEIL8/Hx0794d7733HhYtWoT+/fvr1BMIBAgICIBarca2bdv0xl5aWtqiUf0588rDhw8jPT1dZ/zffvstAGDy5Ml0rP3794dGo8GePXto3ZiYGKxatUqn3baeF4PBYHR0Dh48iMLCQixbtgwRERHYu3cvtm7dis6dO+vUqy3calNbuK0tcP/www/Yvn17veaQ2ikAgZr7YFFREQQCAVxdXXWO1c4K9CT9GcosVJvOnTuDx+MhNzdXL+WuXC5HRkYGgH/EbQaDwWC0f0xMTBoUBjhEIhFMTU3rrcPn8+Hl5VWvMKCNlZUVevXqZVAY0IbH40EikaBnz556wgDXb13CgDbOzs7w9fWFiYkJLatvXg31C9RY9/Xu3Rtubm6tIoB3SHEAAGbMmAGgxg9l0aJF6NGjBw4dOqS367BkyRJ07doVK1aswLZt2zB69GgAwKhRowDU7LQ7OTlBJpMhMDAQn3/+OYYPH04X0hy9evXCSy+9hNTUVMyaNQtDhw6Fn58f3Nzc4OrqihMnTtC6W7ZsAY/HQ3BwMCZOnIgNGzbgs88+w9ixY2Fvb28wFVVz0VS/HM61Ijg4GNOnT8dbb72FgQMHGkyR0ZbzYjAYjI5OdnY2AKBTp060LDY2lsaK4WiKcNtYgVubNWvW6KTz/eqrr0AIwZAhQ+juBvcQlJSUBI1G80T91dWGIczMzODv7w+VSoUvvvhC59jmzZshl8sxbNgwGmeHwWAwGAxG89Mh3QoAYNu2bcjNzcWlS5ewf/9+2NvbY9++fQgNDcVPP/1EH3DmzZuHtWvX0t1uHo+HGTNmYPfu3QBqlKCTJ09i/vz5CAsLQ1hYGJycnPC///0Pb7/9NjWxzM3NRUJCAkQiEb788kuYm5tDKpXi+vXr+PnnnzFnzhwMHToUrq6uGDp0KC5duoR///vfuHDhAs6fPw+gRjmaNm2aXiAnberyaWmoXNuXpyl+OW+++SYKCgqwYcMGnDp1CkZGRhg5ciT+85//YPjw4TpmMI2dV0N+QwwGg/E8MnjwYISEhGDHjh0oLi6GWq3G999/D6lUqlf3/fffx+zZsxEcHIzo6GjY2Njghx9+oOb3HJzAnZ+fj8DAQIwaNQq///47bty4Uec4ysrK8NJLL2H8+PGoqqpCaGgoeDwe1qxZQ+t06tQJdnZ2KCoqwsCBA9G1a1dMmjQJs2bNanR/dbXx5ptvGhzXpk2bMH78eGzfvh2RkZE0zs/ly5dhYmJiMBgjg8FgMBgcpqammDRpkk5sGkYTabE8CK1EaWkpSUpKoqmhlEolkcvlOnXUajVJTk4m8fHxOqmiatfJyMggf//9Ny3TTjHDpQHctGmT3mf9/PwIAHLx4kW9YzKZjMTGxpLU1NRGpatRq9VEKpU+dTl3LCUlhWRlZTXYr0ajIUlJSUQmk9Gy8vLyOsfc0LzkcjlRKBQN9stgPCkslSGjo6FSqcjixYsJn88nAIiRkRGZOnUqTVWbmpqqU3/Hjh3E2tqa1h07diy5evWqXrq/a9euEU9PT3r9Ozk5kf/973+Ex+OR+fPn03pcKqYPP/yQ5koGQBwdHcnJkyf1xnv06FEiFAppvf379zepv/ra+OSTTwgAcvjwYZ36Fy5coKmvABCBQEBeeOEFcv/+fZ16dX0+NDSUACBBQUGN+6MwGC0ES2XIYDA6IjxCmKN4Y1i7di02bdqE4cOH48yZM9Rc8ubNmwgMDER5eTlycnL0IkszGIyWgRAClUoFuVyOoqIidO3alR5LSUmBnZ0dzM3NYWRkxIKUMdoV5eXlyMjIQOfOnWFubg61Wg2FQmEw0CshBMnJyXBxcaGR+eVyOczMzHQsuzQaDbKzs6FSqWi2gYqKCpiamtJ6H330EXbs2IEDBw4gKCgIKSkpMDY2hkQiqXOsSqUS6enpsLKy0nGHaEx/9bWh0Wggl8vr9OEsKytDTk4OunTpYjBDQ32fl8lkEIlEDQYvZDBaEkIINBoNKisrUVZWhvfffx8///wzAGDdunV45513IBaLDX5nGAwGo61gdt+NZPbs2di9ezeuXr0KKysrSCQSVFdXIycnB3w+H1999RUTBhgMBoPRIBYWFjQnMlATY6CuDDA8Hg8+Pj46ZYbq8vl8mm2Ho6EgUNqCWl2YmJjo9d/U/gy10VBwJysrq3rjC9T3+cYEjWIwGAwGg6EPEwcaSffu3ZGQkIBDhw4hISEBBQUFsLW1haenJ+bMmdOi+SYZDAaDwWAwGAwGg8FoSZg40AScnZ31IkUzGAwGg9ER8PPzw9ixYxtlMcBgMBgMBuP5g4kDDAaDwWA8B8yZMwdz5sxp62EwGAwGg8Fop/DbegAMBoPBYDAYDMi8IpoAACAASURBVAaDwWAw2hYmDjAYDAaDwWAwGAwGg/Gcw8QBBoPBYDAYDAaDwWAwnnOYOMBgMBgMBoPBYDAYDMZzDhMHGAwGg8FgMBgMBoPBeM5h4gCDwWAwGAwGg8FgMBjPOUwcYDAYDAaDwWAwGP+/vTuPjqrKFj/+rbkyzyCEhIQZRJEgJMwBGdQWwRYkCA4EkGdD89QWbN+PIYHX2i2NQ4MiNsioIqBhUJljAAHziCIgQ4A8CCEYCJlTGWq49fvDdeslZCAgkAT3Z61axHvPvXVuVqxbZ9999hFC/M5JcEAIIYQQQgghhPidk+CAEEIIIYQQQgjxOyfBASGEEEIIIYS4C1gsFsrKym7pORVFITU1lWXLlmGxWHA6nRQVFeF0Om/p+9yMsrIySktLK22z2WyUlJQ0iP5dy2q1UlJSUuN+m82G1Wqtcb/T6cThcPDJJ5/www8/YLVaKS8vr/WcN0J/S84ihBBCCCGEEOKWslgsTJ8+HZPJhLu7O0ajkalTpxIQEFCl7cWLF9mwYQNjxozBbDZX2e90OikpKSExMZFhw4ZV2Z+dnc3x48fp3bs3X3/9NcOHD2fXrl2EhYVx8OBBRowYQW5uLkajkc2bN9O6dWuioqJu6fVarVbefvttUlNTCQ8Pp7i4mD//+c+EhIRUaVtQUMCGDRvo0aMH9913n2t7cXExq1atIiYmhqZNm97S/lXn0KFDLFy4kBYtWmAymQgICGDq1KlV2lksFr788kvatWtHZGQkTqcTjUZTqU1JSQk2m429e/fSuXNnADQaDaWlpbRu3Zpdu3bRtm1bvL29CQ0NpbS0lNzcXLZt28aoUaMIDAz8TdciwQEhhBBCCCGEaIA8PDxo0qQJYWFhPP/887W2zc3NpWXLlgQFBbFr1y7Wr1/PY489xsWLFzl+/Dju7u5ER0fz4Ycf0rJlS37++WcOHDjAyJEjycnJYePGjXTt2pXw8HDWrl1L9+7dOXPmDHl5eSQkJFBUVITNZuOVV16hbdu2WCyWW369RqOR4OBg9Ho9L7/8Mjqdrsa2JSUleHl50aZNG5YvX87PP//MoEGDeOSRR2jSpAnFxcV3JDgQHh6O2WxmwoQJtG7dusZ2VqsVg8FA27ZtOXz4MJ9//jlBQUH06dMHRVHIzc2lsLCQ/Px8vvnmG8aOHUtISAipqalYLBZKS0spKiriiy++4MSJE2RkZHDvvfcSGRlJUFAQhYWFvzk4INMKhBBCCCGEEKKBCgwM5OTJk9hsNte2wsJC5s+fz/nz5wFwOBwcPHgQnU6HVqtl3bp1eHh4kJqailar5Y033mDgwIHY7XbGjx9PcHAwBw8exMvLi8TERHx8fHj99dcZMmQIW7duJSoqioSEBNq0aUNgYCDR0dFMmDDBFRDQ6/UkJyeTl5d3y6/Xz8+P9PR08vPzXdvKysr4+OOPOXTokOt6jx07RnZ2tutpvdlsplmzZsCvQYYdO3agKMot79+13Nzc0Ov1pKamVurvsmXL2LdvH06nE6fTycmTJ7lw4QJ+fn5s2LABs9lMZmYm/v7+fPXVV1itVpo1a0bLli354x//SExMDNnZ2ZSUlKDVaklJSaFr1640a9aMyZMn07FjR8rLyzGZTBQXF3P48OHffL0SHBBCCCGEEEKIBujQoUP4+PgQHx9PamoqO3fuBMDb25vp06cTFhYGgE6nIzo62jUQHTx4MPfeey89e/bEZDLhcDjQarXodDouX75Mfn4+kZGRdOnShX79+mG323E6nXTo0IEzZ84wePBgjh49SpcuXbBara7zarW/Dh8dDgf9+vXDz8/vll5veno6OTk5xMfHk5OTw5dffgmA2WwmNjaW7t27u673gQceoHnz5lgsFtzc3GjTpg2HDx8Gfp27P2LECFd/bxen08nu3buJiYlh0KBBfPrpp1y+fNmVSdC3b180Gg0ajYZOnTrRtm1bcnNziY6OJjQ0lD59+pCVlUVUVBTl5eVcvnwZg8FAQUEBFy5cwMPDA7PZjNlsxmAw4Ovri8PhcE1J0Gg0lJeX4+PjQ48ePX7z9cq0AiHEXadiAZqGWIxGCCHE3U0dSKk/C3EzbDYbp06d4vjx45w8eRKz2cz06dNrbN+0aVM++OAD2rRpw6hRo1zbe/fuDcCQIUMqta8pBX7BggUAfPTRRwA8/PDDPPzwwwD8v//3/8jJySEhIYERI0bc/MXVIC0tjZ9++oljx47h5ubGn//85xrbenl5cfbsWUwmE48++qhr+7Fjx/jxxx8ZOHDgLe/ftQoLCzl27Bg5OTns2LGDzp071ziVwc3NjcuXL7Njxw5iYmIAqtQcUA0ePBiA0NDQKvsmT57s+tnpdJKUlMQPP/zgOua30DjlE0sI0Qg5nU7sdjsWi4WcnBzatGnj2peamkpAQAAeHh6u9DohhBDiTlEripeVlVFQUMDLL7/segI6Z84c/uM//gNvb29MJlOtc6qFEOJOkswBIcRd54EHHqgUia0pKiuEEELcDtdmsNW2NJkQQjQUEhwQQtwV9Ho9drsdoMp6t0IIIURDodfrJWgtbimr1cr69evZvn07BQUFhIeH8+ijj1aZRtDYpaSksHbtWi5cuIDZbCYqKooxY8bc8roHt1pOTg6fffYZ+/fvp6ysjHbt2jFu3LhKyy82FJJrK4Ro1NRiLE8++aR82RJCCNGgBQcHVypQJvct8VuUlZURFxdHz549OXPmDJMmTWL27NkMHDiQjRs30r17d9atW9eo614oisLBgweJjo7mn//8J7179+bll18mNjaWsrIyHnnkEV5++WVyc3Pru6tVXL16lUmTJvHHP/4Rq9XKtGnTmDlzJj169GDWrFn07t2bHTt21Hc3K5GaA0KIRkmdz1laWkpeXh7Z2dnk5ORQWlqKVqtFr9e75nHKly8hhBB3kvr1WlEU7HY7iqKg1WoJCAggICAAf39/PD09MRqNUhdH3BSLxcLjjz9Ot27dePPNN6utXXHu3DmmTJnCoEGDmDZtGnp940sa//LLL5kzZw7Lly/nwQcfrLJfURTmzp3L9u3b2bZtGz4+PvXQy6rOnTvHxIkTeeKJJ5g4cSJms7lKm6NHj/Liiy8yduxY/vSnP9VDL6uS4IAQolFyOp0oikJ5eTlFRUXk5eVRWFiI1WpFURR5IiOEEKJBUO9Jer0eDw8PfH198fHxca2NLsEBcTPGjx9Pu3bteP3112ttd+nSJZ599llmzZpF//7971Dvbo0jR44wevRodu7cSUhISK1t58+fz86dOxvEk/ji4mJeffVV2rdvz8svv1xr24sXLzJ+/HhmzJhxS1Yb+K0aX/hICCH4v+kEer0es9mMt7c3er0em82Gw+Go7+4JIYQQLhqNBoPBgNlsxsPDA4PBgE6nkyC2uCnbt2/HZrMxadKk67Zt3rw5U6dO5d1336VXr14YDIY70MNbY8aMGcyePfu6gQGA6dOns3//flatWsWzzz57B3pXs5SUFLKzs5k/f/512wYHB/PCCy+QkJBAZGQk3t7ed6CHNZPggBCi0dJoNOh0OsxmM1qtFrPZjN1ur7S+tBBCCFHftFotWq0Wg8HgekmGm7gZdrudQ4cOER0djb+/f52OGT58OIsWLeLnn3+ma9eut7mHt8bhw4cpLi7mqaeeqvMx//mf/8m7775b78GBzZs389BDD+Hl5XXdthqNhsjISL7++mvOnTtHly5d7kAPaybBASFEo6XRaFz1BbRaLUaj0RUYkOCAEEKIhkANAKj3LDVjQKYTiJtRVFREVlYWUVFRdf4b0mg0tGrVisOHDzea4MD3339Pjx49bqhOwv33309paSlXrlyhSZMmt7F3NXM6nfz0008899xzdT4mKCgIPz8/Ll++fBt7VjcSHBBCNGrqFyytVusKCEhgQAghRENSMUNAMgbEb2GxWMjIyLjhv6HAwEBycnJuU69uvVOnTmGz2W7oGE9PTxwOB2VlZbepV9dXUlJCdnY2JpOpzscYDAbc3NywWCw4nc56/XyQ4IAQotGr+FRGCFF3NxJIk/+/hBCi/vn4+ODt7U1qaioDBw6s82dzVlYW7dq1u829u3U6d+7MBx984Frpoy4KCwvR6XS4ubnd5t7VzMPDAzc3N/bt20eHDh3qdIzNZqOkpARPT896v9dKPpMQQgjxO6JOu1EUhRUrVhAXF0d0dDTR0dGuLJywsDDCw8OJjo7m+eefJykpCUVRZMqOEOKukZuby9mzZ/n5559JT0+v16fNdXHgwAFOnjyJu7s74eHhfP/991gsFtf+goIC0tLSOHHiBGfOnKGoqMi1z2azcf78eSIiIu54v3Nzc/nxxx9Zv349ubm5tbYtKipi7969lJeXM2DAAM6ePctPP/3k2m+1Wrl48SKHDx/m6NGj5OXlVTo+JSUFT09PgoKC6tw/h8NBZmYmV69even7m81mIzk5mfT0dAB69+5NYmKia7/T6eSXX37hzJkznDx5kosXL1bKisjKyiIvL4977rnnpt7/VpLMASGEEOJ3QB3YJyUlER8fz969e+nbty/9+vXjv/7rv3A6nXz99dcAXLhwAYCMjAzS09OZM2cO6enpREdH89xzzxEdHS2p0UKIRunMmTPMnTuXtLQ0AgIC8Pb2Jjs7m4yMDIYNG8Yrr7xySwZpBQUFpKSkEBERgZ+fHw6HA51O59p/5MgR8vPz67y8YHp6OjNmzEBRFFq0aMHJkycpKioiIyOD+Ph4Tp48ScuWLfH09KS4uJjs7GwGDBjAzJkz2bp1KwEBAXTq1KnO/a/uif3333+PzWajb9++lbY7nU6Ki4vZtWsXffv2JS0tja5du7JmzRoeffRRsrKyiIiIwGQy1Zo2X1JSwsqVK5k8eTIDBgzA39+fhIQEIiIieO+991i9ejU+Pj40b94cq9VKWloaQUFBxMXFERkZyb/+9S/Gjx9f52uEXwsfHjp0iPbt27vubTdKo9HwP//zP3z++ecYjUZatWpFWloaWVlZnDt3jrlz51JaWoqfnx8mk4krV66QnZ1NbGwskydPJiUlBS8vL8LDw2/4vW81jVMeAQghhBB3rYpBgfHjx9OyZUvGjRvHmDFjUBSl1owAtaaHRqMhMzOT7777jjVr1pCens7y5cslSCCEaFQ2bNjAzJkzee+99xg6dGiV/QsXLmTBggUkJCTcdOG+9957jwsXLtCpUyf27NnDuHHjKC4u5tixYxgMBrp3786aNWtQFAWHw8H8+fMJDg6u8/nz8/NZsmQJS5YsISIigpSUFFatWkW/fv0qtXM6nXzwwQcsWLAAk8nEqlWr6N69+3XPrygKixcv5vTp0wwbNoz09HQ2bdrEoEGDyM/P5+zZs/ztb39j27ZtJCcnM2vWLOLi4rjnnnvo0KEDAQEBnDp1igcffJD8/HxOnz7NuXPn8PHxITIykscff7xSkKQmu3bt4u233yYjI4MmTZrQtWtX3nzzzSpLMR49epTnn38ed3d3goKCSEhIqPPvEn7NRtiwYQMnT55kzpw5N1QAsToZGRksXryYhIQE/Pz80Gg0LFmyhM6dO1dp+8orr7BlyxZCQkKYN28evXv3/k3vfSvo4uLi4uq7E0IIIYS4tdTBvqIoDBw4kKSkJKZMmcIbb7xBx44dsdvt2O12HA5HpQBBxZf65VVRFLy8vOjcuTNjx47Fz8+PhQsXsnLlSvr164evry8gdQmEEA2T0+lk9+7dfPTRR6xevbrGQXJkZCQDBgxg2rRpdOnShWbNmt3we+Xl5ZGZmUn37t1p3749UVFR2Gw20tLSOH/+PCEhITz22GNERETQrl27G071N5vN9OnTBy8vL06ePMnWrVurnduu0Wjo0aMH7du35+TJk8TExLg+q2uTnp7OunXr8Pf358qVK3Tq1IlnnnmGwsJCgoOD6datGy1atGDZsmUANG/enNLSUuLj49Hr9Xz//fe4u7tz+vRpnnzySY4cOcKgQYNo164dDoeD1q1b16mGQKtWrRg+fDibNm1i4sSJ/OUvf6k2qNC0aVOeeeYZNm/eTP/+/enVq1cdfov/55dffiExMZHmzZsTERHxm1cR8fHxcU3Ts9vtrFq1itDQ0GrbDh06lNDQUJKTk5kwYUKdlj683aTmgBBCCHGXUQf3iYmJ6PV6evfuzZYtWxg5ciRWqxW73Y6iKGg0GnQ6HXq9Hr1eX2kNdnWbuuyaoijY7XasVisjR45k8+bN9O7dm4EDB5KYmCj1CIQQDVZxcTGLFi3ir3/9K61ataq1bZcuXZg5cybvvPMOxcXFN/xeZWVlNG/enIyMDLKzs0lLSyM5OZkmTZpgNBqx2+04nU6CgoLYu3cvV69eveH3SE1N5auvvuJf//oXfn5+tbZ9+OGHeeyxx/jwww/r9Bl9zz330L17d1q1akVERAQ2mw2NRoPNZiMgIIBvv/0Wh8PBoEGDeOCBB2jZsqXrWF9fXwwGA2azGaPRSEBAADabrVLA+UbMmjWL6Ohonn766Vrbubu7s3btWlavXs2JEydu6D1atGjBrFmzeOGFF+qU0VAX586dY/v27cTFxeHj41Nr22HDhvHYY4+xbNmyG/793A4yrUAIIYS4i1QMDAwePJivv/6aqKgoHA6Ha66nWniw4uva6QEVMw/UV8UsAzWw8P333/Piiy8ye/Zsxo8fL9MMhBANzqZNm/jqq6/497//XWXftbUA4Nd6AbNmzeLJJ5+sc02A28Fut/PTTz8RFhZGYGCga/vChQtxOBxMnTq1Uhq8+vl/7edwSUkJgwYN4tNPPyUsLOxOXkKdJCYmct9991UqJJiZmcmIESPYs2cP7u7uldpbLBZMJlOVKQDr169n+/btLF269I70Oz8/n2PHjlWpwfDWW29hNpuZNm1alWOqq+WQlpbG3/72N2bOnHnd4NXtJpkDQgghxF3i2sDAli1b6NGjB3a7HQCdTofRaMRkMmE2mzGbzZhMJoxGY5WXut1kMlV6GY1GdDodTqcTu91Ojx492LJlC3PnzuXjjz+WDAIhRIPz0Ucf8eijj1bZvnz5ct59912++eYb1+ck/Joa3rFjR44dO1avT3P1ej0XL15k1KhRTJs2jfPnz1NaWkpGRgbdunWrMjjOzs5m5syZlJaWVtru7u5Or169OHDgwJ3sfp0VFRXx5JNPMn78eE6fPg3Ad999R//+/asEBnbv3k1iYiLvv/8+ly9frrSvf//+ZGRkUFhYeEf67XA4+OSTTxgwYAAJCQmUl5cDsG/fPgYPHlyprd1u5/PPP2fFihVs3bq10moFISEh+Pr6ulY7qE+yWoEQQghxF6guMBAZGel6SqFOE9Dr9Wi1Wtd0Aai9VoDT6XQFA9TMAZ1O56pZoCgKzZo1Y9GiRUydOpX+/fvTunXr655XCCHulOTkZN56660q23Nycpg0aRK7d++mqKioUop+cHAwH330EQUFBQC1Vtm/ntqOvd55dTodgwYNYtu2bXTs2JFhw4bh4eGBv79/lbZNmjQhJCSk2vN17NiR5cuXk5mZidVqvePXURuNRsOgQYPYt28fnTt35k9/+hOKovDAAw9UafvQQw9hs9n497//XeUJvK+vL1arlX/84x94eXnhcDhu+3W0bNkSp9NJbGwsISEhxMXFUVZWVmXFC71ez9ChQ3n//fcJCgqq1Hej0UhgYCBXrlypNrPgTpLggBBCCHEXUAfvEyZMYMuWLURFRbkG9tXVEKgu/V994q/+W7Gd+oXJ6XRWmoqgFjWMiopi0aJFDBo0iDNnzrieaEmAQAhR37RabbUZTVqtlsLCQlfA9Fq+vr6Ehoa6PsfUzzU1m0A9p3qsOhhV26uDvIrZW+p+NftKo9G4zquez+FwuLbrdDry8vKwWCx4enoSHh5Ofn5+jRlaOp2u2sGloij4+voSEhJSaduduA61fcVpaRXP63Q6KSgooKysDD8/P1q1akVWVla111hSUsJ7773H6NGjK01DqHj9ISEh+Pv7u57O/5brUGsl1HQdTqeTzMxMnE4n4eHhNGnSpMb7no+PDyNHjuTYsWNYrVbc3Nxc+xpKxp0EB4QQQohGTv3yEh8fT0hISJXAgMFgQKfTVQoMXHu8eo4NGzaQkZGB0WgkOjqa++67D6BKkODaAIMaIAgJCSE+Pp64uLjfvCSUEELcCn379uX48eNVlpPr1asXS5YsYdSoUXh7e7u2O51Ozp8/T69evRg7dmy9PclVlxX8+OOPGTt2LLGxsZjNZubMmVNtIcMffviBQ4cOodfriY2NrbTv2LFjPPXUU4waNepOdb/O3n//fVauXMnjjz/Opk2b8Pf354svvmDPnj1V2q5YsYLLly+zceNGnn322Uq1GHJyctDpdIwbNw5PT8/b3u9Lly4xceJETCYTO3fupFu3bmi1Wtzd3cnIyKiUieJwOFi3bh2pqamMGjWqUmCgrKyM7Oxs+vTpU69ZAyAFCYUQQohGTR3U2+12zGYzmzZtomfPnq7AgNFodE0lgKpP8tXAgN1uZ+XKlbzwwguufTExMaxcudL1JEo9tmIwQV3BwGaz4XA4yMzMZPjw4ezcuZM2bdpUOk4IIerDzp07WbVqFatXr65T+/z8fGbNmkVMTEy9rj3vcDhIT0/nnnvuqTT3Xp3u8NJLL2EwGK57nqKiIh555BG++OILmjZteju7fFOOHj1K69at8fDwcG27cuUKDz/8MImJiXVaghFgzZo1JCcns3DhwtvV1UosFgsXL16kffv2lbZ/8MEHFBcXM2PGjDqd58yZM7z11lvMnDmz0uoP9UEKEgohhBCNWMWsgRkzZtCzZ09XWqQ6naC61QgqHu9wOMjJyWHmzJmV9jkcDqxWa5WCXOqKB+oyiEajEYPBgFarJTg4mDFjxjBv3jzXCglCCFGfevfuTXl5OTt27KhT+6SkJAoLC4mIiLjNPaudTqejVatWVYryDR48mH379pGWllan8yxevJiwsDDmzJnDxIkTee6553j66acZN24cZ8+evR1dvyH3339/pcAA/Fo/4Q9/+APx8fF1OsfVq1f5+9//Xu0KAbeLh4dHpcCAzWZj9erVLF26lM2bN7uKK9bGbrezbt06WrduTWho6O3sbp1IcEAIIYRopNQn+A6HgzVr1jB69GiAagMDNR2vKAo2m434+HiuXLmCt7c3ZrMZwJUVUNMgv2KQQH0/jUbD6NGj2bt3r2tepgQIhBD1yd3dnVdffZV3332Xw4cP19p2z549zJ8/n9dff71S6ndDEh4eTmxsLFOmTOHixYu1tl2/fj3Jycm8++67eHp6smzZMpKTk+nfvz9Tp06tUjivIZk9ezbp6eksWLCg1nbZ2dk88cQT/PWvf6Vt27Z3qHf/p6ioiA8++ICoqCgOHDjA5s2bmTJlCrNnz+aXX36p9dhVq1Zx8OBBJk+e3CCy7CQ4IIQQQjRS6uD+f//3f4Ffl0NSn+ZfOxWgpuMdDgdHjhxh2bJlAMTGxrpSOB0OBzabrdZBvlqkqeL7hoSEEBoayrfffivZA0KIBqFHjx7MmDGDUaNGsXTp0ir7FUXhtddeY8KECXz66ad06NChHnpZdyNGjOAvf/kL3bp1Y8WKFVX2FxcX89prr/H222/zzjvvEBgYyPz58xk+fDj9+/dn5cqVxMbGkpSUdMf7XlcGg4HVq1ezf/9+YmJiyMnJqdJm69atdOvWjZdeeolx48bd0f4VFRUxffp0WrZsSUZGBklJSSxevJgWLVowZswYoqOj6devHzt37qxybG5uLk899RSrV69m3bp1leoT1CepOSCEEEI0QhXn/MfFxeFwOJg+fTpGoxGTyeRK868ta8But1NWVsYjjzzC/v37adOmDR9++CFjx47l8uXLDBs2jCVLluDj44PJZKrxfBUzEMrLy7HZbKxdu5YDBw7w8ccfX7cvQghxp+Tk5PDPf/6T3bt34+npidlspqCggOLiYsaPH09sbGyl4oQN3aVLl3jnnXfYunUrgYGBmM1mHA4HFouFMWPGMGHChErTEs6ePcuLL77IG2+8gaenJ/Pnz+fo0aM88sgjTJw4sd7nvFfHbrezadMm3n77bZxOJ02bNsVms5GZmckDDzzAa6+9Rvv27e/IPcZqtbJ3714WLVpEeno6EyZM4JlnnsHHx6fa9mlpacybN4/U1FTc3d3R6XQUFBSg0Wh46aWXGDlyZIMq3ivBASGEEKIRUp/6W61WJk6cSM+ePRk7dixGo7FKEcLqjlUUBavVymeffcaECROAX4soderUiZiYGLKyslzBAXWqQW0D/IrFCa1WK5988gkHDx5k6dKlGI1G10oJQgjREFgsFgoKCrDb7bi5ueHv71/tcoaNRVlZGfn5+dhsNjQaDUFBQZhMpirtHA4H27ZtIysri/Hjx6PVasnOzmbjxo0sWbIEPz8/XnjhBR5++GG8vLzq4UpqpigKubm55Ofno9PpaNq0aZV6DLeD0+nk7NmzrF69mo0bN3L//fczZcoUHnzwwToVhIRfi1yWlJSgKIrr760h3hMbTphCCCGEEHVWccWA7777jldffdU1/7+u0wkKCgqYNWsWAEOHDqVbt26u9a1vVMX6A1qtlpCQENauXYuiKCiKIpkDQogGxcPDo0oRvMbMbDbXqX6ATqfjD3/4Q6VtQUFBTJo0iUmTJnH27FkWLFjAxIkTGTx4MFOnTiU6Ovo29frGaLVaAgMDKy1feDsVFhayatUqli5dSmlpKdOnTyclJQWj0XjD5/L19a3zqgv1SYIDQgghRCOlDrxV6gD9eoEB9Sn/P/7xDy5duoS7uzuvvPIKJpMJRVFuehCvvr9WqyU0NJSMjAxXvQIhhBANX5s2bVi8eDHvvPMOBw8eZNWqVUydOpUOHTrw9NNPExkZSXBwcH1387YoKyvj9OnTbN26lS1btqDRaBg5ciQbNmygTZs29d29O0KCA0IIeT05qAAACiBJREFUIUQjo2YNqK+MjAxCQ0MrLVlYW60Bh8PBqVOnWLx4MQCTJk0iODgYvV7/mzIHKr6uDQ6oL8keEEKIhs9sNjNgwAAGDBiAoigcOXKE5cuX8/e//53c3FxiYmIYPnw4ERERjXo6xuXLl0lKSmL9+vUcOnSI9u3bM3z4cDZu3HjHMhQaEgkOCCGEEI2UmgXQokULMjIyaNu2bZ2mE9hsNl577TXKy8sJCwvjueeew2g0YjAYsFqtlc5xo0sRXhuYkKUMhRCicdNqtXTt2pWuXbsCUFBQwFdffcXcuXPZs2cP9913Hw8++CBDhw6lT58+Dbago6IoZGRk8M0335CUlMT+/fsxmUyMGTOGV199le7duzfqQMetIMEBIYQQopFTn9Kr6ztfL2tg586d7Nq1C4DnnnuOwsJCbDYbOp3OtdoA/FqwKysrC4fD4VqtoDbq+2o0Gg4cOECvXr1u1SUKIYRoIHx8fBg7dixjx47FZrNx9uxZTpw4wc6dO5k/fz42mw2j0UiXLl2IiIigXbt2BAUFERAQgLe3923NILPb7eTm5nL16lXS09M5cuQIKSkpZGZmoigKzZo1o3///kybNo2FCxfSpEmT29aXxkiCA0IIIcRdoq61Bvbt2+faHh8fT3x8fLXHJCYm0q1bN9zd3cnOznbVE5CpAUIIIQAMBgMdO3akY8eOPPnkk8CvT+gtFgspKSmkpKSwY8cOTp8+zS+//EJJSQnh4eG0aNGCsLAwwsPD8fX1xcfHh4CAANzd3XF3d8dsNmO1WgFcP5eWllJcXExeXh5FRUUUFBRw6dIlLl26xLlz5zh//jzZ2dn4+vrSpk0bOnbsSEREBPPmzaN169Y3VUjw90aCA0IIIUQjN3r0aD777DMGDhxYazs1OFDd8la10Wg02Gy2WpdHBFzTB5xOJ999951kDgghxO+QVqvFy8vLVbOgIofDwS+//EJWVha5ublkZmaSmZnJzz//zNWrV7FYLBQXF1NSUuJaprC4uBiTyYSHhwfe3t4EBAS4ggmdOnWiT58+NG3alGbNmv0u6wTcShqnTAQUQgghGhU1C8Bms1FWVkZaWhpPPPEEx48fx2QyVTuIV9uXlJSQl5fHhQsXKC0tBUCv16PT6VAUhfLycp5//nmuXr1Kv379iIuLo0mTJjRv3hx3d3cMBkONAQI1+FBeXs69995LQkICrVu3xmw2u46TrAMhhBB1oQ5T5b5x50jmgBBCCNEIXbsyQEhICPv27eOhhx6qtb1Op8NkMtGsWTPKy8txOByuwb46sFcLMpnNZnx9fW9oLXCn08n58+dxOp2EhoZed/UEIYQQojrXu2+cP3+e06dPM2DAAAwGwx3q1d2t9spCQgghhGhwKhb+U5/Gx8TEsGbNmkrLBl5Lp9NhMBhwd3fHx8cHX19f/Pz88PHxwcvLC09PT9zc3Fzn12q1mEwmjEajKxuhtmKHakbDm2++SUxMTKX+Vey3EEIIUROLxUJubi4JCQnYbDZ27NiBxWLh1KlTKIrCxo0bOXXqFKdPn6ZZs2bk5eWhKEp9d/uuIJkDQgghRCOkPo1XiwT27t2b+fPns2fPHgYOHFgl9V9tbzAYXP8qiuIa1DscDsrLy9FoNK6aBBULQ9U2nUClKArnzp3js88+4/Lly5UKGEpgQAghREW5ubmsWLECm83G6NGjOXr0KF26dCElJQVFUfjoo48oKioiMDCQgwcPcuLECQoKCigrK+PAgQMcPHgQf39/Bg8eTHR09HXvUeL65DcohBBCNFLq4Fur1RISEsKMGTP47//+70qD/orUaQVGoxGz2Yybm5srAFDxtWXLFr777jveeOMNzGYzRqMRnU5XY+aAmjGgKAqTJ09m4cKFlQIX8oVNCCHEtZKTkzlz5gw//vgjmZmZ+Pv7M2fOHDp06ICfnx9Dhgzh2WefJSQkhGPHjqHX69m7dy99+/YlLy+Pp59+mscee4zy8nLJHLhF5G4thBBCNEIVMwd0Oh0ajYZevXrhdDpZuXIlDoejxmPUIIFer3e9DAYDJpMJNzc3fH19CQ4OxtPT05U1oNYhqI4aHEhKSiI9PZ2nnnrK9R5q3yRzQAghREWhoaFER0fz7LPP0rRpU06cOMETTzzBkSNHXAHuEydO0LRpU6xWKwaDgdLSUpo3b47dbkdRFBwOR7XT6MTNkdUKhBBCiEbK6XRit9ux2WyUl5djt9u5ePEiw4cPZ9asWcTGxtZ5hQD1S5bVasVqtaIoiqt4oRocqC1rYPfu3QwdOpSEhAR69erlCjaoWQcSHBBCCHEtdQWdgIAAV12c8vJyjEYjRUVFFBcX07x5c1dGnKIoGAwG8vPz8fX1BcBqtWI0Guv5Su4OEhwQQgghGin1i5K6yoA6qE9OTmbq1Kns3LmT1q1b1ylAULH2gPokRs1KqGlqgPr+iYmJDBkyhE2bNhEVFYVWq8VoNLoCC5I5IIQQQjR8Mq1ACCGEaKQqTiswGAzo9Xo0Gg2RkZEsWrSIwYMHs3z5ctcTl+udS6PRoNfrMRqNGI3G62YMOJ1Ovv32W4YMGcLmzZuJiooCcE1TkCkFQgghROMhwQEhhBCikVMDBHq93lUbICoqikWLFjFv3jzi4uJuKEBQsZDgtYP7iksWzpkzhwkTJrBly5ZKgQG1H1KIUAghhGg85K4thBBCNGIVCwwaDAbXE3un00lUVBSbN2/m3LlztGrVisTExDoFCdTzXksNDCQmJtKqVSuSkpI4cuRIlYwByRoQQgghGh+pOSCEEELcBdR6AXa7HavVis1mw+FwuAIH69at49NPPyU9PZ3ly5cTHR1daeBeUzCg4s8rVqxg5cqVOJ1OxowZw+jRo12rIlQMThgMhjoXQhRCCCFEwyDBASGEEOIuUTFAYLPZXAECwFVPYO3ata4gQf/+/QkPD6d///5oNBpatmxJWFgY58+fByApKQmAlStXutaWfvrpp4mJiXEtI3Vt1oI6pUACA0IIIUTjIsEBIYQQ4i5SccUBm82G3W6vNJBX6xNkZmayf/9+9u3bR3p6OgDp6elcuHCB0NBQAPr16wdAnz59GDNmjOu8iqIA/xdwqBgYkIwBIYQQonGS4IAQQghxl1ELBqpZBOpLXaLw2sKD6mD+2sKDAIqiuF7qNjVboOIqCWoBQgkMCCGEEI2TBAeEEEKIu5BaPFB92q8GB9Qn/zXd/tXBvbq/YruKQYGKqyNI8UEhhBCi8ZPggBBCCHGXuvbpvxocUAMEapBAfV1LHfBXzDKoGBxQt6lthRBCCNF4SXBACCGEuMtVDABcO02gpgBBdYGBa3+WbAEhhBDi7iHBASGEEOJ3ouJUATUwUPG/r1UxAHBtMECCAkIIIcTdRYIDQgghxO9QdTUFaiIBASGEEOLuJ8EBIYQQQgghhBDid05b3x0QQgghhBBCCCFE/ZLggBBCCCGEEEII8Tv3/wF47kwRMC/bBAAAAABJRU5ErkJggg==;" parent="1" vertex="1">
          <mxGeometry width="1031" height="418" as="geometry" />
        </mxCell>
        <mxCell id="A-15gWhZpocMItkSHM9Z-3" value="" style="rounded=1;whiteSpace=wrap;html=1;fillColor=none;strokeColor=#0000FF;strokeWidth=3;" parent="1" vertex="1">
          <mxGeometry x="580" y="170" width="80" height="60" as="geometry" />
        </mxCell>
        <mxCell id="m5PyDp_cTLXkOWQP1eJW-1" value="" style="rounded=1;whiteSpace=wrap;html=1;fillColor=none;strokeColor=#0000FF;strokeWidth=3;" vertex="1" parent="1">
          <mxGeometry x="900" y="110" width="130" height="110" as="geometry" />
        </mxCell>
      </root>
    </mxGraphModel>
  </diagram>
</mxfile>
